<svg width="355" height="372" viewBox="0 0 355 372" fill="none" xmlns="http://www.w3.org/2000/svg">
<g clip-path="url(#clip0_157_271)">
<path d="M99.4587 371.586C97.5971 371.049 97.3314 370.675 98.5042 370.243C101.462 369.154 127.717 367.542 135.656 367.962C139.946 368.189 153.927 368.666 166.723 369.022C186.336 369.568 190.099 369.434 190.68 368.162C191.263 366.886 187.12 366.576 163.823 366.154C148.673 365.879 132.469 365.81 127.815 366.002C88.1784 367.63 82.8797 367.639 82.9956 366.079C83.0882 364.832 85.8403 364.394 97.1337 363.828C104.847 363.442 115.221 362.708 120.189 362.197C125.156 361.686 143.437 361.515 160.813 361.816C187.053 362.271 194.08 362.073 202.287 360.649C214.227 358.577 216.737 358.505 216.019 360.254C215.715 360.995 214.257 361.426 212.695 361.235C211.165 361.048 209.875 361.404 209.829 362.027C209.783 362.65 211.644 363.159 213.963 363.159C218.065 363.159 218.188 363.059 218.449 359.531L218.719 355.903L208.927 356.415C203.542 356.696 191.793 357.378 182.818 357.931C173.842 358.483 157.912 358.946 147.418 358.96C136.922 358.979 119.759 359.465 109.277 360.049C83.9051 361.466 44.4078 360.324 44.5665 358.179C44.6481 357.083 45.4818 356.814 47.5366 357.222C55.8248 358.867 162.41 357.609 176.245 355.703C179.64 355.236 159.862 355.087 132.293 355.373C45.9628 356.269 28.9201 355.875 29.134 352.99C29.2102 351.982 27.7226 351.51 24.2403 351.436C12.3976 351.185 27.3552 349.66 48.4114 348.971C60.3292 348.582 74.6371 347.595 80.2072 346.78C90.1545 345.323 89.913 345.307 66.5655 345.886C53.4924 346.209 36.5908 347.11 29.0061 347.886C21.4212 348.663 15.0163 349.082 14.7727 348.818C12.9987 346.899 25.0935 345.469 60.4209 343.421C67.7018 342.998 72.6033 342.481 71.3141 342.272C70.0248 342.062 69.008 341.377 69.0542 340.75C69.1141 339.943 60.1076 339.822 38.2425 340.336C21.2497 340.735 5.96147 341.162 4.26888 341.285C0.289853 341.575 -0.392171 339.167 3.40342 338.23C6.42852 337.483 91.4571 337.037 119.9 337.618C139.429 338.018 181.623 336.894 189.715 335.76C193.146 335.279 183.716 334.996 166.485 335.062C150.532 335.124 126.239 334.777 112.501 334.294C94.75 333.67 87.4987 333.746 87.4386 334.558C87.3841 335.268 84.5778 335.701 80.0248 335.701C74.1415 335.701 72.5195 335.336 71.8004 333.852C70.9902 332.182 68.4453 331.982 45.2771 331.773C11.6889 331.471 -0.399318 330.939 0.010016 329.782C0.197809 329.244 16.4405 328.901 37.6956 328.987C69.4149 329.116 75.152 328.908 75.7454 327.611C76.3577 326.271 76.5825 298.923 76.1367 279.992C76.0442 276.072 76.3901 273.392 76.9839 273.392C78.1338 273.392 78.6931 280.648 78.4879 292.895C78.2947 304.598 78.7004 324.115 79.2012 326.988C79.5341 328.894 80.3552 329.364 83.3558 329.364H87.096L87.61 312.76C87.892 303.627 87.6943 295.691 87.1701 295.123C85.9149 293.765 87.1999 276.56 88.5479 276.56C89.9718 276.56 90.2072 279.142 90.2788 295.569C90.404 324.365 90.1834 322.473 93.4556 322.706C96.3511 322.913 96.3579 322.9 97.0287 315.651C97.7135 308.246 103.284 292.694 105.823 291.097C107.868 289.811 109.702 290.19 109.578 291.873C109.515 292.744 109.896 293.457 110.428 293.457C111.956 293.457 114.249 302.209 115.493 312.789L116.635 322.5L117.543 302.434C118.043 291.398 118.308 279.517 118.133 276.032L117.814 269.696L117.065 278.009C116.446 284.874 116.081 286.116 114.975 285.136C114.107 284.367 113.668 280.317 113.73 273.654C113.784 267.992 113.76 258.137 113.654 251.754C113.556 245.049 113.906 239.756 114.483 239.218C115.061 238.679 115.602 240.235 115.765 242.902C115.92 245.441 116.383 252.27 116.794 258.078L117.543 268.639L118.079 253.326C118.373 244.904 118.316 237.775 117.951 237.485C117.298 236.965 115.098 231.503 115.167 230.571C115.197 230.308 116.134 230.092 117.274 230.092C121.534 230.092 121.574 230.667 120.858 281.84C120.714 292.005 120.692 305.312 120.809 311.41C120.926 317.509 120.888 324.281 120.724 326.46L120.431 330.42H127.812H135.193L135.948 322.763C136.363 318.552 136.719 314.156 136.739 312.995C136.905 303.445 136.663 295.679 135.939 287.121C135.471 281.602 135.418 272.098 135.822 265.999C136.687 252.889 136.364 244.692 135.013 245.492C134.479 245.808 133.788 245.205 133.477 244.152C133.166 243.099 132.553 241.978 132.113 241.663C131.673 241.347 131.27 239.921 131.216 238.494C131.137 236.389 131.573 235.917 133.532 235.989C135.878 236.076 135.941 235.886 135.756 229.261C135.603 223.757 135.837 222.535 136.969 222.918C137.74 223.179 138.396 224.306 138.427 225.422C138.831 240.209 138.674 239.576 141.689 238.459C144.819 237.299 146.551 238.183 144.013 239.646C139.135 242.457 139.358 241.434 139.349 261.051C139.349 278.171 139.488 279.52 141.261 278.606C142.318 278.061 144.303 277.616 145.673 277.616C148.146 277.616 148.163 277.553 147.986 269.431C147.888 264.929 148.054 254.133 148.349 245.44C148.884 229.809 148.447 227.501 145.19 228.719C144.232 229.077 143.788 228.413 143.888 226.773C144.035 224.371 143.988 224.358 142.652 226.396C141.309 228.44 141.247 228.423 140.72 225.867C140.42 224.415 140.23 221.801 140.298 220.059C140.366 218.316 139.813 215.529 139.069 213.865C137.348 210.013 137.506 207.914 139.518 207.914C140.388 207.914 141.216 207.082 141.358 206.066C141.499 205.049 141.762 203.742 141.94 203.161C142.117 202.58 142.379 201.511 142.521 200.785C142.971 198.489 147.015 199.231 146.841 201.577C146.754 202.739 147.159 203.689 147.739 203.689C148.319 203.689 148.721 204.671 148.631 205.871C148.542 207.071 148.907 209.002 149.442 210.163C150.117 211.63 150.048 212.677 149.219 213.601C147.418 215.596 148.094 226.13 149.978 225.426C151.052 225.025 151.366 225.932 151.144 228.804C150.824 232.973 150.956 252.894 151.405 268.557C151.555 273.74 152.128 278.468 152.679 279.065C154.691 281.241 153.756 281.739 144.477 283.435C143.889 283.542 142.511 283.703 141.415 283.791C139.555 283.941 139.415 284.672 139.326 294.777C139.19 309.967 140.099 322.36 141.411 323.275C142.024 323.701 143.598 324.058 144.909 324.067C147.094 324.086 147.263 323.737 146.937 319.933C146.744 317.65 147.354 313.319 148.298 310.309C149.551 306.313 149.712 304.639 148.893 304.108C147.715 303.344 148.749 292.877 150.131 291.589C151.398 290.408 152.73 293.821 151.967 296.296C151.575 297.567 151.709 298.902 152.264 299.262C152.901 299.676 153.465 297.328 153.793 292.903C154.174 287.761 154.655 286.005 155.598 286.327C156.305 286.568 157.08 288.153 157.321 289.847L157.76 292.928L158.285 289.76C158.573 288.018 158.832 285.998 158.859 285.272C158.889 284.546 159.527 283.952 160.284 283.952C161.042 283.952 161.856 284.546 162.095 285.272C162.442 286.328 162.566 286.328 162.71 285.272C162.96 283.45 166.014 283.606 166.59 285.469C166.848 286.304 167.721 286.74 168.53 286.437C169.541 286.059 170.142 287.139 170.454 289.893C170.869 293.549 171.002 293.687 171.982 291.477C173.824 287.322 175.696 289.476 174.946 294.888C174.541 297.811 174.715 299.793 175.374 299.793C175.983 299.793 176.569 298.605 176.676 297.153C176.783 295.701 177.296 294.513 177.815 294.513C179.126 294.513 179.276 303.209 177.992 304.735C177.36 305.486 177.21 308.392 177.616 312.058C177.985 315.4 178.171 319.711 178.028 321.637L177.77 325.139H183.135H188.5L188.184 321.179C187.11 307.72 186.642 291.069 187.279 289.007C188.505 285.039 186.886 283.571 182.001 284.221C177.126 284.869 175.558 283.659 176.094 279.665C176.282 278.247 176.463 275.604 176.493 273.792L176.545 270.496L171.464 271.466C163.876 272.916 152.068 273.528 152.146 272.467C152.182 271.956 152.965 270.95 153.882 270.233C154.799 269.515 155.369 268.597 155.15 268.193C153.587 265.317 155.628 200.15 157.549 191.565C158.092 189.136 159.756 185.993 161.332 184.417C162.879 182.87 164.181 181.108 164.225 180.502C164.269 179.896 164.776 179.4 165.35 179.4C167.005 179.4 170.375 182.894 170.257 184.488C170.198 185.286 170.76 187.2 171.505 188.741C173.261 192.377 176.688 211.576 176.363 215.963C176.225 217.828 175.661 219.513 175.11 219.707C174.5 219.922 174.352 222.119 174.73 225.339C175.072 228.244 175.178 238.268 174.966 247.617C174.754 256.965 175.04 265.52 175.599 266.626C177.257 269.906 177.478 264.143 177.092 227.716C177.04 222.819 177.332 221.643 178.593 221.643C179.7 221.643 180.122 222.959 180.033 226.131C179.739 236.58 179.678 256.354 179.905 267.836C180.008 273.203 180.358 278.074 180.677 278.661C180.995 279.248 182.724 279.728 184.517 279.728H187.778L188.878 254.666C189.484 240.882 189.832 229.446 189.654 229.253C189.474 229.059 187.893 228.859 186.138 228.809C182.684 228.711 182.506 228.309 181.872 219.267C181.682 216.508 181.1 214.25 180.586 214.25C180.072 214.25 179.704 213.537 179.768 212.666C179.834 211.795 180.361 211.082 180.941 211.082C181.52 211.082 182.134 209.3 182.304 207.122C182.476 204.943 183.12 202.448 183.739 201.577C185.412 199.223 188.415 201.586 188.561 205.38C188.629 207.064 189.084 208.893 189.578 209.445C190.834 210.847 190.44 214.25 189.022 214.25C187.648 214.25 188.027 223.67 189.466 225.286C190.024 225.913 190.396 225.782 190.459 224.934C190.513 224.188 191.138 223.78 191.844 224.025C192.689 224.319 192.969 226.792 192.659 231.242C191.904 242.109 191.326 269.936 191.641 280.255C191.801 285.483 191.839 297.839 191.725 307.713C191.434 333.083 190.665 330.981 200.333 331.239C204.775 331.357 209.098 331.034 209.939 330.522C211.215 329.744 211.467 327.128 211.46 314.732C211.46 306.56 211.774 298.905 212.171 297.721C212.568 296.537 212.433 295.568 211.87 295.568C211.307 295.568 210.943 289.985 211.059 283.159C211.356 265.874 210.23 240.652 209.164 240.652C208.676 240.652 208.335 239.82 208.408 238.804C208.482 237.787 207.631 234.817 206.52 232.203C204.279 226.93 204.588 222.15 207.105 223.146C207.952 223.48 209.587 223.754 210.739 223.754C212.793 223.754 212.786 223.817 210.346 226.923C208.978 228.665 208.327 230.091 208.897 230.091C209.469 230.091 210.192 229.497 210.504 228.771C210.817 228.045 211.361 227.735 211.713 228.082C212.94 229.292 215.063 306.024 214.189 317.57C213.551 325.98 216.262 321.721 219.826 308.709C221.725 301.772 224.041 295.044 224.971 293.757C225.901 292.471 226.736 290.4 226.829 289.156C226.949 287.527 227.45 287.073 228.617 287.535C229.508 287.887 230.969 288.176 231.864 288.176C233.074 288.176 233.291 288.921 232.709 291.08C232.279 292.677 232.121 299.449 232.364 306.129C232.639 313.815 232.394 318.982 231.679 320.202C230.675 321.925 230.81 321.999 232.944 320.899C234.256 320.222 236.125 319.88 237.095 320.14C238.698 320.568 238.911 319.487 239.417 308.354C239.723 301.612 239.932 293.179 239.88 289.613C239.796 283.857 239.553 283.19 237.709 283.664C235.877 284.134 235.675 283.622 235.993 279.322C236.429 273.428 237.785 273.006 238.931 278.407L239.771 282.367L239.58 277.615C239.477 275.001 238.771 271.745 238.019 270.378C237.266 269.012 236.954 266.991 237.324 265.886C237.694 264.781 237.291 262.097 236.433 259.921C235.572 257.745 233.935 253.351 232.793 250.157C231.651 246.962 228.732 239.833 226.306 234.315C223.881 228.797 220.711 221.566 219.261 218.246C217.811 214.926 216.191 211.928 215.659 211.583C214.255 210.672 214.691 207.913 216.24 207.913C217.643 207.913 223.867 218.461 224.849 222.5C225.169 223.82 227.574 230.227 230.193 236.736L234.956 248.572L235.363 243.82C235.586 241.206 235.526 235.741 235.227 231.675C234.93 227.609 235.689 211.451 236.916 195.768C238.144 180.085 239.184 166.779 239.228 166.198C239.271 165.617 239.228 162.171 239.124 158.541C238.999 154.118 239.312 151.941 240.072 151.941C240.696 151.941 241.122 153.071 241.02 154.452C240.92 155.833 241.508 157.559 242.331 158.288C243.352 159.193 243.467 160.013 242.692 160.871C242.068 161.563 241.922 162.57 242.37 163.108C242.816 163.645 244.256 170.264 245.567 177.815C246.88 185.366 248.838 195.821 249.92 201.049C252.44 213.223 252.748 216.362 251.423 216.362C250.243 216.362 248.448 210.799 248.669 207.824C248.911 204.537 247.129 200.101 245.99 201.163C243.936 203.078 249.038 218.69 252.055 219.722C252.604 219.91 253.022 223.389 252.985 227.454C252.949 231.518 253.197 241.497 253.542 249.628C254.683 276.566 254.753 274.446 252.722 274.446C251.456 274.446 251.059 274.983 251.431 276.187C251.728 277.144 251.713 284.629 251.398 292.82C251.086 301.011 250.974 312.815 251.148 319.051L251.469 330.389L254.272 329.816C255.813 329.502 259.115 328.737 261.61 328.118C264.104 327.499 267.443 327.253 269.031 327.572C271.984 328.163 296.641 327.067 322.222 325.207C352.939 322.973 355.081 322.896 354.998 324.027C354.957 324.638 353.191 325.138 351.083 325.138C348.975 325.138 344.313 325.61 340.724 326.187C324.739 328.755 303.928 330.419 287.788 330.419C276.758 330.419 270.011 330.827 269.53 331.523C269.11 332.13 266.559 332.56 263.861 332.478C254.529 332.196 222.381 333.355 221.692 333.998C220.068 335.512 312.521 332.691 329.196 330.718C338.673 329.597 349.161 329.952 347.55 331.341C346.383 332.346 291.404 335.321 257.614 336.208C245.992 336.512 233.857 336.997 230.646 337.285C215.79 338.613 203.105 340.282 203.424 340.866C203.941 341.811 214.077 341.575 242.925 339.948C259.791 338.996 268.905 338.854 269.316 339.537C269.98 340.64 282.27 339.865 292.801 338.055C301.453 336.569 321.78 336.339 320.812 337.74C320.384 338.361 317.094 338.881 313.502 338.897C306.887 338.925 292.058 340.335 280.38 342.044C275.018 342.829 275.61 342.888 284.043 342.41C289.576 342.096 299.098 341.661 305.204 341.442C311.309 341.224 318.543 340.782 321.279 340.459C327.087 339.774 329.046 341.482 323.608 342.489C317.397 343.64 282.947 345.067 242.537 345.848C221.409 346.256 202.908 346.982 201.422 347.462C199.742 348.004 202.71 348.218 209.281 348.029C215.088 347.862 225.737 348.235 232.945 348.856C240.972 349.549 252.405 349.673 262.454 349.177C283.446 348.14 309.136 348.567 309.494 349.958C309.668 350.634 302.662 351.049 289.989 351.111C264.46 351.236 229.545 352.551 222.052 353.67C217.991 354.276 223.162 354.522 238.864 354.471C265.401 354.384 266.283 354.425 266.194 355.63C266.156 356.137 261.477 356.844 255.797 357.203C223.415 359.25 222.217 359.362 225.269 360.073C226.979 360.471 232.317 360.853 237.13 360.921C242.668 361.001 245.615 361.434 245.153 362.102C244.736 362.705 245.62 363.159 247.209 363.159C248.957 363.159 249.797 363.647 249.463 364.468C249.112 365.331 247.535 365.609 244.833 365.284C236.215 364.247 197.9 364.966 196.588 366.19C195.62 367.092 198.86 367.35 209.497 367.216C217.308 367.118 225.803 367.453 228.375 367.959L233.052 368.88L228.238 369.817C225.59 370.331 196.511 370.901 163.619 371.081C130.726 371.261 103.416 371.616 102.929 371.87C102.443 372.123 100.884 371.995 99.464 371.587L99.4587 371.586ZM134.082 363.522C133.389 363.232 131.967 363.215 130.921 363.486C129.876 363.754 130.442 363.99 132.18 364.012C133.919 364.031 134.774 363.811 134.082 363.522ZM108.112 353.042C127.113 352.539 136.853 351.88 138.659 350.977C140.116 350.248 140.932 349.458 140.471 349.223C139.269 348.608 61.9589 350.089 45.8539 351.036C38.4102 351.472 32.5876 352.122 32.9158 352.478C33.4914 353.103 75.3689 354.52 78.6155 354.025C79.4951 353.89 92.7687 353.448 108.112 353.042ZM213.337 353.984C212.348 353.719 210.45 353.71 209.12 353.965C207.789 354.217 208.599 354.433 210.917 354.446C213.237 354.454 214.325 354.249 213.337 353.984ZM214.296 351.548L227.003 350.815L210.148 350.597C186.239 350.286 167.605 350.595 154.721 351.516C146.283 352.119 150.603 352.307 172.589 352.296C188.538 352.291 207.306 351.952 214.296 351.548ZM185.098 347.131C188.041 346.547 193.873 345.756 198.058 345.373C202.243 344.99 205.969 344.395 206.338 344.051C207.208 343.238 191.364 343.895 178.08 345.222C172.361 345.794 163.942 346.261 159.373 346.261C149.77 346.261 145.164 347.368 150.202 348.465C154.387 349.376 178.417 348.46 185.098 347.131ZM142.033 344.693C134.401 342.588 106.424 341.883 108.235 343.841C109.469 345.176 118.444 345.977 132.982 346.05C146.782 346.12 147.056 346.078 142.033 344.693ZM257.715 341.898C258.685 341.353 254.776 341.258 248.242 341.668C232.6 342.652 229.211 343.955 243.901 343.337C250.591 343.056 256.807 342.409 257.715 341.898ZM170.21 340.99C173.951 340.987 176.589 340.603 176.072 340.141C175.556 339.68 165.861 339.555 154.53 339.864C136.476 340.356 135.095 340.508 143.367 341.088C148.56 341.451 155.193 341.58 158.108 341.374C161.023 341.168 166.469 340.995 170.21 340.99ZM117.053 340.456C114.485 339.562 97.638 339.203 97.5759 340.041C97.5378 340.557 102.136 340.943 107.794 340.897C113.452 340.855 117.618 340.652 117.053 340.456ZM196.251 338.909L202.636 338.122L194.731 338.076C190.383 338.048 185.612 338.407 184.128 338.871C181.826 339.592 182.049 339.715 185.648 339.707C187.968 339.705 192.739 339.344 196.251 338.912V338.909ZM203.132 334.972C202.137 334.706 200.477 334.706 199.442 334.972C198.408 335.237 199.224 335.455 201.252 335.455C203.282 335.455 204.128 335.238 203.132 334.972ZM215.864 333.916C214.869 333.65 213.208 333.65 212.174 333.916C211.139 334.18 211.953 334.398 213.983 334.398C216.013 334.398 216.859 334.181 215.864 333.916ZM112.486 309.308C111.832 302.706 108.845 294.512 107.093 294.512C105.701 294.512 102.501 301.905 100.705 309.266C98.9336 316.53 98.776 330.419 100.465 330.419C101.003 330.419 101.336 327.649 101.227 324.087C101.007 316.851 104.168 302.5 106.359 300.784C107.447 299.932 108.205 300.339 109.419 302.432C110.59 304.449 110.994 308.746 110.894 318.08C110.818 325.157 110.864 331.185 110.997 331.475C111.818 333.251 113.046 314.968 112.486 309.308ZM169.647 329.611C170.506 329.072 170.849 326.094 170.773 319.858C170.689 312.934 170.083 309.713 168.122 305.771C166.335 302.176 165.298 301.069 164.627 302.039C164.103 302.798 164.129 304.02 164.685 304.756C165.413 305.722 164.998 307.144 163.191 309.868C160.224 314.343 159.987 315.317 162.306 313.501C164.814 311.537 165.432 313.009 163.273 315.801C160.919 318.844 160.733 320.532 162.943 318.802C165.038 317.161 164.938 318.512 162.709 321.97C160.235 325.808 160.439 326.812 163.227 324.51C165.631 322.526 165.65 322.527 164.682 324.611C162.191 329.968 162.246 330.42 165.389 330.404C167.052 330.398 168.968 330.038 169.647 329.611ZM220.42 326.987C221.219 318.992 225.291 302.693 226.612 302.199C228.205 301.603 228.809 297.68 227.308 297.68C225.601 297.68 224.679 299.855 221.965 310.276C219.209 320.856 217.937 330.419 219.286 330.419C219.721 330.419 220.232 328.875 220.42 326.987ZM229.081 322.234C228.895 311.311 228.25 311.088 227.722 321.764C227.488 326.524 227.725 330.419 228.257 330.419C228.819 330.419 229.162 327.013 229.081 322.234ZM150.789 315.338C150.751 312.887 150.402 315.159 150.019 320.386C149.635 325.614 149.667 327.619 150.092 324.843C150.516 322.066 150.827 317.789 150.789 315.338ZM175.358 321.178C175.235 307.092 172.847 300.054 165.616 292.464L163.163 289.888L160.106 293.256C155.987 297.795 151.804 305.264 151.65 308.357C151.549 310.39 152.043 309.956 154.191 306.129C157.457 300.311 162.445 293.487 163.445 293.469C164.611 293.45 168.561 299.751 171.64 306.542C174.04 311.835 174.377 313.896 173.899 320.359C173.401 327.082 173.689 329.363 175.034 329.363C175.254 329.363 175.397 325.68 175.358 321.178ZM248.32 328.043C248.443 327.317 248.503 326.325 248.454 325.839C248.402 325.354 248.489 316.799 248.642 306.83C249.118 275.747 248.914 273.391 245.736 273.391C243.538 273.391 243.488 273.627 243.472 284.215C243.472 290.169 243.326 295.753 243.169 296.624C242.211 301.904 241.221 318.146 241.543 323.291C241.908 329.111 242.051 329.363 245.011 329.363C246.711 329.363 248.198 328.77 248.32 328.043ZM107.736 312.884C107.412 312.532 106.505 312.496 105.721 312.8C104.855 313.137 105.086 313.388 106.311 313.438C107.419 313.48 108.06 313.234 107.736 312.884ZM229.741 308.607C228.876 306.898 228.721 307.042 228.491 309.773C228.301 312.045 228.567 312.573 229.479 311.723C230.374 310.888 230.448 310.005 229.741 308.607ZM251.207 267.318C250.998 265.721 250.863 260.612 250.907 255.965C251.158 230.249 251.114 229.681 248.411 222.699C246.95 218.923 245.157 213.933 244.428 211.61C242.39 205.12 241.5 204.857 241.037 210.607C240.803 213.482 239.955 219.095 239.147 223.08C237.708 230.182 238.198 245.025 240.469 263.04L241.228 269.058L245.548 269.456C247.923 269.674 250.254 269.936 250.728 270.038C251.201 270.139 251.417 268.916 251.207 267.318ZM244.937 265.734C244.369 261.93 243.468 249.279 243.113 240.124C242.324 219.82 242.335 219.53 243.907 219.53C244.983 219.53 245.434 221.523 245.523 226.659C245.779 241.399 246.411 251.927 247.388 257.644C247.979 261.107 247.978 264.491 247.388 265.829C246.095 268.745 245.384 268.717 244.94 265.734L244.937 265.734ZM159.117 261.51C159.005 257.299 158.973 252.705 159.041 251.301C159.111 249.897 158.853 249.039 158.473 249.394C157.554 250.25 157.673 269.167 158.595 269.167C158.991 269.167 159.226 265.721 159.117 261.51ZM167.133 263.622C167.043 260.573 166.978 254.276 166.986 249.629C166.986 244.982 166.765 234.86 166.481 227.136C166.193 219.411 166.353 212.525 166.828 211.833C168.029 210.096 168.834 214.542 168.51 221.115C168.365 224.019 168.57 228.296 168.963 230.619C169.356 232.943 169.711 240.761 169.753 247.993C169.794 255.225 170.046 262.829 170.31 264.89L170.792 268.638L171.633 264.942C172.095 262.909 172.521 256.493 172.579 250.685C172.956 213.113 171.824 197.924 167.804 186.616L165.936 181.361L163.706 184.518C160.586 188.936 158.748 194.208 160.565 193.529C161.326 193.246 162.596 191.789 163.387 190.294C164.177 188.798 165.073 187.844 165.378 188.174C165.682 188.503 165.1 190.228 164.081 192.006C162.566 194.654 162.492 195.241 163.67 195.241C164.461 195.241 165.437 194.766 165.838 194.185C167.524 191.745 168.283 193.372 166.7 196.033C164.487 199.753 164.417 200.899 166.449 200.139C168.583 199.342 168.436 200.412 166.081 202.82C163.833 205.121 164.682 206.688 167.136 204.766C169.362 203.023 169.225 204.153 166.805 207.475C165.18 209.706 164.846 211.934 164.71 221.431C164.552 232.187 164.71 247.215 165.151 261.411C165.325 267.181 165.121 267.969 163.353 268.417C162.019 268.754 162.341 268.962 164.325 269.044C167.286 269.166 167.291 269.157 167.129 263.622L167.133 263.622ZM163.214 260.454C162.975 259.728 162.692 260.321 162.585 261.774C162.478 263.226 162.672 263.82 163.019 263.094C163.365 262.368 163.455 261.18 163.214 260.454ZM162.771 243.753C162.727 236.049 162.403 229.467 162.057 229.126C161.335 228.416 160.877 248.676 161.48 254.678C162.266 262.514 162.854 257.537 162.771 243.753ZM158.786 233.788C158.99 224.572 159.472 219.53 160.148 219.53C160.723 219.53 161.302 221.075 161.434 222.963C161.565 224.851 161.728 223.306 161.795 219.53C161.972 209.493 161.795 207.467 160.745 206.661C159.457 205.683 159.274 199.465 160.533 199.465C161.083 199.465 161.858 198.752 162.257 197.881C162.757 196.787 162.303 196.297 160.801 196.297C158.669 196.297 158.609 196.637 158.07 211.874C157.314 233.224 157.25 248.045 157.914 248.045C158.219 248.045 158.611 241.629 158.786 233.788ZM136.55 239.86C136.675 237.287 136.58 237.196 135.629 239.068C134.177 241.953 134.118 242.764 135.357 242.764C135.937 242.764 136.473 241.457 136.55 239.86ZM240.424 203.425C240.568 202.409 240.211 201.577 239.631 201.577C239.051 201.577 238.466 203.834 238.33 206.593C238.11 211.071 238.194 211.27 239.123 208.442C239.695 206.699 240.28 204.442 240.424 203.425ZM246.732 197.448C247.985 195.634 246.473 193.351 244.375 193.89C242.73 194.313 242.503 194.815 243.239 196.413C244.228 198.564 245.667 198.989 246.732 197.448ZM240.812 194.713C240.14 192.54 241.459 189.96 243.24 189.96C244.048 189.96 244.77 189.129 244.845 188.112C244.938 186.845 244.154 186.264 242.346 186.264C239.904 186.264 239.682 186.633 239.338 191.28C239.12 194.244 239.442 196.297 240.135 196.297C240.776 196.297 241.081 195.584 240.812 194.713ZM243.17 179.59C243.631 176.919 243.407 176.374 242.052 176.88C241.041 177.258 240.264 178.78 240.125 180.656C239.81 184.907 242.409 183.997 243.17 179.59ZM242.318 170.423C242.049 169.551 241.641 168.838 241.414 168.838C241.185 168.838 240.947 169.551 240.883 170.423C240.815 171.294 241.225 172.007 241.787 172.007C242.348 172.007 242.588 171.294 242.318 170.423ZM252.958 363.426C253.001 362.822 253.811 362.039 254.755 361.687C257.695 360.588 279.502 360.955 279.417 362.102C279.377 362.683 277.038 363.158 274.226 363.158C271.413 363.158 265.459 363.465 260.994 363.841C255.643 364.291 252.904 364.15 252.958 363.426ZM269.997 357.235C268.388 355.495 269.684 354.709 274.165 354.709C276.775 354.709 278.875 355.184 278.832 355.765C278.791 356.346 277.923 356.828 276.907 356.836C275.892 356.841 274.081 357.109 272.883 357.425C271.684 357.741 270.386 357.656 269.997 357.235ZM3.48316 347.18C4.34401 346.716 7.04276 346.022 9.48026 345.636C12.8779 345.099 13.8859 345.274 13.7983 346.39C13.7166 347.44 12.0482 347.869 7.80083 347.934C4.36449 347.98 2.56896 347.672 3.48316 347.18ZM122.16 316.162C121.891 315.291 122.19 314.578 122.816 314.578C123.609 314.578 123.937 311.845 123.881 305.716C123.827 299.75 124.19 296.624 124.992 296.149C125.648 295.762 126.32 293.599 126.487 291.344C126.851 286.433 128.534 285.102 130.894 287.858C132.7 289.968 133.205 292.61 133.985 304.017C134.244 307.793 134.616 312.426 134.814 314.314L135.173 317.746H128.911C124.318 317.746 122.519 317.324 122.16 316.162ZM129.449 301.905C130.29 301.905 130.937 302.46 130.887 303.137C130.835 303.815 131.118 304.068 131.514 303.699C131.909 303.33 131.837 301.707 131.351 300.091C130.867 298.474 130.181 296.202 129.828 295.04C128.966 292.209 126.994 300.19 126.566 308.241L126.258 314.05L127.088 307.977C127.693 303.552 128.335 301.905 129.449 301.905ZM132.203 309.034C131.961 308.308 131.68 308.901 131.573 310.354C131.467 311.806 131.66 312.4 132.007 311.674C132.354 310.948 132.444 309.76 132.203 309.034ZM194.037 313.372C193.258 307.429 193.6 296.733 194.588 296.148C195.172 295.802 196.127 293.386 196.71 290.779C198.51 282.738 200.261 283.595 203.265 293.984C204.272 297.47 205.413 302.203 205.801 304.504C206.189 306.804 206.953 309.278 207.499 310.002C208.932 311.901 207.627 313.207 203.651 313.858C201.737 314.171 198.865 314.75 197.267 315.145C194.801 315.754 194.314 315.487 194.037 313.372ZM197.603 302.841C196.64 297.626 195.568 300.602 196.418 306.129C196.917 309.374 197.324 310.163 197.7 308.617C198.003 307.371 197.962 304.771 197.603 302.841ZM203.149 304.281C202.57 300.656 202.2 299.954 201.814 301.748C201.145 304.853 201.882 309.298 203.061 309.298C203.55 309.298 203.59 307.04 203.149 304.281ZM200.93 297.063C201.104 294.695 200.022 292.399 199.011 292.997C197.338 293.987 197.533 298.385 199.251 298.385C200.121 298.385 200.876 297.79 200.93 297.063ZM93.8167 287.912C94.2329 274.629 94.6565 272.698 96.747 274.549C97.7118 275.404 97.9239 278.356 97.4656 284.547C97.1083 289.378 97.2507 293.614 97.7836 293.96C99.0597 294.788 96.4323 299.793 94.7217 299.793C93.8282 299.793 93.5563 296.229 93.8167 287.912ZM101.497 289.496C99.3527 284.62 101.331 261.774 103.899 261.774C105.331 261.774 105.891 266.08 106.015 278.036C106.127 289.005 103.837 294.819 101.497 289.496ZM109.035 287.469C108.531 286.375 108.278 278.601 108.472 270.195C108.993 247.66 108.9 248.573 110.673 248.573C111.978 248.573 112.215 251.99 112.027 268.11C111.812 286.798 111.035 291.813 109.035 287.469ZM219.218 287.384C218.989 286.948 218.533 282.79 218.208 278.144C217.882 273.497 217.377 267.081 217.085 263.886C216.121 253.331 216.212 247.538 217.367 245.933C217.994 245.062 218.555 244.586 218.613 244.877C218.67 245.167 219.004 249.682 219.354 254.91C219.703 260.137 220.434 268.692 220.978 273.919C221.522 279.147 221.889 284.493 221.794 285.8C221.628 288.084 220.09 289.03 219.218 287.384ZM229.783 285.867C229.603 285.104 229.458 280.916 229.462 276.559C229.462 268.573 230.543 265.118 232.602 266.454C234.021 267.374 232.768 285.682 231.221 286.597C230.611 286.959 229.964 286.628 229.783 285.867ZM224.811 281.116C224.634 278.9 224.238 274.711 223.928 271.807C222.848 261.683 222.879 254.382 224.002 254.382C224.597 254.382 225.227 256.164 225.401 258.342C225.576 260.52 226.191 266.104 226.769 270.751C228.1 281.446 228.032 284.166 226.422 284.709C225.633 284.975 225.007 283.582 224.811 281.116ZM183.214 275.285C183.026 273.372 182.91 266.936 182.955 260.982C183.031 251.546 183.252 250.157 184.695 250.157C185.606 250.157 186.539 250.513 186.77 250.949C187.002 251.386 186.922 257.642 186.593 264.854C186.179 273.967 185.626 278.088 184.776 278.365C184.102 278.585 183.403 277.205 183.214 275.285ZM143.753 275.682C142.306 274.744 141.923 250.065 143.334 248.718C145.412 246.733 146.452 249.546 145.983 255.884C145.714 259.546 145.776 265.031 146.127 268.073C146.794 273.849 145.806 277.014 143.753 275.682ZM79.1849 269.634C78.9264 268.796 78.0778 268.111 77.3005 268.111C76.2228 268.111 75.8484 263.033 75.7234 246.737C75.6336 234.982 75.1447 225.222 74.6374 225.048C73.3225 224.598 77.2561 185.98 80.1587 170.84C80.8367 167.305 80.687 165.541 79.6122 164.378C78.0737 162.714 78.8336 158.278 80.6574 158.278C81.2453 158.278 81.4716 156.892 81.1943 154.985C80.8279 152.465 81.0444 151.802 82.1099 152.163C82.8771 152.422 83.5857 153.786 83.685 155.192C83.783 156.599 84.3494 158.065 84.9408 158.451C85.5687 158.86 85.6998 162.022 85.2565 166.045C84.839 169.836 84.9337 173.888 85.4688 175.048C86.337 176.934 88.961 194.585 89.43 201.691C89.5279 203.206 89.9463 206.682 90.3559 209.417C90.7655 212.151 90.7996 214.822 90.4349 215.353C90.0678 215.884 90.2281 217.321 90.7934 218.547C91.3576 219.772 91.5931 226.791 91.3177 234.146C91.0428 241.5 90.9353 250.844 91.0755 254.91C91.3068 261.389 91.4977 261.976 92.631 259.662C95.6863 253.422 106.053 225.99 106.999 221.643C108.133 216.427 109.536 214.25 111.76 214.25C113.661 214.25 113.306 218.908 111.282 220.491C110.426 221.162 109.398 223.002 109 224.581C108.601 226.16 105.044 235.869 101.097 246.156C97.1491 256.444 94.1265 265.086 94.3799 265.36C94.6357 265.634 93.8948 266.774 92.739 267.893C89.9743 270.568 79.8746 271.866 79.1849 269.634ZM82.5069 252.005C83.1209 235.03 82.935 225.102 81.9425 221.838C80.7387 217.879 81.4416 213.194 83.2398 213.194C84.1097 213.194 84.8233 213.076 84.8249 212.931C84.8249 212.785 84.3427 210.528 83.7491 207.914L82.6704 203.162L81.1212 207.386C78.2814 215.128 77.4264 222.281 78.8248 226.594C79.6745 229.214 79.9621 236.523 79.6494 247.517C79.1573 264.806 79.2439 265.999 80.9923 265.999C81.6104 265.999 82.1972 260.579 82.5069 252.005ZM88.4107 259.924C88.31 256.584 88.4678 246.165 88.7612 236.772C89.2481 221.234 89.1192 219.647 87.3362 219.171C85.4874 218.678 85.3759 219.168 85.3674 227.802C85.3674 236.207 85.676 241.292 87.0229 254.382C87.2924 256.995 87.1508 260.678 86.711 262.566C86.1593 264.928 86.3284 265.998 87.2518 265.998C88.2569 265.998 88.5487 264.471 88.4107 259.924ZM87.8595 207.989C87.5982 206.205 86.9516 204.746 86.4176 204.746C85.1999 204.746 85.1991 204.782 86.3196 208.866C87.4578 213.019 88.5037 212.424 87.8595 207.989ZM85.9203 198.347C85.9611 197.8 84.2384 197.353 82.0926 197.353C78.1163 197.353 78.1396 198.85 82.1278 199.705C84.5286 200.22 85.816 199.762 85.9203 198.347ZM85.3375 191.974C85.3865 191.338 84.4925 190.57 83.3551 190.266C80.9639 189.628 80.8081 186.056 83.1481 185.549C84.2096 185.32 84.4614 184.725 83.9162 183.734C82.2656 180.735 79.6493 183.335 79.2786 188.343C78.9373 192.956 79.0392 193.129 82.088 193.129C83.8279 193.129 85.2907 192.609 85.3375 191.974ZM82.2783 171.809C82.0059 170.966 81.7357 171.217 81.5939 172.447C81.466 173.56 81.6701 174.184 82.0451 173.833C82.4212 173.483 82.5252 172.571 82.2783 171.809ZM96.6154 267.544C96.6454 267.147 98.6776 261.528 101.133 255.057C103.588 248.587 106.02 241.556 106.536 239.434C107.052 237.312 108.193 235.307 109.071 234.979C111.121 234.213 111.087 234.443 107.694 244.414C106.125 249.025 103.78 256.124 102.483 260.19C100.854 265.293 99.5721 267.688 98.343 267.924C97.3635 268.112 96.5863 267.944 96.6154 267.544ZM232.685 262.339C230.274 259.731 217.392 229.1 217.902 227.187C218.155 226.238 220.742 230.899 223.651 237.545C226.561 244.192 230.379 252.624 232.136 256.284C235.33 262.935 235.556 265.446 232.685 262.339ZM183.559 245.141C183.524 244.705 183.589 243.992 183.676 243.557C183.777 243.121 183.108 242.765 182.19 242.765C178.989 242.765 181.609 240.122 185.149 239.779C188.166 239.487 188.504 239.67 187.335 240.965C186.574 241.808 186.191 243.27 186.483 244.215C186.838 245.362 186.45 245.933 185.32 245.933C184.388 245.933 183.596 245.577 183.559 245.141ZM142.741 242.702C142.831 241.506 143.355 240.822 143.908 241.181C144.461 241.539 144.863 242.518 144.802 243.355C144.742 244.192 144.214 244.877 143.634 244.877C143.054 244.877 142.653 243.898 142.741 242.702ZM194.522 241.181C194.587 240.309 195.35 239.596 196.22 239.596C197.09 239.596 197.75 240.309 197.685 241.181C197.617 242.052 196.856 242.765 195.986 242.765C195.116 242.765 194.457 242.052 194.522 241.181ZM182.136 237.571C182.174 237.038 181.972 235.849 181.691 234.93C181.302 233.674 181.849 233.26 183.89 233.26C185.871 233.26 186.41 233.689 185.882 234.844C185.417 235.861 185.784 236.428 186.914 236.428C187.88 236.428 188.343 236.904 187.941 237.484C187.026 238.809 182.038 238.883 182.136 237.571ZM140.829 236.646C140.685 236.236 140.663 234.712 140.783 233.26C140.943 231.334 141.648 230.528 143.397 230.282C144.964 230.062 145.807 230.519 145.83 231.602C145.86 232.514 145.87 233.8 145.881 234.459C145.911 235.799 141.242 237.816 140.829 236.646ZM195.234 235.108C196.047 233.11 199.358 232.826 199.214 234.767C199.141 235.747 198.19 236.429 196.894 236.429C195.606 236.429 194.919 235.882 195.234 235.108ZM130.333 232.196C129.633 230.907 132.62 229.63 134.097 230.588C134.677 230.965 135.118 231.719 135.078 232.266C134.98 233.598 131.063 233.54 130.333 232.196ZM194.547 229.3C194.817 228.283 195.738 227.451 196.592 227.451C197.446 227.451 198.243 228.283 198.364 229.3C198.516 230.596 197.907 231.148 196.319 231.148C194.731 231.148 194.202 230.596 194.547 229.3ZM114.127 226.839C112.157 225.638 111.92 222.699 113.794 222.699C115.292 222.699 115.5 203.348 114.006 202.809C112.81 202.377 112.975 199.429 114.3 197.556C115.622 195.685 121.147 197.063 120.244 199.038C119.886 199.821 119.917 201.782 120.315 203.396C120.711 205.009 120.889 211.201 120.712 217.155C120.401 227.661 120.325 227.979 118.143 227.947C116.906 227.926 115.098 227.431 114.127 226.839ZM126.562 225.743C126.331 224.803 126.725 222.752 127.435 221.186C129.584 216.45 129.406 213.194 126.999 213.194C124.763 213.194 124.24 209.659 126.297 208.442C126.904 208.083 127.556 205.679 127.747 203.099C128.065 198.8 128.314 198.409 130.73 198.409C132.18 198.409 133.38 199.003 133.397 199.729C133.427 200.455 133.34 203.445 133.234 206.373C133.125 209.301 133.282 212.152 133.583 212.709C133.882 213.266 134.227 216.849 134.351 220.67L134.573 227.619L130.776 227.535C128.256 227.478 126.84 226.877 126.562 225.743ZM194.983 223.544C194.339 222.847 194 219.639 194.23 216.415C194.462 213.192 194.067 208.433 193.359 205.84C192.19 201.568 192.233 201.013 193.814 199.916C194.773 199.249 195.6 198.123 195.653 197.413C195.903 194.029 198.13 197.612 199.895 204.239C201.41 209.928 201.548 211.851 200.499 212.666C199.586 213.376 199.249 215.283 199.471 218.475C199.653 221.088 199.569 223.583 199.288 224.019C198.512 225.214 196.302 224.971 194.983 223.544ZM206.412 218.16C206.894 216.118 206.665 213.015 205.855 210.657C205.095 208.444 204.846 205.493 205.3 204.093C205.754 202.694 205.616 200.874 204.992 200.047C203.471 198.031 205.819 194.009 208.012 194.876C210.493 195.858 211.389 198.953 211.739 207.745C211.919 212.275 212.293 217.255 212.568 218.812C213.04 221.484 212.858 221.643 209.329 221.643C205.689 221.643 205.612 221.551 206.412 218.16ZM140.116 188.112C140.146 183.03 139.999 176.852 139.792 174.383C139.502 170.925 139.752 169.896 140.874 169.9C142.152 169.903 143.353 173.902 147.292 191.28C147.521 192.297 147.248 193.129 146.678 193.129C146.109 193.129 145.017 190.515 144.25 187.32C143.483 184.126 142.623 181.512 142.337 181.512C142.053 181.512 141.888 185.076 141.973 189.432C142.068 194.4 141.742 197.353 141.096 197.353C140.528 197.353 140.088 193.195 140.116 188.112ZM111.692 182.619C112.497 173.129 113.111 169.895 114.107 169.895C114.881 169.895 115.345 171.197 115.212 172.994C115.087 174.699 115.403 177.432 115.919 179.067C116.792 181.841 119.03 192.647 118.952 193.708C118.922 193.97 118.538 194.185 118.074 194.185C117.07 194.185 115.183 188.023 115.302 185.134C115.373 183.452 115.174 183.546 114.167 185.674C113.497 187.092 112.98 189.659 113.021 191.378C113.059 193.097 112.535 194.693 111.853 194.925C110.96 195.227 110.917 191.78 111.692 182.619ZM126.684 184.095C126.763 177.964 126.463 172.143 126.014 171.158C125.567 170.173 125.71 167.466 126.331 165.142C127.425 161.06 127.458 161.033 127.33 164.35C127.256 166.238 127.567 167.783 128.016 167.783C128.466 167.783 128.869 165.763 128.912 163.294C128.974 159.62 129.118 159.284 129.706 161.446C130.101 162.898 130.237 167.252 130.008 171.121C129.648 177.203 130.933 185.501 133.313 192.481C133.805 193.92 133.61 194.342 132.615 194.001C131.856 193.742 130.767 191.894 130.194 189.897L129.153 186.264L128.741 190.752C127.932 199.55 126.543 195.051 126.684 184.095ZM183.05 191.28C182.383 182.33 183.221 172.535 184.651 172.535C186.222 172.535 189.165 182.639 189.804 190.224C190.25 195.524 188.776 197.292 188.043 192.337C187.806 190.739 187.112 187.294 186.499 184.68L185.387 179.928L185.267 187.584C185.142 195.554 183.564 198.183 183.05 191.28ZM192.274 186.528C192.739 180.574 193.487 177.171 194.64 175.78C195.569 174.661 196.655 174.099 197.055 174.532C197.71 175.239 198.78 181.217 199.96 190.752C200.72 196.888 198.37 194.421 197.446 188.112C196.014 178.343 195.047 178.014 194.342 187.056C193.972 191.787 193.259 195.241 192.65 195.241C192.029 195.241 191.874 191.655 192.274 186.528ZM210.337 194.185C210.049 193.313 209.121 189.749 208.278 186.264L206.746 179.928L205.452 187.056C204.741 190.977 203.714 194.185 203.171 194.185C201.826 194.185 204.704 170.529 206.104 170.073C206.703 169.878 207.133 170.513 207.061 171.486C206.988 172.458 208.078 177.477 209.481 182.64C210.883 187.803 211.768 192.869 211.447 193.898C210.964 195.444 210.771 195.494 210.337 194.185ZM155.195 180.192C156.35 175.248 157.621 173.508 159.289 174.59C160.998 175.698 160.245 179.9 157.888 182.406C154.723 185.774 154.026 185.2 155.195 180.192ZM170.848 179.932C169.407 178.142 169.523 174.119 171.017 174.119C172.635 174.119 175.992 178.146 175.86 179.928C175.713 181.921 172.452 181.925 170.848 179.932ZM210.285 171.674C209.786 170.039 209.427 168.02 209.489 167.186C209.554 166.353 208.889 165.671 208.019 165.671C207.149 165.671 206.443 164.839 206.45 163.823C206.45 162.806 206.065 163.29 205.579 164.899L204.696 167.823L202.039 165.163C200.578 163.7 198.954 162.502 198.429 162.502C197.529 162.502 196.715 153.895 197.181 149.301C197.572 145.437 198.939 151.334 198.888 156.666C198.844 161.25 200.164 163.428 200.665 159.598C200.829 158.366 201.123 158.63 201.556 160.39C202.146 162.79 202.233 162.694 202.51 159.334C202.678 157.301 202.51 154.687 202.116 153.526C201.65 152.113 201.999 150.801 203.174 149.565C204.624 148.04 204.672 147.708 203.452 147.667C201.754 147.61 194.751 138.358 194.898 136.369C195.078 133.959 196.601 134.991 198.311 138.679C200.009 142.342 202.736 144.45 202.9 142.226C202.949 141.566 202.682 137.962 202.309 134.217C201.776 128.879 201.927 127.232 203.006 126.594C203.799 126.124 204.846 122.593 205.475 118.267C206.076 114.135 206.979 110.754 207.48 110.754C207.982 110.754 208.326 111.665 208.243 112.779C208.162 113.892 208.442 114.961 208.867 115.155C209.291 115.348 210.568 121.21 211.703 128.18C212.838 135.15 213.856 141.328 213.966 141.909C214.077 142.49 213.373 144.188 212.406 145.682C210.828 148.117 210.785 149.585 211.991 159.83C212.848 167.12 212.948 171.875 212.266 172.955C211.373 174.366 211.043 174.153 210.285 171.674ZM209.828 158.08C209.556 157.238 209.286 157.488 209.144 158.718C209.014 159.831 209.22 160.455 209.596 160.104C209.972 159.754 210.076 158.842 209.828 158.08ZM206.109 151.69C205.951 150.376 205.677 151.202 205.493 153.526C205.311 155.849 205.436 156.924 205.775 155.914C206.113 154.905 206.266 153.004 206.109 151.69ZM208.579 146.463C208.307 145.621 208.037 145.871 207.895 147.101C207.767 148.215 207.971 148.838 208.346 148.487C208.722 148.136 208.826 147.226 208.579 146.463ZM206.469 137.873C205.208 136.509 204.922 138.436 205.792 142.437L206.366 145.077L206.944 142.044C207.261 140.376 207.047 138.499 206.469 137.873ZM211.191 137.269C210.924 133.066 210.561 132.224 209.434 133.21C207.924 134.531 208.081 138.212 209.646 138.212C210.159 138.212 210.484 139.48 210.369 141.029C210.255 142.577 210.467 143.558 210.844 143.208C211.219 142.858 211.376 140.186 211.191 137.269ZM206.65 128.911C205.19 127.332 205.043 127.522 204.76 131.356C204.453 135.492 204.46 135.501 206.343 133.069C208.087 130.814 208.11 130.491 206.65 128.911ZM161.21 171.247C160.072 170.964 158.439 170.068 157.582 169.255C156.725 168.443 155.638 168.136 155.166 168.572C154.181 169.484 155.433 163.77 158.23 154.582C159.291 151.096 160.95 145.253 161.918 141.597C163.278 136.46 164.058 135.022 165.346 135.269C166.341 135.46 167.047 136.865 167.098 138.749C167.141 140.487 167.693 143.334 168.317 145.077C172.564 156.932 175.059 165.76 174.351 166.42C173.895 166.846 173.132 166.494 172.656 165.64C171.907 164.296 171.771 164.309 171.652 165.735C171.513 167.371 165.688 172.119 164.106 171.884C163.652 171.817 162.349 171.53 161.21 171.247ZM165.775 154.054C168.354 154.054 169.058 152.51 167.638 149.967C166.984 148.795 166.598 148.886 165.611 150.445C164.581 152.074 164.15 152.154 162.813 150.97C161.462 149.773 161.21 149.857 161.073 151.548C160.983 152.636 160.569 154.714 160.151 156.166L159.39 158.806L161.329 156.43C162.395 155.123 164.396 154.054 165.775 154.054ZM165.411 143.798C165.15 142.954 164.954 142.037 164.975 141.76C165.005 141.483 164.516 141.549 163.909 141.909C162.024 143.025 162.283 146.679 164.197 145.964C165.126 145.616 165.672 144.642 165.411 143.798ZM181.469 168.575C181.15 167.325 179.963 138.704 180.135 136.39C180.322 133.856 174.128 132.804 160.933 133.129L147.495 133.461L147.167 147.982C146.944 157.762 146.482 162.503 145.747 162.503C144.437 162.503 144.126 156.781 144.497 139.533C144.758 127.457 144.633 126.596 142.633 126.596C140.571 126.596 140.486 127.017 140.336 137.949C140.249 144.193 140.268 152.017 140.382 155.336C140.491 158.655 140.175 162.219 139.675 163.257C138.83 165.013 138.718 164.998 138.057 163.03C137.665 161.869 137.54 157.354 137.779 152.998C138.015 148.641 137.98 140.087 137.697 133.988C137.415 127.889 137.278 122.779 137.391 122.632C137.505 122.485 139.763 122.663 142.41 123.032C146.584 123.611 147.28 124.085 147.645 126.6C147.999 129.03 148.737 129.591 152.193 130.06C160.589 131.2 161.97 129.38 163.244 115.507C163.617 111.441 164.43 106.529 165.05 104.591C166.264 100.8 168.886 99.046 170.072 101.231C171.588 104.021 171.753 114.64 170.455 125.803C170.12 128.691 169.906 128.939 169.109 127.369C168.588 126.341 168.305 124.678 168.481 123.672C168.658 122.666 168.851 120.431 168.912 118.704C169.018 115.646 168.98 115.621 167.323 117.763C165.989 119.488 165.793 120.81 166.416 123.899C167.095 127.263 166.915 128.049 165.182 129.295C163.377 130.592 163.792 130.758 168.95 130.801C172.138 130.828 175.732 131.119 176.938 131.45C178.623 131.912 179.314 131.481 179.93 129.587C180.63 127.431 181.44 127.093 186.415 126.88L192.101 126.638L191.644 135.64C191.391 140.592 191.494 149.938 191.867 156.41C192.241 162.882 192.534 168.326 192.521 168.508C192.521 168.69 191.823 168.839 190.999 168.839C189.92 168.839 189.459 166.847 189.351 161.711C189.267 157.79 189.015 151.102 188.786 146.849C188.56 142.596 188.501 137.332 188.664 135.151C188.946 131.348 188.83 131.205 185.764 131.65L182.571 132.115L182.729 138.068C182.816 141.342 183.137 146.16 183.446 148.774C184.57 158.302 184.348 169.895 183.043 169.895C182.365 169.895 181.658 169.301 181.473 168.575L181.469 168.575ZM120.159 163.155C120.349 160.541 120.02 158.085 119.422 157.697C118.773 157.275 118.359 157.782 118.396 158.955C118.522 162.908 117.836 165.67 116.731 165.67C116.038 165.67 115.857 163.629 116.266 160.415C116.633 157.524 116.63 154.831 116.266 154.43C115.895 154.029 115.411 156.157 115.188 159.158C114.965 162.159 114.37 164.614 113.865 164.614C112.584 164.614 112.472 154.023 113.723 151.262C114.287 150.017 114.654 144.389 114.538 138.754C114.351 129.43 115.989 117.496 118.28 111.546C119.274 108.964 120.85 109.242 121.271 112.074C123.057 124.093 123.348 129.431 122.639 137.156C122.186 142.094 122.001 146.554 122.228 147.068C123.019 148.857 121.738 166.768 120.779 167.336C120.247 167.65 119.971 165.769 120.164 163.155L120.159 163.155ZM119.859 149.62C119.449 148.037 117.587 148.491 117.078 150.298C116.759 151.427 117.16 151.731 118.368 151.28C119.331 150.919 120.002 150.173 119.859 149.62ZM119.202 127.85C117.749 126.278 117.611 126.321 117.458 128.393C117.365 129.631 117.869 130.85 118.575 131.102C120.563 131.81 120.96 129.751 119.202 127.85ZM119.973 122.899C120.041 122.028 119.616 121.315 119.036 121.315C118.456 121.315 117.929 122.028 117.864 122.899C117.796 123.77 118.221 124.483 118.802 124.483C119.382 124.483 119.909 123.77 119.973 122.899ZM132.124 159.598C132.62 153.885 133.031 152.211 133.484 154.054C134.431 157.908 133.699 167.783 132.468 167.783C131.846 167.783 131.705 164.421 132.124 159.598ZM135.293 158.102C135.516 155.101 135.857 152.844 136.052 153.085C136.874 154.106 136.659 163.558 135.815 163.558C135.306 163.558 135.071 161.103 135.293 158.102ZM123.206 160.806C121.829 159.316 122.854 155.557 125.048 154.054C126.27 153.216 127.294 152.208 127.323 151.814C127.38 151.059 135.226 143.493 135.953 143.493C137.14 143.493 135.868 146.322 133.301 149.395C131.711 151.299 130.368 153.245 130.317 153.719C130.14 155.362 123.912 161.57 123.206 160.806ZM193.989 152.186C193.092 142.998 193.113 142.437 194.371 142.437C195.522 142.437 196.176 152.202 195.328 156.725C194.917 158.912 194.512 157.537 193.989 152.186ZM187.081 123.761C186.828 123.287 186.6 119.097 186.575 114.45C186.499 100.556 186.154 96.9386 184.967 97.6413C184.357 98.0031 181.779 97.9829 179.239 97.5999C174.981 96.9532 174.638 96.6562 174.85 93.795C174.975 92.0879 174.635 90.6913 174.088 90.6913C171.719 90.6913 171.681 93.3489 173.981 98.246C175.34 101.14 176.125 103.811 175.727 104.182C174.833 105.016 170.499 99.6287 169.823 96.8432C169.157 94.1026 166.631 96.0515 165.397 100.257C164.298 104.006 163.069 104.877 161.609 102.943C160.758 101.815 161.121 100.81 163.224 98.4662C167.148 94.0923 167.958 91.8552 165.377 92.5182C164.239 92.8109 163.26 93.7073 163.2 94.5108C163.14 95.3144 162.444 95.9718 161.651 95.9718C159.526 95.9718 160.131 74.9952 162.315 72.9584C163.166 72.1656 164.461 70.5317 165.194 69.3272C166.332 67.4562 166.258 67.2374 164.685 67.8254C163.672 68.2033 161.888 68.5136 160.721 68.5136C159.512 68.5136 158.306 69.3904 157.917 70.5527C157.004 73.2752 154.15 74.316 154.332 71.8599C154.408 70.8326 153.922 69.3898 153.251 68.6537C152.274 67.5811 152.448 67.0236 154.128 65.8461C155.82 64.6602 156.154 63.566 155.864 60.1725C155.641 57.5817 155.962 55.6968 156.698 55.2611C157.355 54.8729 157.697 53.447 157.458 52.0938C157.219 50.7407 157.521 49.3387 158.13 48.9785C159.653 48.0773 159.779 44.6361 158.386 42.0329C157.426 40.2394 157.528 39.6564 158.984 38.6149C159.949 37.9242 161.497 35.0187 162.423 32.1582C164.19 26.7003 164.097 18.4213 162.279 19.4963C161.075 20.2091 154.168 17.0875 154.258 15.8711C154.384 14.1793 157.162 12.5411 159.907 12.5411C162.698 12.5411 162.786 12.3814 163.071 6.77282C163.234 3.60024 163.756 0.63704 164.238 0.188109C165.587 -1.06916 168.775 4.27116 168.567 7.43833C168.466 8.98823 168.621 11.0284 168.912 11.9723C169.4 13.5494 169.61 13.5461 171.512 11.9308C174.152 9.68839 176.815 10.632 175.863 13.4724C175.441 14.7318 173.896 15.8611 172.048 16.2612C168.243 17.0846 168.024 18.6241 170.275 28.7052C171.226 32.9632 172.842 36.9168 174.07 37.9911C175.911 39.6021 176.001 40.1647 174.719 42.0429C173.408 43.964 173.483 44.2238 175.348 44.2238C176.763 44.2238 177.415 44.9249 177.31 46.3359C177.223 47.4977 176.647 48.4482 176.028 48.4482C174.476 48.4482 175.561 52.4283 177.763 54.8105C178.852 55.9878 179.261 57.594 178.813 58.9306C178.241 60.6378 178.568 61.1211 180.311 61.1211C182.846 61.1211 183.06 63.7883 180.748 66.5619C179.016 68.6398 173.597 68.0103 173.764 65.7504C173.824 64.9469 174.347 64.2895 174.927 64.2895C176.237 64.2895 176.512 61.1113 175.377 59.0769C174.703 57.8694 174.196 57.8233 172.885 58.8493C171.979 59.5585 170.841 60.0249 170.355 59.886C169.869 59.7476 167.003 59.9782 163.984 60.3988C159.133 61.0759 158.543 61.4164 158.902 63.3338C159.26 65.2499 159.88 65.4296 164.219 64.8756C166.92 64.5309 169.589 64.6141 170.15 65.0606C172.285 66.7604 175.898 76.9341 176.23 82.182C176.418 85.1934 176.861 87.3923 177.209 87.0684C178.418 85.941 178.774 79.5965 177.67 78.8534C176.879 78.3209 176.984 77.7109 178.034 76.7412C179.241 75.6255 179.674 75.7135 180.414 77.2261C181.609 79.6679 182.912 79.5658 183.784 76.9625C184.499 74.8305 187.307 74.0739 188.226 75.7657C189.007 77.2047 189.185 85.5174 188.86 105.338C188.578 122.436 188.241 125.934 187.083 123.765L187.081 123.761ZM182.032 83.5869C181.248 82.0421 181.026 82.3785 180.769 85.4961C180.597 87.5775 180.798 89.6428 181.187 90.0857C182.346 91.3619 183.086 85.6656 182.032 83.5869ZM170.29 80.9197C170.676 71.5317 169.494 68.3154 166.516 70.6474C164.394 72.3095 164.249 74.4546 166.206 75.2291C167.057 75.5656 167.65 77.1463 167.536 78.7744C167.194 83.6657 167.993 89.6324 168.991 89.6324C169.508 89.6324 170.094 85.7117 170.29 80.9197ZM174.057 83.6594C173.823 81.5983 173.36 80.166 173.027 80.4766C172.693 80.7873 172.624 83.0931 172.872 85.6009C173.122 88.1086 173.583 89.5409 173.902 88.7836C174.221 88.0265 174.291 85.7206 174.057 83.6594ZM186.172 83.296C186.259 82.1343 185.854 81.1839 185.273 81.1839C184.694 81.1839 184.148 82.1343 184.063 83.296C183.975 84.4577 184.381 85.4081 184.961 85.4081C185.541 85.4081 186.086 84.4577 186.172 83.296ZM168.877 55.5055C169.304 55.108 170.524 54.7818 171.587 54.7818C173.562 54.7818 174.633 51.2072 172.979 50.1344C171.681 49.2924 160.815 52.978 160.122 54.4956C159.784 55.2338 159.715 56.5057 159.967 57.3221C160.347 58.552 161.083 58.5856 164.263 57.5175C166.374 56.8088 168.45 55.9035 168.877 55.5055ZM169.09 46.9828C172.333 46.2244 173.244 43.4814 170.601 42.4356C169.679 42.0706 168.117 42.338 167.13 43.0273C166.143 43.7175 164.484 44.5614 163.444 44.9027C161.399 45.5735 161.138 46.2813 161.958 48.9323C162.418 50.4193 162.732 50.4498 164.313 49.1602C165.317 48.3418 167.467 47.3624 169.09 46.9828ZM166.966 40.0561C169.377 38.1593 170.633 34.7161 168.914 34.7161C166.973 34.7161 163.151 38.1737 163.012 40.0564C162.824 42.5997 163.734 42.5997 166.966 40.0561ZM167.757 28.1156C167.515 27.3896 167.235 27.9832 167.128 29.4357C167.022 30.8879 167.215 31.4819 167.562 30.7558C167.908 30.0297 167.996 28.8417 167.757 28.1156ZM141.001 118.939C140.775 117.632 140.583 112.761 140.571 108.114C140.571 103.467 140.451 97.5268 140.325 94.9129C139.864 84.9776 140.211 82.8416 142.348 82.4246C143.454 82.2085 144.718 82.6726 145.155 83.4561C145.733 84.4894 146.004 84.2282 146.143 82.504C146.29 80.6841 146.946 80.1278 148.945 80.1278C151.337 80.1278 151.448 80.3641 150.277 82.9444C149.325 85.0444 149.329 85.9848 150.307 86.6407C151.349 87.349 151.301 87.7054 150.057 88.4699C148.017 89.7263 149.037 92.9566 151.217 92.1419C152.134 91.7992 152.846 92.0452 152.798 92.6878C152.752 93.3308 153.203 93.8568 153.803 93.8568C154.539 93.8568 154.575 93.1624 153.909 91.7229C153.369 90.5492 153.285 89.0703 153.724 88.4366C154.162 87.8027 153.923 86.8956 153.19 86.4206C152.115 85.7238 152.316 84.7286 154.226 81.2703C155.529 78.9128 156.951 76.9783 157.386 76.9716C158.139 76.9627 158.364 80.2846 157.92 84.8802C157.806 86.0419 158.195 87.3147 158.781 87.7088C159.519 88.2055 159.383 89.3002 158.337 91.2779C157.071 93.6706 157.08 94.4355 158.394 96.0201C159.844 97.7686 159.792 98.0667 157.698 100.019C155.339 102.22 154.215 101.988 154.411 99.3417C154.539 97.6006 151.755 94.998 149.708 94.9466C148.805 94.9196 148.523 95.7691 148.838 97.5533C149.126 99.1799 148.838 100.193 148.136 100.193C147.493 100.193 147.05 99.079 147.15 97.7169C147.251 96.3548 146.444 94.3757 145.356 93.3189C143.381 91.4004 143.378 91.4201 142.913 106.356C142.471 120.57 141.916 124.233 141.006 118.939H141.001ZM145.638 89.3685C145.681 88.6425 145.312 87.3355 144.814 86.4643C144.109 85.2299 143.859 85.5213 143.679 87.7844C143.553 89.3817 143.923 90.6886 144.502 90.6886C145.082 90.6886 145.593 90.0944 145.638 89.3685Z" fill="#1B4A92"/>
</g>
<defs>
<clipPath id="clip0_157_271">
<rect width="355" height="372" fill="white"/>
</clipPath>
</defs>
</svg>
