<svg width="686" height="347" viewBox="0 0 686 347" fill="none" xmlns="http://www.w3.org/2000/svg">
<g clip-path="url(#clip0_163_309)">
<g filter="url(#filter0_f_163_309)">
<ellipse cx="301" cy="167" rx="221" ry="77" fill="#434944" fill-opacity="0.7"/>
</g>
<path d="M209.716 153.586C208.312 153.586 207.033 152.841 205.888 151.358C205.26 149.726 204.947 148.204 204.947 146.807C204.947 146.266 204.994 145.701 205.104 145.112C205.229 144.532 205.331 143.967 205.417 143.418C205.959 141.244 206.649 139.134 207.488 137.078C208.343 135.007 209.285 132.928 210.312 130.833C211.709 127.804 213.301 124.87 215.082 122.045C216.878 119.205 218.824 116.459 220.918 113.823C221.373 113.117 221.86 112.434 222.362 111.783C222.864 111.116 223.507 110.394 224.307 109.618C225.225 108.386 226.229 107.201 227.319 106.071C228.402 104.941 229.453 103.874 230.457 102.87C231.791 101.473 233.313 99.9043 235.007 98.1625C236.717 96.405 238.208 94.828 239.463 93.4235C238.663 93.8001 237.925 94.1061 237.235 94.3337C235.517 94.9613 233.823 95.6518 232.152 96.405C230.473 97.1425 228.826 97.8486 227.194 98.5391C226.645 98.7745 226.064 99.0412 225.437 99.3551C224.825 99.6689 224.291 99.9827 223.836 100.297C223.287 100.61 222.707 100.909 222.079 101.175C221.452 101.45 220.832 101.74 220.228 102.054C218.737 102.831 217.231 103.576 215.709 104.282C214.203 104.973 212.674 105.742 211.128 106.573L202.374 111.501C201.369 112.05 200.208 112.685 198.891 113.415C197.573 114.152 196.443 114.788 195.502 115.329C193.556 116.585 191.681 117.777 189.885 118.907C188.104 120.021 186.245 121.159 184.3 122.328C180.573 124.65 177.059 127.028 173.756 129.452C170.446 131.861 167.01 134.309 163.433 136.796C160.711 138.742 158.201 140.53 155.902 142.162C153.619 143.794 151.588 145.003 149.815 145.772C149.187 146.085 148.528 146.242 147.838 146.242C147.124 146.242 146.496 146.085 145.955 145.772C145.406 145.144 145.139 144.328 145.139 143.324C145.139 142.468 145.335 141.535 145.735 140.53C146.112 139.197 146.622 137.926 147.273 136.733C147.94 135.525 148.63 134.301 149.344 133.061C149.972 131.892 150.693 130.762 151.509 129.672C152.325 128.589 153.078 127.538 153.768 126.533C154.851 124.823 156.059 123.207 157.377 121.7C158.695 120.178 159.981 118.64 161.236 117.087C162.005 116.145 162.758 115.22 163.496 114.294C164.225 113.352 164.986 112.497 165.786 111.72C166.79 110.551 167.795 109.351 168.799 108.111C169.818 106.856 170.838 105.687 171.842 104.596C174.643 101.819 177.404 99.0255 180.126 96.2167C182.841 93.4157 185.633 90.6147 188.504 87.8059C190.363 85.7973 192.223 83.8201 194.09 81.8743C195.972 79.9286 197.918 78.0691 199.926 76.288C202.413 73.95 204.86 71.659 207.269 69.415C209.669 67.1554 212.117 64.9428 214.611 62.7617C216.721 60.965 218.847 59.1761 220.981 57.3951C223.115 55.5984 225.186 53.8095 227.194 52.0285C228.763 50.6319 230.567 49.1333 232.622 47.5406C234.693 45.9557 236.498 44.4964 238.051 43.1783C236.796 43.8687 235.776 44.261 235.007 44.3395C232.136 45.0299 229.422 45.4928 226.849 45.7203C224.291 45.9557 221.42 46.0342 218.22 45.9714C216.439 45.893 214.627 45.7988 212.791 45.689C210.971 45.5634 209.167 45.3437 207.394 45.0299C206.139 44.8887 204.515 44.6141 202.53 44.2139C200.561 43.8216 198.922 43.5078 197.604 43.2724C196.051 42.9586 194.56 42.6134 193.117 42.2368C191.674 41.8445 190.175 41.4835 188.63 41.1697C186.449 40.7146 184.284 40.1811 182.134 39.5691C180.001 38.9415 177.812 38.4707 175.576 38.1569C173.945 37.9293 172.321 37.6547 170.713 37.3409C169.12 37.0271 167.512 36.7132 165.88 36.3994C163.935 36.0071 161.942 35.6933 159.919 35.4579C157.91 35.2303 155.933 34.9557 153.988 34.6419C152.984 34.5007 152.09 34.3516 151.321 34.2025C150.544 34.0378 149.501 33.9122 148.183 33.8259C146.693 33.5121 145.139 33.261 143.508 33.0727C141.876 32.8844 140.127 32.7903 138.267 32.7903C137.012 32.7118 135.859 32.7118 134.816 32.7903C133.765 32.8766 132.698 32.9158 131.615 32.9158C130.925 32.8373 130.148 32.7903 129.293 32.7903C128.43 32.7903 127.575 32.7903 126.72 32.7903C126.03 32.7903 125.324 32.7903 124.618 32.7903C123.927 32.7903 123.269 32.8687 122.641 33.0099C122.327 33.0963 122.029 33.1355 121.762 33.1355C121.488 33.1355 121.198 33.1355 120.884 33.1355C118.389 33.057 115.965 33.2767 113.604 33.7945C111.235 34.2967 108.811 34.7361 106.324 35.1127C104.834 35.4265 103.343 35.7639 101.837 36.1169C100.331 36.4543 98.7933 36.8231 97.2244 37.2154C95.8202 37.5292 94.3533 38 92.8314 38.6276C91.3253 39.2396 89.9132 39.7417 88.5953 40.134C86.4145 40.7617 84.3592 41.6012 82.4138 42.6447C80.484 43.6961 78.5072 44.7161 76.4832 45.7203C73.5964 47.0385 70.8508 48.5606 68.2621 50.271C65.6655 51.9892 63.1239 53.8173 60.6371 55.7631C54.9655 60.4314 50.0312 65.7117 45.8265 71.6119C45.5127 72.1611 45.1519 72.6789 44.7596 73.1811C44.3831 73.6832 44.0379 74.1775 43.7241 74.6561C43.3241 75.2053 42.9475 75.7467 42.5945 76.288C42.2572 76.8373 41.8885 77.41 41.4963 78.0142C41.1982 78.5634 40.9471 79.1047 40.7432 79.6461C40.5549 80.1953 40.3431 80.7759 40.1156 81.4036C39.8018 81.3251 39.5822 81.2467 39.4567 81.1839C39.3468 81.1055 39.2135 81.0584 39.0488 81.0584C38.8997 80.8936 38.8291 80.6661 38.8291 80.3679C38.8291 79.9756 38.9389 79.6618 39.1743 79.4264C39.6293 78.2574 40.2568 77.0569 41.057 75.8173C42.3749 73.8715 43.7085 71.9493 45.0734 70.0427C46.4305 68.144 47.8818 66.3316 49.435 64.6133C49.5762 64.4721 49.7253 64.323 49.8743 64.1739C50.0391 64.0092 50.1646 63.8836 50.2509 63.7973C51.1059 62.0869 52.1963 60.6747 53.5142 59.5605C54.8321 58.4307 56.15 57.2382 57.4679 55.9828C58.4093 55.1276 59.382 54.3509 60.3861 53.6604C61.4059 52.9543 62.3394 52.1775 63.1788 51.338C63.6573 50.8594 64.0103 50.5848 64.2456 50.522C66.1911 49.6668 68.0268 48.6547 69.7683 47.4778C71.5255 46.3088 73.3297 45.2182 75.1967 44.2139C77.911 42.8958 80.5938 41.6405 83.2296 40.4479C85.8811 39.2396 88.6032 38.2039 91.388 37.3409C94.1022 36.3994 96.8008 35.5442 99.4837 34.7674C102.182 33.9985 104.928 33.4964 107.736 33.261C108.277 33.261 108.803 33.1904 109.305 33.0413C109.807 32.8766 110.325 32.751 110.874 32.6647C113.675 32.2881 116.467 31.9272 119.252 31.5663C122.053 31.2132 124.814 31.1191 127.536 31.2838C129.081 31.3466 130.65 31.3702 132.243 31.3466C133.851 31.3074 135.475 31.2838 137.106 31.2838C138.424 31.2838 139.781 31.3309 141.186 31.4094C142.582 31.4721 143.986 31.6212 145.39 31.8488C147.399 32.1626 149.47 32.4293 151.603 32.6333C153.737 32.8216 155.816 33.1041 157.848 33.4807C160.17 33.9436 162.531 34.3281 164.939 34.6419C167.363 34.9557 169.74 35.3873 172.062 35.9286C174.713 36.4778 177.341 37.0584 179.938 37.6861C182.527 38.3138 185.155 38.9336 187.814 39.5378C190.991 40.4008 194.168 41.1226 197.353 41.7032C200.554 42.2917 203.739 42.8958 206.923 43.5235C208.869 43.8373 210.846 44.0727 212.854 44.2139C214.878 44.363 216.87 44.4336 218.816 44.4336C219.82 44.4336 220.824 44.4258 221.828 44.4022C222.848 44.363 223.868 44.3002 224.872 44.2139C228.135 43.9864 231.336 43.4842 234.474 42.7075C237.627 41.9386 240.687 40.8088 243.636 39.3181C244.491 38.9258 245.378 38.6119 246.303 38.3765C247.245 38.149 248.1 37.9607 248.876 37.8116C249.504 37.9607 250.139 38.1726 250.791 38.4393C251.457 38.7139 251.834 39.1219 251.92 39.6633C251.834 39.8124 251.795 39.9693 251.795 40.134C251.795 40.2831 251.716 40.44 251.575 40.6048C251.261 40.9814 250.924 41.3502 250.571 41.7032C250.234 42.0641 249.912 42.3937 249.598 42.7075C247.88 44.4022 246.068 46.0185 244.17 47.5406C242.263 49.047 240.381 50.5848 238.522 52.154C237.266 53.0798 236.051 54.0605 234.882 55.1041C233.729 56.1554 232.497 57.2225 231.179 58.3052C229.147 60.1098 227.068 61.93 224.935 63.7659C222.801 65.5862 220.714 67.3908 218.69 69.1639L215.427 72.2082C207.975 78.7987 200.695 85.5776 193.588 92.5448C186.473 99.4963 179.342 106.432 172.188 113.352C170.156 115.447 168.124 117.581 166.1 119.754C164.092 121.936 162.154 124.148 160.295 126.408C159.056 128.04 157.769 129.672 156.436 131.304C155.118 132.936 153.878 134.615 152.733 136.325C152.184 137.251 151.65 138.161 151.133 139.055C150.631 139.958 150.144 140.868 149.689 141.786C149.603 142.037 149.501 142.257 149.375 142.445C149.266 142.633 149.218 142.814 149.218 142.978C149.218 143.355 149.532 143.661 150.16 143.888C151.242 143.661 152.466 143.065 153.831 142.1C155.188 141.119 156.326 140.279 157.251 139.589C159.197 138.192 161.142 136.717 163.088 135.164C165.033 133.595 166.979 132.151 168.924 130.833C171.097 129.374 173.325 127.883 175.608 126.376C177.906 124.854 180.189 123.348 182.448 121.857C185.625 119.77 188.536 117.903 191.171 116.271C193.823 114.639 196.827 112.85 200.177 110.904C202.64 109.508 205.119 108.142 207.614 106.824C210.101 105.506 212.548 104.22 214.956 102.964C216.98 102.046 218.949 101.105 220.855 100.14C222.754 99.1589 224.637 98.2409 226.504 97.3779C228.677 96.2951 230.873 95.3222 233.093 94.4592C235.305 93.604 237.502 92.7174 239.683 91.7916C240.538 91.3993 241.259 91.0384 241.848 90.7245C242.428 90.4107 243.111 90.1125 243.887 89.8144C244.742 89.1083 245.582 88.3864 246.398 87.6489C247.213 86.8957 248.123 86.2524 249.127 85.7031C249.504 85.5619 249.865 85.3736 250.226 85.1382C250.579 84.9107 250.947 84.7538 251.324 84.6675C251.802 84.4399 252.273 84.3223 252.736 84.3223C253.364 84.3223 253.944 84.5576 254.493 85.0127C255.348 85.4756 255.78 86.221 255.78 87.2409C255.78 87.4763 255.693 87.8215 255.529 88.2766C255.215 88.8258 254.783 89.3672 254.242 89.9086C253.693 90.4578 253.12 90.9678 252.516 91.4464C249.48 94.3964 246.445 97.3465 243.417 100.297C240.381 103.247 237.306 106.197 234.191 109.147C232.246 111.093 230.395 113.101 228.637 115.172C226.896 117.228 225.186 119.268 223.491 121.292C222.236 122.759 221.059 124.211 219.977 125.655C218.886 127.098 217.796 128.597 216.714 130.142C215.223 132.237 213.866 134.411 212.634 136.67C211.395 138.93 210.234 141.307 209.151 143.794C208.9 144.406 208.681 145.16 208.492 146.054C208.304 146.948 208.21 147.827 208.21 148.69C208.21 149.232 208.241 149.757 208.304 150.259C208.383 150.762 208.539 151.201 208.775 151.577C209.63 151.829 210.375 151.954 211.003 151.954C212.171 151.954 213.372 151.523 214.611 150.667C216.321 149.804 217.977 148.886 219.569 147.906C221.154 146.941 222.691 145.85 224.182 144.61C226.268 142.814 228.386 140.986 230.52 139.118C232.654 137.259 234.803 135.352 236.984 133.406C238.553 132.324 239.996 131.209 241.314 130.08C242.632 128.95 243.989 127.804 245.393 126.627C247.253 124.996 249.159 123.364 251.104 121.732C253.05 120.1 254.995 118.468 256.941 116.836C259.027 115.063 261.185 113.376 263.405 111.783C265.617 110.198 267.774 108.425 269.869 106.479C271.037 105.396 272.3 104.369 273.665 103.404C275.023 102.423 276.317 101.426 277.556 100.422C278.874 99.4021 280.231 98.3351 281.636 97.221C283.032 96.0911 284.475 94.9456 285.966 93.7687C287.197 92.9135 288.358 92.0034 289.449 91.0384C290.531 90.0576 291.708 89.0612 292.963 88.0569C294.281 86.8879 295.646 85.7581 297.074 84.6675C298.517 83.5847 299.976 82.4942 301.467 81.4036C303.726 79.6932 306.33 77.6532 309.28 75.2838C312.23 72.9221 314.865 70.9214 317.187 69.2895C318.756 68.1204 320.357 66.9357 321.988 65.7431C323.62 64.5348 325.322 63.4521 327.103 62.5106C329.362 60.502 331.81 58.7759 334.445 57.3323C337.097 55.8886 339.631 54.2802 342.039 52.4992C343.043 51.7303 344.087 51.0477 345.177 50.4593C346.259 49.8787 347.389 49.3138 348.566 48.7645C350.339 47.823 352.049 46.8109 353.68 45.7203C355.312 44.6376 357.054 43.7432 358.921 43.0527C359.085 42.9743 359.266 42.8801 359.454 42.7703C359.642 42.6447 359.776 42.5427 359.862 42.4564C362.121 41.2874 364.388 40.1027 366.671 38.9101C368.97 37.7018 371.323 36.5877 373.731 35.5834C375.049 35.042 376.383 34.4222 377.748 33.7318C379.105 33.0256 380.454 32.398 381.796 31.8487C384.51 30.5306 387.24 29.393 389.985 28.4279C392.747 27.4472 395.524 26.4508 398.332 25.4465C401.046 24.4422 403.808 23.4928 406.616 22.5906C409.416 21.6961 412.178 20.8958 414.9 20.2054C417.073 19.664 419.026 19.1384 420.768 18.6362C422.525 18.1184 424.8 17.8202 427.608 17.7575C428.926 17.2789 430.275 17.0356 431.656 17.0356C433.052 17.0356 434.425 16.8787 435.767 16.5649C436.143 16.4237 436.52 16.3295 436.896 16.2824C437.288 16.2432 437.649 16.2197 437.963 16.2197C439.281 16.2197 440.363 16.1883 441.226 16.1255C442.081 16.0471 443.015 16 444.019 16C444.411 16 444.804 16 445.18 16C445.572 16 446.004 16.0471 446.467 16.1255C448.891 16.2746 451.283 16.5257 453.652 16.8787C456.013 17.2161 458.367 17.781 460.712 18.5735C463.662 19.5777 466.361 20.9822 468.808 22.7789C471.256 24.5599 473.405 26.694 475.272 29.1811C476.127 30.3345 476.825 31.9272 477.374 33.9515C477.916 35.9836 478.19 38.047 478.19 40.134C478.19 40.8245 478.143 41.5306 478.065 42.2368C477.978 42.9272 477.861 43.5862 477.72 44.2139C476.943 48.027 475.97 51.1183 474.801 53.5035C473.625 55.873 472.479 57.7717 471.35 59.2153C470.236 60.6433 469.216 61.9379 468.275 63.1069C468.126 63.1697 467.898 63.201 467.584 63.201C467.098 63.201 466.863 63.0598 466.863 62.7617C466.863 62.4478 467.098 62.0242 467.584 61.4749C469.13 59.6155 470.542 57.7324 471.82 55.8259C473.115 53.9272 474.182 51.6832 475.021 49.1098C475.876 46.5363 476.433 43.3901 476.684 39.6633C476.512 37.8901 476.339 36.2974 476.151 34.893C475.962 33.4964 475.46 32.0684 474.644 30.6248C473.829 29.1811 472.401 27.5335 470.377 25.6662C468.886 24.5834 467.427 23.5556 465.984 22.5906C464.556 21.6098 462.799 20.7311 460.712 19.9543C459.222 19.5777 457.669 19.1619 456.037 18.699C454.405 18.2204 452.813 18.0242 451.267 18.1027C449.463 17.7104 447.596 17.5064 445.651 17.5064C445.274 17.5064 444.843 17.5064 444.364 17.5064C443.901 17.5064 443.486 17.5535 443.109 17.6319C442.709 17.7182 441.925 17.7418 440.756 17.6947C439.603 17.6555 438.669 17.6319 437.963 17.6319C436.724 17.8673 435.617 18.0242 434.637 18.1027C433.672 18.189 432.644 18.2596 431.562 18.3224C428.126 18.6362 425.38 19.0913 423.309 19.6719C421.254 20.2603 418.995 20.8252 416.532 21.3666C412.868 22.2296 409.252 23.2418 405.675 24.4108C402.097 25.5642 398.56 26.843 395.069 28.2396C390.087 30.1854 385.13 32.2724 380.195 34.485C375.253 36.7054 370.382 39.0199 365.573 41.4208L360.207 44.2139C359.517 44.5278 358.834 44.8416 358.168 45.1554C357.516 45.4693 356.881 45.9322 356.254 46.5363C356.018 46.7717 355.728 46.9678 355.375 47.1326C355.014 47.2817 354.685 47.4386 354.371 47.6034C352.676 48.4664 350.99 49.3922 349.319 50.3965C347.64 51.4008 345.993 52.4521 344.361 53.5349C343.812 53.8487 343.294 54.1861 342.792 54.5391C342.29 54.8765 341.765 55.1668 341.223 55.4179C339.505 56.1946 337.881 57.144 336.36 58.2738C334.853 59.3879 333.324 60.455 331.778 61.4749C331.465 61.7103 331.151 61.9143 330.837 62.1026C330.523 62.2909 330.209 62.5106 329.896 62.7617C326.57 64.9428 323.385 67.1162 320.357 69.2895C317.321 71.4706 314.214 73.7617 311.037 76.1625C309.633 77.2531 308.19 78.3201 306.707 79.3636C305.216 80.415 303.82 81.482 302.502 82.5648C301.412 83.3415 300.306 84.2203 299.176 85.201C298.062 86.1661 296.925 87.1154 295.756 88.0569C295.356 88.3708 294.885 88.7474 294.344 89.1867C293.795 89.6104 293.253 90.0027 292.712 90.3793C291.018 91.6974 289.308 93.0626 287.597 94.4592C285.879 95.8636 284.13 97.221 282.357 98.5391C281.102 99.5433 279.863 100.516 278.655 101.458C277.462 102.399 276.278 103.294 275.109 104.125C273.869 105.153 272.606 106.189 271.312 107.232C270.033 108.284 268.739 109.272 267.421 110.214C266.244 111.218 265.044 112.215 263.813 113.195C262.573 114.16 261.334 115.102 260.079 116.02L253.771 121.292C251.991 122.673 250.241 124.109 248.531 125.592C246.837 127.083 245.127 128.558 243.417 130.017C242.161 131.021 240.922 132.018 239.714 132.998C238.522 133.963 237.337 134.96 236.168 135.98C235.478 136.443 234.897 136.906 234.442 137.361C231.869 139.542 229.296 141.715 226.723 143.888C224.166 146.07 221.42 148.078 218.471 149.946C217.467 150.573 216.431 151.138 215.364 151.64C214.313 152.142 213.207 152.629 212.038 153.115C211.199 153.429 210.422 153.586 209.716 153.586ZM332.759 90.7245C332.586 90.7245 332.422 90.7167 332.257 90.6931C332.108 90.6539 331.959 90.6304 331.818 90.6304C330.413 90.089 329.527 89.0298 329.15 87.4606C329.15 86.6054 329.401 85.8758 329.903 85.2638C330.406 84.6361 330.97 84.0947 331.598 83.6318C331.974 83.2395 332.39 82.9414 332.853 82.7531C333.332 82.5491 333.841 82.4392 334.391 82.4392C334.618 82.4392 335.05 82.5255 335.677 82.6903C336.76 83.7809 337.309 85.0284 337.309 86.425C337.309 86.6603 337.285 86.9114 337.246 87.1782C337.199 87.4528 337.136 87.7431 337.058 88.0569C335.968 89.8379 334.532 90.7245 332.759 90.7245ZM293.002 144.61C291.371 144.61 289.629 144.14 287.762 143.198C286.821 142.343 286.123 141.527 285.66 140.75C285.205 139.981 284.97 138.93 284.97 137.612C284.97 137.219 284.97 136.859 284.97 136.545C284.97 136.231 285.001 135.886 285.064 135.509C285.377 134.191 285.966 132.677 286.821 130.958C287.684 129.248 288.5 127.844 289.268 126.753C289.818 125.898 290.516 124.854 291.371 123.615C292.234 122.359 293.434 120.845 294.979 119.064L296.485 117.432C297.576 116.2 298.384 115.251 298.933 114.576C299.474 113.909 300.141 113.156 300.941 112.317C302.322 111.147 303.397 110.237 304.173 109.586C304.965 108.919 305.687 108.354 306.338 107.891C307.005 107.413 307.844 106.824 308.849 106.134C309.617 105.593 310.527 105.114 311.578 104.69C312.645 104.251 313.681 104.11 314.685 104.251C315.626 104.651 316.097 105.396 316.097 106.479C316.097 106.628 316.097 106.817 316.097 107.044C316.097 107.279 316.05 107.476 315.971 107.64C315.571 108.417 315.007 109.1 314.277 109.68C313.54 110.269 312.865 110.873 312.237 111.501C311.461 112.191 310.676 112.874 309.884 113.54C309.107 114.192 308.299 114.827 307.468 115.455C305.664 116.859 304.001 118.303 302.479 119.786C300.973 121.253 299.404 122.877 297.772 124.65C297.544 124.823 297.129 125.262 296.517 125.968C295.889 126.659 295.419 127.192 295.105 127.569C294.25 128.511 293.52 129.452 292.908 130.394C292.281 131.319 291.543 132.433 290.68 133.752C290.288 134.301 289.857 134.944 289.394 135.697C288.939 136.435 288.625 137.141 288.453 137.831C288.225 138.294 288.107 138.836 288.107 139.463C288.107 139.926 288.217 140.421 288.421 140.938C288.609 141.441 288.978 141.88 289.519 142.257C290.131 142.57 290.767 142.814 291.434 142.978C292.085 143.127 292.767 143.198 293.473 143.198C295.105 143.198 296.423 142.971 297.427 142.508C298.823 141.88 300.392 141.268 302.134 140.656C303.891 140.028 305.193 139.361 306.056 138.647C306.911 138.271 307.664 137.91 308.315 137.549C308.982 137.196 309.672 136.827 310.386 136.451C311.618 135.744 312.755 134.976 313.806 134.16C314.85 133.344 316.003 132.622 317.258 131.994C318.952 130.99 320.592 129.946 322.184 128.856C323.793 127.773 325.33 126.682 326.797 125.592C328.366 124.509 330.013 123.324 331.755 122.045C333.512 120.751 335.246 119.488 336.964 118.248C337.34 117.934 337.717 117.62 338.093 117.307C338.486 116.993 338.846 116.883 339.16 116.961C339.325 117.048 339.411 117.205 339.411 117.432C339.411 117.518 339.349 117.644 339.223 117.809C339.098 117.958 339.003 118.107 338.941 118.248L338.344 118.844C334.995 121.481 331.575 124.07 328.084 126.596C324.585 129.107 320.898 131.453 317.007 133.626C314.826 135.117 312.52 136.537 310.072 137.894C307.625 139.259 305.036 140.554 302.322 141.786C301.773 142.037 301.255 142.304 300.753 142.57C300.251 142.845 299.686 143.057 299.059 143.198C298.133 143.512 297.176 143.826 296.172 144.14C295.152 144.453 294.093 144.61 293.002 144.61ZM361.651 145.646C360.96 145.646 360.254 145.615 359.548 145.552C358.858 145.473 358.199 145.348 357.571 145.175C356.395 144.634 355.595 143.951 355.155 143.135C354.732 142.319 354.528 141.456 354.528 140.53C354.528 139.361 354.732 138.192 355.155 137.015C355.595 135.846 355.971 134.991 356.285 134.442C357.054 132.983 357.673 131.884 358.136 131.147C358.615 130.394 359.242 129.515 360.019 128.511C360.788 127.428 361.588 126.361 362.404 125.309C363.22 124.266 364.012 123.199 364.788 122.108C365.016 121.794 365.204 121.481 365.353 121.167C365.518 120.853 365.714 120.5 365.949 120.1C366.655 118.954 367.016 118.06 367.016 117.432C367.016 116.349 366.153 115.8 364.443 115.8C363.039 115.8 361.345 116.114 359.36 116.742C357.391 117.354 355.751 117.926 354.434 118.468C352.488 119.409 350.496 120.468 348.472 121.637C346.463 122.791 345.185 123.568 344.643 123.96C343.153 124.901 341.513 125.961 339.717 127.13C337.944 128.283 336.391 129.405 335.073 130.488C334.304 130.951 333.3 131.727 332.061 132.81C330.806 133.901 329.292 135.344 327.511 137.141C326.656 137.831 326.028 138.396 325.628 138.836C325.236 139.259 324.765 139.667 324.216 140.06C324.075 140.122 323.863 140.201 323.589 140.279C323.322 140.366 323.11 140.452 322.961 140.53C321.878 140.279 321.133 139.612 320.733 138.522C320.733 138.381 320.717 138.192 320.67 137.957C320.631 137.729 320.654 137.573 320.733 137.486C321.133 136.003 321.635 134.717 322.239 133.626C324.106 131.304 325.777 129.374 327.26 127.82C328.123 126.965 329.001 126.031 329.896 125.027C330.774 124.007 331.888 122.791 333.222 121.386L336.83 117.652C337.442 117.048 338.015 116.451 338.556 115.863C339.097 115.282 339.639 114.717 340.188 114.168C341.521 112.772 342.871 111.406 344.236 110.088C345.593 108.77 346.777 107.601 347.781 106.573C348.95 105.491 350.088 104.486 351.202 103.56C352.331 102.619 353.524 101.725 354.779 100.861C355.783 100.171 356.473 99.7552 356.85 99.6061C357.242 99.4414 358.073 99.3551 359.329 99.3551C360.647 99.9043 361.305 100.72 361.305 101.803C361.682 102.666 361.305 103.545 360.176 104.439C359.062 105.318 357.885 106.432 356.63 107.766C356.018 108.315 355.344 108.88 354.59 109.461C353.853 110.026 353.178 110.622 352.551 111.249L348.817 114.764C348.503 115 348.252 115.251 348.064 115.518C347.876 115.792 347.624 116.083 347.311 116.396C345.365 118.264 343.435 120.162 341.537 122.108C339.631 124.038 337.756 126.015 335.889 128.04L334.948 128.981C334.885 129.044 334.508 129.374 333.818 129.954C333.112 130.543 332.673 130.919 332.5 131.084C336.626 128.197 340.078 125.804 342.886 123.897C345.687 121.998 347.122 121.041 347.185 121.041C349.444 119.645 351.774 118.397 354.183 117.307C356.583 116.224 359.117 115.376 361.776 114.764C362.38 114.6 363.11 114.466 363.973 114.356C364.828 114.231 365.573 114.168 366.2 114.168C367.369 114.168 368.319 114.309 369.056 114.576C369.785 114.851 370.507 115.533 371.221 116.616C371.511 117.016 371.66 117.715 371.66 118.719C371.66 119.723 371.511 120.586 371.221 121.292C370.507 123.073 369.785 124.548 369.056 125.717C368.319 126.871 367.409 128.228 366.326 129.797C365.298 131.115 364.333 132.269 363.439 133.249C362.561 134.214 361.76 135.125 361.054 135.98C360.505 136.757 360.027 137.533 359.611 138.302C359.187 139.079 358.897 140.013 358.732 141.095C358.732 141.409 358.779 141.88 358.889 142.508C359.015 143.12 359.431 143.661 360.144 144.14C360.521 144.202 360.882 144.257 361.243 144.296C361.596 144.344 361.964 144.359 362.341 144.359C363.361 144.359 364.38 144.265 365.385 144.077C366.389 143.889 367.275 143.669 368.052 143.418C369.621 142.963 371.111 142.429 372.539 141.817C373.982 141.19 375.441 140.523 376.932 139.809C378.791 138.891 380.838 137.816 383.082 136.576C385.341 135.321 387.255 134.183 388.824 133.155C391.539 131.523 393.696 130.095 395.288 128.856C396.873 127.624 398.873 126.149 401.282 124.431C402.537 123.426 403.839 122.446 405.204 121.481C406.561 120.5 407.902 119.496 409.22 118.468C409.824 118.013 410.326 117.667 410.726 117.432C411.119 117.205 411.464 117.048 411.762 116.961H411.887C412.656 116.961 412.774 117.212 412.233 117.715C411.683 118.217 411.009 118.742 410.193 119.284C409.377 119.833 408.891 120.186 408.75 120.351C407.259 121.441 405.933 122.453 404.765 123.395C403.611 124.321 402.137 125.435 400.34 126.753C397.077 129.162 393.908 131.421 390.833 133.532C387.773 135.627 384.416 137.565 380.76 139.338C378.815 140.366 376.775 141.331 374.641 142.225C372.507 143.104 370.389 143.904 368.303 144.61C365.957 145.301 363.737 145.646 361.651 145.646ZM434.135 145.646C433.445 145.646 432.739 145.615 432.033 145.552C431.342 145.473 430.683 145.348 430.056 145.175C428.879 144.634 428.079 143.951 427.639 143.135C427.216 142.319 427.012 141.456 427.012 140.53C427.012 139.361 427.216 138.192 427.639 137.015C428.079 135.846 428.455 134.991 428.769 134.442C429.538 132.983 430.158 131.884 430.62 131.147C431.099 130.394 431.727 129.515 432.503 128.511C433.272 127.428 434.072 126.361 434.888 125.309C435.704 124.266 436.496 123.199 437.273 122.108C437.5 121.794 437.688 121.481 437.837 121.167C438.002 120.853 438.198 120.5 438.434 120.1C439.14 118.954 439.501 118.06 439.501 117.432C439.501 116.349 438.638 115.8 436.928 115.8C435.523 115.8 433.829 116.114 431.844 116.742C429.875 117.354 428.236 117.926 426.918 118.468C424.972 119.409 422.98 120.468 420.956 121.637C418.948 122.791 417.669 123.568 417.128 123.96C415.637 124.901 413.998 125.961 412.201 127.13C410.428 128.283 408.875 129.405 407.557 130.488C406.789 130.951 405.784 131.727 404.545 132.81C403.29 133.901 401.776 135.344 399.995 137.141C399.14 137.831 398.512 138.396 398.112 138.836C397.72 139.259 397.249 139.667 396.7 140.06C396.559 140.122 396.347 140.201 396.073 140.279C395.806 140.366 395.594 140.452 395.445 140.53C394.363 140.279 393.617 139.612 393.217 138.522C393.217 138.381 393.201 138.192 393.155 137.957C393.116 137.729 393.139 137.573 393.217 137.486C393.617 136.003 394.119 134.717 394.724 133.626C396.591 131.304 398.261 129.374 399.744 127.82C400.607 126.965 401.486 126.031 402.38 125.027C403.258 124.007 404.372 122.791 405.706 121.386L409.314 117.652C409.926 117.048 410.499 116.451 411.04 115.863C411.582 115.282 412.123 114.717 412.672 114.168C414.006 112.772 415.355 111.406 416.72 110.088C418.077 108.77 419.261 107.601 420.266 106.573C421.434 105.491 422.572 104.486 423.686 103.56C424.815 102.619 426.008 101.725 427.263 100.861C428.267 100.171 428.957 99.7552 429.334 99.6061C429.726 99.4414 430.558 99.3551 431.813 99.3551C433.131 99.9043 433.79 100.72 433.79 101.803C434.166 102.666 433.79 103.545 432.66 104.439C431.546 105.318 430.369 106.432 429.114 107.766C428.502 108.315 427.828 108.88 427.075 109.461C426.337 110.026 425.663 110.622 425.035 111.249L421.301 114.764C420.987 115 420.736 115.251 420.548 115.518C420.36 115.792 420.109 116.083 419.795 116.396C417.849 118.264 415.92 120.162 414.021 122.108C412.115 124.038 410.24 126.015 408.373 128.04L407.432 128.981C407.369 129.044 406.992 129.374 406.302 129.954C405.596 130.543 405.157 130.919 404.984 131.084C409.111 128.197 412.562 125.804 415.371 123.897C418.171 121.998 419.607 121.041 419.669 121.041C421.929 119.645 424.258 118.397 426.667 117.307C429.067 116.224 431.601 115.376 434.26 114.764C434.864 114.6 435.594 114.466 436.457 114.356C437.312 114.231 438.057 114.168 438.685 114.168C439.854 114.168 440.803 114.309 441.54 114.576C442.27 114.851 442.991 115.533 443.705 116.616C443.996 117.016 444.145 117.715 444.145 118.719C444.145 119.723 443.996 120.586 443.705 121.292C442.991 123.073 442.27 124.548 441.54 125.717C440.803 126.871 439.893 128.228 438.81 129.797C437.783 131.115 436.818 132.269 435.923 133.249C435.045 134.214 434.245 135.125 433.539 135.98C432.99 136.757 432.511 137.533 432.095 138.302C431.672 139.079 431.381 140.013 431.217 141.095C431.217 141.409 431.264 141.88 431.374 142.508C431.499 143.12 431.915 143.661 432.629 144.14C433.005 144.202 433.366 144.257 433.727 144.296C434.08 144.344 434.449 144.359 434.825 144.359C435.845 144.359 436.865 144.265 437.869 144.077C438.873 143.889 439.759 143.669 440.536 143.418C442.105 142.963 443.595 142.429 445.023 141.817C446.467 141.19 447.926 140.523 449.416 139.809C451.275 138.891 453.323 137.816 455.566 136.576C457.826 135.321 459.74 134.183 461.309 133.155C464.023 131.523 466.18 130.095 467.773 128.856C469.357 127.624 471.357 126.149 473.766 124.431C475.021 123.426 476.323 122.446 477.688 121.481C479.045 120.5 480.387 119.496 481.705 118.468C482.309 118.013 482.811 117.667 483.211 117.432C483.603 117.205 483.948 117.048 484.246 116.961H484.372C485.14 116.961 485.258 117.212 484.717 117.715C484.168 118.217 483.493 118.742 482.677 119.284C481.861 119.833 481.375 120.186 481.234 120.351C479.743 121.441 478.418 122.453 477.249 123.395C476.096 124.321 474.621 125.435 472.824 126.753C469.561 129.162 466.392 131.421 463.317 133.532C460.257 135.627 456.9 137.565 453.244 139.338C451.299 140.366 449.259 141.331 447.125 142.225C444.992 143.104 442.874 143.904 440.787 144.61C438.441 145.301 436.221 145.646 434.135 145.646ZM404.396 194.259C402.764 194.259 401.313 194.079 400.034 193.726C398.74 193.388 397.704 192.831 396.928 192.062C396.387 191.435 395.924 190.744 395.547 189.991C395.155 189.254 394.912 188.343 394.825 187.261C394.825 185.315 395.783 183.275 397.681 181.141C399.587 179.007 402.003 176.943 404.929 174.958C407.84 172.989 410.923 171.2 414.186 169.592C417.449 167.999 420.399 166.744 423.035 165.826C427.702 164.257 431.978 162.946 435.868 161.903C439.759 160.851 443.517 159.973 447.133 159.267C450.734 158.576 454.499 158.011 458.43 157.572C462.344 157.148 466.674 156.756 471.42 156.379C471.82 156.065 472.252 155.752 472.707 155.438C473.17 155.124 473.601 154.849 473.993 154.622C475.084 153.845 476.174 153.068 477.257 152.299C478.347 151.523 479.437 150.738 480.52 149.946C483.015 148.165 485.454 146.415 487.863 144.673C490.263 142.916 492.671 141.111 495.08 139.244C495.935 138.616 497.276 137.573 499.096 136.105C500.932 134.622 503.018 132.967 505.34 131.147C507.678 129.311 509.992 127.459 512.275 125.592C514.574 123.732 516.637 122.077 518.457 120.633C520.277 119.19 521.579 118.17 522.379 117.558C522.442 117.479 522.175 117.636 521.594 118.028C521.03 118.405 520.41 118.797 519.743 119.19C519.068 119.566 518.621 119.841 518.394 120.006C516.135 121.473 513.797 122.814 511.396 124.023C508.988 125.215 506.58 126.486 504.179 127.82C503.317 128.197 502.501 128.628 501.732 129.107C500.955 129.57 500.139 130.033 499.284 130.488C496.398 132.041 493.589 133.422 490.875 134.63C488.153 135.846 485.321 137 482.371 138.083C481.14 138.545 479.791 138.836 478.324 138.961C476.841 139.071 475.586 139.165 474.558 139.244C473.099 139.165 472.095 138.695 471.546 137.831C471.005 137.063 470.73 136.168 470.73 135.164V134.568C470.73 133.94 470.824 133.399 471.012 132.936C471.201 132.481 471.452 131.931 471.765 131.304C472.628 129.53 473.601 127.82 474.684 126.188C475.774 124.556 477.061 123.042 478.543 121.637C480.324 119.841 482.144 118.115 484.003 116.459C485.862 114.788 487.768 113.164 489.714 111.595C490.569 110.904 491.448 110.175 492.35 109.398C493.244 108.605 494.154 107.86 495.08 107.17C495.935 106.542 496.813 105.977 497.715 105.475C498.61 104.973 499.637 104.682 500.791 104.596C501.418 104.682 501.897 104.808 502.234 104.973C502.587 105.122 502.924 105.381 503.238 105.757C503.466 106.244 503.583 106.754 503.583 107.295C503.583 107.531 503.56 107.758 503.521 107.986C503.497 108.221 503.442 108.448 503.364 108.676C503.277 108.762 503.215 108.888 503.176 109.053C503.152 109.202 503.058 109.351 502.893 109.492C501.889 110.747 500.736 111.877 499.441 112.881C498.163 113.886 496.868 114.906 495.551 115.926C493.056 118.021 490.506 120.06 487.894 122.045C485.298 124.015 482.764 126.055 480.269 128.165C479.187 129.091 478.136 130.08 477.131 131.147C476.127 132.198 475.272 133.336 474.558 134.568C474.268 135.117 474.119 135.815 474.119 136.67C474.119 137.07 474.354 137.361 474.809 137.549C475.272 137.737 475.774 137.831 476.316 137.831C476.778 137.831 477.131 137.792 477.382 137.706C478.159 137.565 478.998 137.439 479.893 137.329C480.771 137.204 481.603 136.984 482.372 136.67C484.772 135.815 487.408 134.685 490.279 133.281C493.166 131.884 495.935 130.448 498.594 128.981C500.453 128.126 502.203 127.271 503.834 126.408C505.466 125.553 506.941 124.737 508.259 123.96C512.377 122.1 516.229 120.037 519.806 117.777C522.756 116.004 524.866 114.725 526.145 113.948C527.439 113.156 528.357 112.591 528.906 112.254C529.447 111.901 530.067 111.493 530.757 111.03C532.154 110.088 533.534 109.162 534.899 108.237C536.256 107.295 537.362 106.746 538.225 106.573C538.68 106.573 539.072 106.73 539.386 107.044C539.7 107.358 540.014 107.719 540.328 108.111C540.704 108.888 540.579 109.61 539.951 110.277C539.339 110.928 538.767 111.563 538.225 112.191C537.049 113.595 535.88 114.725 534.711 115.58C533.848 116.192 533.056 116.867 532.326 117.62C531.589 118.358 530.796 119.064 529.941 119.754C528.537 121.01 527.133 122.249 525.737 123.458C524.332 124.65 522.944 125.835 521.563 127.004C520.473 128.008 519.367 128.981 518.237 129.923C517.108 130.849 515.994 131.774 514.911 132.716C514.425 133.093 513.938 133.501 513.436 133.94C512.934 134.364 512.409 134.772 511.867 135.164C508.29 137.949 504.65 140.719 500.948 143.481C497.261 146.242 493.487 148.863 489.62 151.358C489.448 151.436 488.977 151.734 488.208 152.237C487.431 152.739 486.616 153.28 485.76 153.869C484.898 154.449 484.199 154.904 483.658 155.218C487.235 154.669 490.828 153.994 494.452 153.178C498.069 152.362 501.897 151.272 505.937 149.914C509.969 148.549 514.417 146.721 519.273 144.422C524.121 142.123 529.581 139.197 535.652 135.635C537.049 134.779 538.837 133.595 541.018 132.088C543.191 130.566 545.019 129.287 546.509 128.259C549.223 126.4 551.318 124.917 552.785 123.803C554.268 122.673 555.468 121.755 556.393 121.041C557.476 120.186 558.527 119.409 559.531 118.719C560.551 118.013 561.108 117.62 561.194 117.558C561.422 117.33 561.838 117.118 562.449 116.93C563.077 116.726 563.391 116.82 563.391 117.212C563.391 117.511 562.999 117.919 562.23 118.436C561.453 118.938 560.755 119.425 560.127 119.88C557.868 121.598 555.648 123.254 553.475 124.839C551.294 126.431 549.318 127.844 547.545 129.075C536.264 136.945 525.344 143.19 514.786 147.811C504.219 152.433 493.025 155.516 481.211 157.07L479.359 158.356C477.877 159.361 476.841 160.067 476.253 160.49C475.672 160.93 474.605 161.62 473.052 162.562C470.73 164.021 468.408 165.512 466.086 167.018C463.749 168.54 461.372 170.047 458.963 171.538C456.477 172.997 453.99 174.488 451.495 175.994C449.008 177.516 446.475 178.983 443.902 180.388C440.576 182.184 437.187 183.95 433.735 185.692C430.268 187.449 426.738 189.026 423.16 190.431C420.046 191.435 416.822 192.321 413.496 193.098C410.154 193.867 407.118 194.259 404.396 194.259ZM402.168 192.408C403.509 192.408 404.788 192.282 405.996 192.031C407.189 191.796 408.405 191.537 409.636 191.246C412.358 190.446 415.025 189.528 417.638 188.485C420.234 187.433 422.776 186.296 425.263 185.064C427.043 184.201 428.808 183.322 430.566 182.428C432.323 181.525 434.049 180.576 435.743 179.572C437.147 178.63 438.567 177.728 440.01 176.873C441.454 176.033 442.913 175.186 444.372 174.331C446.176 173.24 447.949 172.11 449.706 170.941C451.448 169.764 453.174 168.603 454.884 167.458C457.127 166.053 459.551 164.515 462.164 162.844C464.76 161.165 467.145 159.588 469.318 158.105C464.282 158.67 459.857 159.219 456.045 159.769C452.24 160.31 448.796 160.883 445.721 161.495C442.646 162.122 439.634 162.821 436.684 163.597C433.735 164.366 430.589 165.3 427.239 166.391C423.835 167.56 420.203 169.035 416.351 170.816C412.507 172.612 408.93 174.597 405.62 176.779C402.317 178.952 399.775 181.204 397.995 183.526C397.14 184.781 396.708 186.107 396.708 187.512C396.708 188.744 397.14 189.866 397.995 190.87C398.834 191.89 400.223 192.408 402.168 192.408Z" fill="white"/>
<path d="M390.45 156.741C391.459 157.262 391.968 158.075 391.968 159.17C391.968 159.821 391.838 160.661 391.578 161.686C391.329 162.716 390.765 163.778 389.887 164.873C388.136 166.998 386.212 169.075 384.12 171.097C382.038 173.108 379.827 174.913 377.485 176.518C376.168 177.402 374.867 178.356 373.582 179.38C372.292 180.411 370.959 181.354 369.571 182.221C369.279 182.454 368.802 182.807 368.14 183.284C367.49 183.761 366.904 184.184 366.384 184.541C366.308 184.834 366.216 185.105 366.102 185.366C365.999 185.626 365.913 185.864 365.842 186.081C364.959 188.136 364.075 190.169 363.197 192.175C362.313 194.186 361.473 196.251 360.682 198.377L358.47 203.646C357.961 205.917 357.413 207.804 356.823 209.306C356.243 210.813 355.657 212.84 355.066 215.399L354.524 218.478C354.378 218.999 354.21 220.013 354.026 221.514C353.836 223.005 353.668 224.502 353.527 226.003C353.381 227.51 353.272 228.519 353.202 229.039C354.01 228.448 354.833 227.901 355.674 227.391C356.508 226.871 357.083 226.469 357.386 226.177C359.511 224.485 361.446 222.658 363.197 220.69C364.959 218.712 366.536 216.586 367.924 214.315C368.585 213.29 369.1 212.19 369.463 211.019C369.821 209.848 370.113 208.677 370.33 207.506C370.417 207.132 370.493 206.671 370.569 206.118C370.639 205.571 370.894 205.261 371.327 205.186C371.615 205.261 371.761 205.554 371.761 206.075C371.761 206.584 371.685 207.061 371.544 207.506C371.181 209.561 370.655 211.339 369.962 212.84C369.268 214.331 368.368 215.811 367.273 217.286C366.173 218.75 364.742 220.468 362.98 222.447C362.243 223.173 361.528 223.889 360.834 224.594C360.14 225.288 359.349 225.998 358.47 226.719C357.82 227.239 356.958 227.846 355.89 228.54C354.833 229.234 353.863 229.874 352.985 230.449C352.768 231.999 352.622 233.571 352.551 235.176C352.476 236.13 352.383 237.014 352.27 237.822C352.15 238.635 352.02 239.659 351.879 240.901C351.803 241.855 351.749 242.679 351.706 243.373C351.673 244.067 351.587 244.923 351.446 245.953C351.229 246.528 350.936 246.745 350.578 246.604C350.345 246.458 350.232 246.279 350.232 246.062C350.232 245.915 350.242 245.747 350.275 245.563C350.318 245.373 350.34 245.205 350.34 245.064C350.497 243.384 350.665 241.904 350.839 240.619C351.023 239.334 351.153 237.854 351.229 236.173L351.662 231.446C351.083 231.739 350.459 232.086 349.798 232.487C349.147 232.894 348.595 233.241 348.15 233.528C346.242 234.699 344.247 235.729 342.166 236.607C340.085 237.491 338.09 238.223 336.182 238.797C335.082 239.177 333.743 239.486 332.171 239.73C330.594 239.99 328.968 240.12 327.293 240.12C325.385 240.12 323.531 239.936 321.742 239.578C319.948 239.22 318.468 238.597 317.298 237.713C316.56 237.122 315.986 236.466 315.585 235.74C315.178 235.002 314.793 234.265 314.436 233.528C314.143 232.286 314.002 230.937 314.002 229.473C314.002 227.131 314.381 224.897 315.151 222.772C315.915 220.647 316.918 218.56 318.165 216.505L321.027 211.886C323.292 209.403 325.412 207.17 327.379 205.186C329.358 203.207 331.412 201.45 333.537 199.916C335.152 198.604 336.345 197.634 337.114 197.01C337.879 196.392 338.811 195.677 339.911 194.864C342.627 192.885 345.397 190.982 348.215 189.16C351.034 187.328 353.901 185.604 356.823 183.999C358.438 183.121 360.183 182.189 362.048 181.202C363.912 180.204 365.614 179.267 367.165 178.383C367.235 178.383 367.273 178.372 367.273 178.34C367.273 178.296 367.306 178.275 367.382 178.275C368.84 174.241 370.851 170.587 373.409 167.302C375.978 164.006 378.677 161.393 381.496 159.452C384.315 157.5 386.786 156.524 388.911 156.524C389.345 156.524 389.854 156.6 390.45 156.741ZM380.672 168.495C385.643 164.174 388.131 160.986 388.131 158.932C388.131 158.791 388.109 158.606 388.066 158.389C388.033 158.173 387.838 158.064 387.48 158.064C386.526 158.064 385.204 158.563 383.512 159.56C381.832 160.547 380.184 161.837 378.569 163.442C376.818 165.209 375.002 167.427 373.127 170.099C371.262 172.777 369.859 175.174 368.921 177.299L371.219 175.759L373.626 173.872C374.65 173.151 375.474 172.55 376.097 172.073C376.715 171.596 377.36 171.108 378.027 170.598C378.688 170.078 379.572 169.378 380.672 168.495ZM364.086 187.295C364.156 187.068 364.243 186.829 364.346 186.58C364.46 186.32 364.66 185.897 364.953 185.3C364.14 185.75 363.332 186.233 362.525 186.753C361.728 187.263 361.04 187.697 360.465 188.054C357.603 189.659 354.774 191.367 351.988 193.172C349.212 194.967 346.508 196.848 343.879 198.81C343.283 199.26 342.692 199.688 342.101 200.09C341.521 200.496 340.936 200.952 340.345 201.456L333.428 207.397C331.087 209.598 328.962 211.973 327.054 214.532C325.157 217.091 323.439 219.769 321.894 222.555C321.314 223.726 320.799 224.919 320.355 226.133C319.921 227.337 319.628 228.557 319.487 229.798C319.195 232.736 319.964 234.954 321.786 236.455C323.618 237.946 326.078 238.689 329.157 238.689C330.398 238.689 331.678 238.58 332.995 238.364C336.29 237.643 339.358 236.602 342.209 235.241C345.071 233.886 348.042 232.368 351.12 230.687C351.261 230.53 351.424 230.416 351.597 230.34C351.782 230.27 351.912 230.199 351.988 230.123C352.145 228.378 352.297 226.784 352.443 225.353C352.584 223.921 352.768 222.512 352.985 221.124C353.343 219.216 353.657 217.514 353.917 216.006C354.178 214.505 354.557 213.095 355.066 211.778C355.874 208.861 356.606 206.443 357.256 204.535C357.918 202.627 358.731 200.393 359.685 197.834C360.346 196.002 361.061 194.224 361.831 192.5C362.595 190.781 363.349 189.047 364.086 187.295Z" fill="#A47124"/>
<path d="M308.77 205.604C308.998 207.071 309.115 208.616 309.115 210.248C309.115 211.025 309.068 211.786 308.99 212.539C308.927 213.277 308.817 214.069 308.676 214.925C308.362 216.329 308.049 217.71 307.735 219.067C307.421 220.432 306.989 221.766 306.448 223.084C305.444 225.579 303.946 228.184 301.961 230.899C299.969 233.621 298.007 235.912 296.062 237.772C295.136 238.635 294.148 239.467 293.081 240.283C292.03 241.099 290.963 241.899 289.88 242.668C287.637 244.3 285.346 245.861 283.009 247.344C280.687 248.811 278.278 250.2 275.791 251.518C273.383 252.773 271.069 253.966 268.857 255.096C266.637 256.225 264.283 257.253 261.797 258.171C258.988 259.262 256.321 260.164 253.795 260.87C251.285 261.561 248.555 262.22 245.605 262.847C245.433 262.91 245.197 262.942 244.884 262.942C242.413 263.491 239.463 263.962 236.035 264.354C232.623 264.754 229.32 264.95 226.119 264.95C225.806 265.013 225.374 265.036 224.833 265.013C224.284 264.974 223.711 264.95 223.107 264.95C222.793 264.95 222.456 264.95 222.103 264.95C221.742 264.95 221.381 264.982 221.005 265.044H217.49C216.8 265.044 216.141 265.044 215.513 265.044C214.902 265.044 214.4 265.091 214.007 265.17C212.831 265.091 211.795 265.068 210.901 265.107C210.022 265.154 209.034 265.131 207.951 265.044C206.947 265.044 205.927 265.036 204.908 265.013C203.903 264.974 202.852 264.911 201.77 264.825C201.534 264.746 201.181 264.699 200.703 264.699C198.146 264.558 196.263 264.369 195.055 264.134C193.862 263.883 192.364 263.616 190.568 263.318C188.159 262.84 185.806 262.275 183.507 261.623C181.225 260.957 178.958 260.305 176.698 259.678C172.431 258.046 169.073 256.437 166.626 254.845C164.178 253.26 162.178 251.957 160.633 250.953L155.957 255.127C154.467 256.469 152.961 257.779 151.439 259.05C149.933 260.329 148.442 261.623 146.983 262.942C145.893 263.805 144.826 264.699 143.782 265.641C142.731 266.566 141.664 267.492 140.582 268.434C138.95 269.838 137.303 271.243 135.655 272.639C134.024 274.044 132.392 275.401 130.76 276.719C129.207 277.959 127.662 279.183 126.116 280.391C124.563 281.583 123.01 282.807 121.441 284.063C119.746 285.467 118.036 286.848 116.326 288.205C114.608 289.571 112.89 290.951 111.18 292.348C109.172 294.043 107.132 295.683 105.061 297.275C103.006 298.884 100.896 300.461 98.7229 302.014C96.5421 303.56 94.3299 305.129 92.0707 306.722C89.8114 308.33 87.56 309.907 85.3243 311.461C83.8338 312.465 82.2963 313.469 80.7117 314.474C79.1192 315.494 77.5425 316.553 75.9735 317.643C73.1887 319.589 70.2627 321.386 67.1876 323.041C64.1125 324.712 60.9433 326.093 57.6799 327.184C55.9619 327.976 54.4636 328.581 53.1928 329.004C51.9141 329.42 50.5727 329.726 49.1763 329.914C47.7722 330.118 45.9836 330.338 43.8106 330.573C42.8065 330.652 41.9436 330.715 41.2376 330.762C40.5473 330.801 39.653 330.856 38.5704 330.919C36.8525 330.919 35.6365 330.934 34.9305 330.981C34.2402 331.021 33.6205 330.997 33.0792 330.919C32.6164 330.856 32.028 330.801 31.322 330.762C30.6317 330.715 30.1688 330.613 29.9414 330.448C29.3138 330.15 29 329.765 29 329.287C29 328.675 29.4707 328.251 30.412 328C31.2671 328.078 32.1143 328.165 32.9537 328.251C33.8087 328.329 34.7815 328.377 35.8719 328.377C36.3504 328.377 36.8603 328.377 37.4094 328.377C37.9507 328.377 38.492 328.329 39.0411 328.251C40.7512 328.078 42.43 327.882 44.0617 327.655C45.6933 327.419 47.2387 327.105 48.7057 326.713C51.8827 325.709 55.1696 324.171 58.5585 322.1C61.9474 320.044 64.9989 318.13 67.721 316.357C72.9298 312.857 77.715 309.327 82.0923 305.749C86.4853 302.171 91.1685 298.515 96.1499 294.796C98.3228 293.078 100.433 291.336 102.488 289.555C104.559 287.758 106.638 286.001 108.733 284.282C111.306 282.195 113.863 279.983 116.42 277.66C118.993 275.322 121.566 273.102 124.139 271.007C125.371 269.987 126.556 268.928 127.685 267.837C128.815 266.755 129.992 265.75 131.231 264.825C133.027 263.506 134.683 262.031 136.189 260.399C137.711 258.768 139.366 257.324 141.147 256.069C141.374 255.927 141.649 255.692 141.962 255.378L151.188 246.873C152.019 246.104 152.913 245.351 153.855 244.613C154.796 243.86 155.683 243.099 156.522 242.322C157.918 241.24 159.283 240.126 160.601 238.996C161.935 237.866 163.268 236.76 164.586 235.669C166.359 234.123 168.203 232.625 170.109 231.181C172.007 229.738 173.89 228.286 175.757 226.819C177.553 225.422 179.342 224.018 181.123 222.614C182.919 221.217 184.747 219.852 186.614 218.534C188.159 217.451 189.728 216.36 191.321 215.27C192.929 214.187 194.506 213.096 196.059 212.006C198.232 210.46 200.46 209.048 202.742 207.769C205.041 206.474 207.277 205.164 209.457 203.846C213.348 201.586 217.467 199.546 221.821 197.726C226.166 195.906 230.481 194.329 234.748 192.987C235.831 192.697 236.827 192.454 237.729 192.265C238.624 192.061 239.777 191.881 241.181 191.732C242.099 191.567 243.425 191.481 245.166 191.481C246.923 191.481 248.539 191.481 250.03 191.481C251.889 191.653 253.497 191.967 254.862 192.422C256.219 192.885 256.823 193.427 256.682 194.054C256.682 194.29 256.462 194.447 256.023 194.525C255.599 194.588 255.082 194.619 254.454 194.619C253.905 194.619 253.403 194.611 252.948 194.588C252.485 194.549 252.101 194.525 251.787 194.525C247.81 194.988 244.601 195.49 242.154 196.031C239.706 196.581 237.62 197.208 235.909 197.915C234.215 198.605 232.466 199.382 230.669 200.237C227.571 201.641 224.692 203.116 222.04 204.662C219.404 206.216 216.651 207.918 213.788 209.778C210.979 211.661 208.155 213.512 205.315 215.332C202.491 217.153 199.714 219.114 197 221.201C195.745 222.229 194.459 223.21 193.141 224.151C191.823 225.077 190.505 226.034 189.187 227.039L180.087 234.508C179.146 235.285 178.22 236.03 177.326 236.736C176.447 237.427 175.616 238.243 174.847 239.184C174.674 239.247 174.455 239.435 174.188 239.749C173.913 240.063 173.623 240.377 173.309 240.69C171.442 242.158 169.74 243.437 168.195 244.519C166.642 245.61 165.057 246.936 163.425 248.505L162.013 249.792C163.017 250.568 164.194 251.424 165.559 252.365C166.916 253.291 167.638 253.707 167.724 253.621C169.67 254.625 171.34 255.488 172.745 256.194C174.141 256.884 175.616 257.504 177.169 258.046C178.714 258.595 180.73 259.175 183.225 259.803C186.488 260.894 189.791 261.67 193.141 262.126L197.22 262.596C198.993 262.769 200.491 262.934 201.707 263.098C202.915 263.248 204.1 263.279 205.253 263.193C205.645 263.193 206.014 263.216 206.351 263.255C206.704 263.302 207.081 263.318 207.481 263.318C208.108 263.318 208.689 263.302 209.238 263.255C209.779 263.216 210.281 263.153 210.744 263.067C211.748 263.067 212.752 263.091 213.756 263.13C214.776 263.177 215.796 263.193 216.8 263.193C217.341 263.193 217.843 263.193 218.306 263.193C218.785 263.193 219.295 263.153 219.844 263.067C220.448 262.989 221.546 262.934 223.138 262.91C224.747 262.871 225.939 262.808 226.716 262.722C227.406 262.722 228.198 262.69 229.1 262.628C229.995 262.549 231.305 262.463 233.023 262.377C234.945 262.149 236.953 261.78 239.047 261.278C241.158 260.76 243.534 260.109 246.17 259.332C251.144 257.787 256.713 255.653 262.864 252.93C265.264 251.847 267.696 250.568 270.143 249.101C272.591 247.618 274.858 246.175 276.952 244.77C279.125 243.225 281.079 241.773 282.82 240.408C284.577 239.051 286.429 237.474 288.374 235.669C289.08 235.041 289.896 234.178 290.822 233.064C291.763 231.934 292.642 230.789 293.458 229.612C294.273 228.443 294.87 227.431 295.246 226.568C295.874 225.799 296.438 224.842 296.941 223.712C297.443 222.582 297.851 221.633 298.164 220.856C298.643 219.71 298.957 218.549 299.106 217.372C299.247 216.203 299.451 214.642 299.702 212.696C299.764 211.692 299.796 210.9 299.796 210.311C299.796 209.73 299.796 209.205 299.796 208.742C299.796 208.114 299.796 207.51 299.796 206.922C299.796 206.341 299.717 205.502 299.576 204.411C299.341 201.947 298.957 199.821 298.415 198.04C297.866 196.243 297.168 194.415 296.313 192.548C294.909 189.519 293.332 186.852 291.575 184.545C289.833 182.246 287.684 180.136 285.111 178.206C282.789 176.409 280.247 174.714 277.486 173.121C274.725 171.537 271.94 170.234 269.139 169.23C265.248 167.661 261.201 166.28 256.996 165.087C252.807 163.879 248.626 163 244.444 162.451C243.644 162.372 242.844 162.278 242.028 162.168C241.212 162.043 240.381 161.941 239.549 161.855C237.831 161.627 235.941 161.415 233.87 161.227C231.815 161.039 229.893 160.905 228.096 160.819C227.484 160.741 226.825 160.693 226.119 160.693C225.429 160.693 224.77 160.693 224.143 160.693C220.644 160.693 217.208 160.913 213.819 161.353C210.446 161.776 206.979 162.066 203.401 162.231C201.997 162.294 200.617 162.388 199.259 162.514C197.895 162.624 196.514 162.828 195.118 163.141C193.4 163.455 191.729 163.832 190.097 164.271C188.465 164.695 186.802 165.103 185.108 165.495C182.535 166.272 180.001 167.017 177.514 167.723C175.02 168.414 172.572 169.379 170.172 170.611C169.936 170.697 169.685 170.799 169.419 170.925C169.144 171.034 168.854 171.16 168.54 171.301C165.128 172.706 161.794 174.361 158.53 176.26C155.267 178.166 152.074 180.136 148.96 182.16L147.673 182.85C144.261 184.882 140.903 187.205 137.601 189.818C134.29 192.415 131.082 194.957 127.968 197.444C125.097 199.852 122.539 202.418 120.28 205.133C118.021 207.855 116.154 210.578 114.695 213.293C113.063 215.929 111.682 218.581 110.553 221.233C109.423 223.869 108.513 226.662 107.823 229.612C107.274 231.707 106.866 234.021 106.599 236.548C106.324 239.082 106.191 241.397 106.191 243.484C106.105 245.429 106.254 247.305 106.63 249.101C107.023 250.882 107.423 252.232 107.823 253.15C108.278 255.017 108.937 256.5 109.8 257.606C110.655 258.697 111.627 259.701 112.718 260.619C113.173 261.168 113.675 261.545 114.224 261.749C114.765 261.937 115.463 262.267 116.326 262.722C116.954 262.871 117.181 263.185 117.017 263.663C116.781 263.977 116.467 264.134 116.075 264.134C114.444 263.428 112.922 262.526 111.525 261.435C110.145 260.352 108.984 259.034 108.042 257.481C105.72 253.275 104.559 248.615 104.559 243.484C104.622 243.091 104.63 242.723 104.591 242.385C104.567 242.032 104.559 241.695 104.559 241.381C104.701 239.608 104.826 237.803 104.936 235.983C105.061 234.147 105.509 231.793 106.285 228.922C106.222 228.757 106.262 228.561 106.411 228.325C107.101 224.748 108.262 221.444 109.894 218.408C111.541 215.38 113.33 212.312 115.259 209.213C116.515 207.353 118.029 205.337 119.809 203.156C121.606 200.982 123.324 199.107 124.955 197.538C125.873 196.683 127.011 195.702 128.376 194.588C129.733 193.458 130.925 192.509 131.953 191.732C133.333 190.649 134.91 189.488 136.691 188.248C138.487 186.993 140.088 185.855 141.492 184.828C143.437 183.509 145.398 182.238 147.391 180.999C149.376 179.743 151.329 178.504 153.259 177.264C155.055 176.181 156.867 175.177 158.687 174.251C160.523 173.31 162.374 172.415 164.241 171.552C164.382 171.387 164.555 171.27 164.743 171.207C164.947 171.129 165.088 171.042 165.151 170.956C167.324 169.724 169.544 168.657 171.803 167.755C174.063 166.86 176.322 166.021 178.581 165.244C180.754 164.554 182.613 163.918 184.166 163.33C185.712 162.749 187.846 162.294 190.568 161.98L193.611 161.29C194.929 161.062 196.106 160.85 197.157 160.662C198.2 160.458 199.197 160.309 200.138 160.223C200.366 160.16 200.617 160.129 200.891 160.129C201.158 160.129 201.37 160.089 201.519 160.003C204.406 159.548 206.869 159.14 208.924 158.779C210.995 158.426 212.886 158.214 214.604 158.151C217.004 157.987 219.389 157.853 221.758 157.743C224.119 157.618 226.512 157.516 228.943 157.43C229.32 157.43 229.712 157.422 230.136 157.398C230.575 157.359 230.991 157.335 231.391 157.335C231.932 157.335 232.489 157.359 233.054 157.398C233.635 157.422 234.199 157.477 234.749 157.555C236.772 157.704 238.741 157.861 240.648 158.026C242.546 158.175 244.39 158.363 246.17 158.591C247.488 158.677 248.806 158.803 250.124 158.967C251.458 159.116 252.744 159.344 253.984 159.658C255.78 160.121 257.529 160.505 259.224 160.819C260.934 161.133 262.652 161.604 264.37 162.231C265.915 162.78 267.508 163.283 269.139 163.738C270.771 164.201 272.356 164.703 273.909 165.244C276.482 166.272 278.992 167.347 281.44 168.477C283.887 169.591 286.193 170.885 288.374 172.368C289.543 173.145 290.696 173.961 291.826 174.816C292.956 175.679 293.975 176.652 294.901 177.735C295.128 178.049 295.38 178.347 295.654 178.614C295.921 178.888 296.219 179.171 296.533 179.461C299.184 182.034 301.365 184.843 303.059 187.872C304.77 190.908 306.134 194.243 307.139 197.883C307.452 199.138 307.766 200.41 308.08 201.681C308.394 202.959 308.621 204.27 308.77 205.604ZM303.585 287.327C302.785 287.327 301.961 287.287 301.106 287.201C300.267 287.123 299.537 286.934 298.91 286.636C298.368 286.471 297.843 286.252 297.341 285.977C296.839 285.71 296.321 285.412 295.772 285.098C294.517 284.243 293.638 283.239 293.136 282.086C292.634 280.917 292.187 279.559 291.787 278.006C291.787 277.527 291.834 276.939 291.912 276.248C291.999 275.542 292.085 274.954 292.163 274.491C292.461 272.78 292.744 271.619 293.01 271.007C293.285 270.38 293.693 269.642 294.234 268.779C294.948 267.461 295.756 266.237 296.65 265.107C297.529 263.977 298.517 262.84 299.6 261.686C300.227 261.059 300.863 260.431 301.514 259.803C302.181 259.176 302.832 258.595 303.459 258.046C305.468 256.186 307.578 254.523 309.798 253.056C312.01 251.573 314.324 250.215 316.732 248.976C318.678 247.956 320.671 247.171 322.726 246.622C324.797 246.081 326.915 245.806 329.096 245.806C329.951 245.806 330.704 245.869 331.355 245.994C332.022 246.104 332.673 246.426 333.3 246.967C333.991 247.909 334.336 248.882 334.336 249.886C334.336 250.514 334.148 251.298 333.771 252.24C332.367 254.484 330.649 256.273 328.625 257.606C325.362 259.929 322.365 261.678 319.651 262.847C316.929 264.001 313.508 265.005 309.39 265.86C308.7 265.947 307.962 266.049 307.193 266.174C306.417 266.284 305.719 266.331 305.091 266.331C304.464 266.331 304.032 266.292 303.805 266.205C303.028 266.755 302.463 267.202 302.11 267.555C301.749 267.916 301.341 268.434 300.886 269.124H300.761C300.212 269.752 299.6 270.474 298.91 271.29C298.219 272.106 297.639 272.984 297.152 273.926C296.697 274.703 296.305 275.581 295.991 276.562C295.678 277.527 295.521 278.469 295.521 279.387C295.521 280.163 295.662 280.924 295.929 281.678C296.203 282.415 296.65 283.09 297.278 283.718C298.282 284.643 299.192 285.224 300.008 285.475C300.824 285.71 302.087 285.899 303.805 286.04C305.201 286.04 306.472 285.93 307.601 285.695C308.731 285.467 309.712 285.24 310.551 285.004C311.947 284.612 313.124 284.251 314.065 283.937C315.007 283.623 316.089 283.31 317.329 282.996C319.815 282.078 322.357 280.979 324.954 279.7C327.566 278.406 330.264 277.056 333.049 275.652C335.309 274.506 337.364 273.29 339.231 272.011C341.114 270.717 343.169 269.297 345.412 267.743C346.432 267.037 347.334 266.394 348.111 265.829C348.88 265.248 349.852 264.526 351.029 263.663C351.633 263.271 352.206 262.879 352.755 262.502C353.296 262.11 353.61 262.024 353.696 262.251C353.837 262.424 353.916 262.62 353.916 262.847C353.916 262.996 353.069 263.726 351.374 265.044C349.193 266.763 347.17 268.269 345.287 269.564C343.42 270.842 341.372 272.168 339.137 273.549C336.564 275.118 334.163 276.491 331.951 277.661C329.731 278.814 327.26 280.046 324.546 281.364C321.675 282.705 318.725 283.922 315.697 285.004C312.661 286.095 309.555 286.825 306.378 287.201C305.891 287.287 305.421 287.327 304.966 287.327C304.503 287.327 304.04 287.327 303.585 287.327ZM304.746 265.17C305.515 265.256 306.66 265.225 308.166 265.076C309.688 264.911 310.724 264.715 311.273 264.479C313.532 263.852 315.619 263.153 317.548 262.377C319.494 261.608 321.439 260.705 323.385 259.678C324.781 258.909 326.06 258.077 327.213 257.198C328.382 256.304 329.511 255.339 330.602 254.311C330.916 254.021 331.339 253.424 331.888 252.522C332.43 251.628 332.626 250.906 332.484 250.357C332.312 249.98 331.731 249.792 330.727 249.792C330.037 249.792 329.292 249.87 328.499 250.011C327.723 250.161 327.032 250.317 326.428 250.482C324.397 251.259 322.475 252.193 320.655 253.275C318.835 254.366 317.023 255.496 315.226 256.665C313.508 257.904 311.681 259.223 309.735 260.619C307.805 262.024 306.142 263.538 304.746 265.17ZM489.957 188.217C490.349 188.531 490.648 188.892 490.836 189.284C491.024 189.661 491.157 190.006 491.244 190.32C491.157 192.956 490.459 195.216 489.141 197.099C487.823 198.966 486.388 200.708 484.843 202.34C483.666 203.579 482.411 204.717 481.077 205.76C479.759 206.812 478.52 207.918 477.374 209.087C475.743 210.405 474.472 211.472 473.578 212.288C472.676 213.104 471.413 214.171 469.781 215.489C469.232 216.039 468.416 216.619 467.333 217.247C466.243 217.875 465.396 218.463 464.792 219.004C463.615 219.867 462.407 220.66 461.152 221.39C459.912 222.127 458.673 222.88 457.418 223.649L454.531 225.532C452.35 226.709 450.114 227.815 447.816 228.859C445.51 229.91 443.243 230.977 441.007 232.06C437.885 233.378 434.7 234.492 431.436 235.387C428.173 236.289 424.949 237.199 421.772 238.117C420.995 238.29 420.25 238.486 419.544 238.713C418.854 238.949 418.116 239.137 417.348 239.278C416.006 239.592 414.633 239.89 413.237 240.157C411.856 240.432 410.491 240.651 409.158 240.816C407.463 241.051 405.91 241.781 404.514 243.013L400.905 246.151C399.964 246.952 399.038 247.736 398.144 248.505C397.265 249.282 396.395 250.098 395.539 250.953C394.284 252.106 393.068 253.268 391.9 254.437C390.746 255.613 389.585 256.853 388.417 258.171C387.099 259.662 385.757 261.121 384.4 262.565C383.035 263.993 381.702 265.476 380.384 267.021C377.889 269.909 375.834 272.663 374.202 275.275C372.57 277.872 371.755 280.72 371.755 283.812C371.755 285.302 372.163 286.558 372.978 287.578C373.794 288.582 375.018 289.084 376.65 289.084C378.972 289.084 381.513 288.613 384.275 287.672C387.036 286.73 389.75 285.569 392.433 284.188C395.132 282.792 397.579 281.387 399.776 279.983C401.988 278.586 403.729 277.457 404.984 276.593C406.443 275.589 407.997 274.522 409.628 273.392C411.26 272.263 412.813 271.086 414.304 269.846C415.849 268.677 417.489 267.429 419.23 266.111C420.987 264.793 422.494 263.71 423.749 262.847C424.517 262.369 425.106 262.173 425.506 262.251C425.733 262.251 425.851 262.337 425.851 262.502C425.851 262.738 425.38 263.193 424.439 263.883C421.254 266.229 418.226 268.551 415.339 270.85C412.468 273.133 409.362 275.362 406.02 277.535C404.702 278.398 402.89 279.544 400.591 280.987C398.309 282.415 395.79 283.867 393.029 285.35C390.268 286.817 387.483 288.064 384.683 289.084C381.898 290.088 379.333 290.591 376.995 290.591C374.437 290.591 372.359 289.822 370.75 288.268C369.158 286.699 368.366 284.753 368.366 282.431C368.366 282.039 368.382 281.631 368.428 281.207C368.468 280.768 368.53 280.36 368.617 279.983C370.162 273.769 372.915 268.292 376.869 263.538L378.501 261.435C378.203 261.749 377.905 262.063 377.591 262.377C377.277 262.69 376.846 263.083 376.304 263.538L375.488 264.354C372.139 267.39 369.126 270.034 366.451 272.294C363.769 274.538 360.96 276.86 358.011 279.261C357.069 280.061 356.104 280.728 355.124 281.27C354.159 281.819 353.131 282.321 352.049 282.776C351.358 283.09 350.543 283.247 349.601 283.247C348.519 283.247 347.467 282.933 346.463 282.305C345.836 281.678 345.389 280.956 345.114 280.14C344.847 279.324 344.706 278.492 344.706 277.629C344.706 277.339 344.73 277.033 344.769 276.719C344.816 276.405 344.879 276.091 344.957 275.777C345.255 274.067 345.734 272.435 346.4 270.882C347.075 269.336 347.828 267.861 348.66 266.457C350.001 264.511 351.327 262.722 352.645 261.09C353.79 259.607 355.037 258.132 356.379 256.665C356.983 255.959 357.634 255.276 358.324 254.625C359.03 253.958 359.775 253.307 360.552 252.679C361.407 251.989 362.247 251.283 363.062 250.545C363.878 249.792 364.71 249.148 365.573 248.599C367.659 247.218 370.224 245.947 373.26 244.77C373.966 244.457 374.688 244.268 375.426 244.206C376.155 244.127 376.838 244.08 377.465 244.08C379.724 244.08 381.395 244.425 382.486 245.116C383.254 245.665 384.149 246.402 385.153 247.344C386.157 248.27 386.855 249.627 387.255 251.424L395.288 243.013C395.367 242.872 395.602 242.66 395.978 242.385C396.371 242.118 396.614 241.899 396.7 241.726L401.25 237.646C402.96 235.952 404.733 234.351 406.553 232.845C408.373 231.323 410.177 229.769 411.981 228.2C413.927 226.568 415.904 224.959 417.912 223.367C419.936 221.782 421.96 220.213 423.968 218.659C426.306 216.862 428.722 215.144 431.216 213.512C433.703 211.88 436.182 210.248 438.653 208.616C439.445 208.075 440.253 207.596 441.069 207.173C441.885 206.733 442.677 206.247 443.454 205.698C445.69 204.38 447.894 203.124 450.075 201.932C452.248 200.723 454.389 199.531 456.507 198.354C459.849 196.494 463.16 194.792 466.423 193.238C469.686 191.693 472.981 190.249 476.307 188.907C478.331 188.217 480.363 187.644 482.395 187.181C482.85 187.103 483.312 187.04 483.775 186.993C484.23 186.954 484.701 186.93 485.187 186.93C486.882 186.93 488.467 187.362 489.957 188.217ZM488.671 194.274C488.835 193.96 489.055 193.505 489.33 192.893C489.596 192.265 489.581 191.685 489.267 191.136C488.781 190.994 488.428 190.916 488.2 190.916C487.337 190.916 486.388 191.128 485.345 191.544C484.294 191.967 483.462 192.258 482.834 192.422C481.595 192.885 480.324 193.364 479.006 193.866C477.688 194.368 476.402 194.933 475.147 195.561C473.97 196.11 472.801 196.714 471.632 197.381C470.479 198.032 469.357 198.668 468.275 199.295L460.336 203.375C459.332 203.925 458.304 204.489 457.261 205.07C456.21 205.658 455.143 206.255 454.06 206.859C452.805 207.573 451.566 208.287 450.358 208.993C449.165 209.683 447.949 210.421 446.718 211.19C445.463 211.88 444.223 212.634 443.015 213.449C441.823 214.265 440.607 215.074 439.375 215.866L432.472 220.636C431.468 221.413 430.464 222.135 429.46 222.802C428.456 223.453 427.436 224.167 426.416 224.936C425.412 225.713 424.384 226.505 423.341 227.321C422.29 228.137 421.223 228.977 420.14 229.832C418.822 230.922 417.457 231.997 416.061 233.064C414.657 234.116 413.3 235.183 411.982 236.265C411.582 236.579 411.166 236.94 410.727 237.332C410.303 237.709 409.942 238.203 409.628 238.808C410.397 238.808 411.15 238.776 411.888 238.713C412.641 238.635 413.402 238.517 414.178 238.368C416.979 237.89 419.74 237.301 422.462 236.611C425.177 235.905 427.938 235.089 430.746 234.163C431.287 233.998 431.829 233.818 432.378 233.629C432.919 233.441 433.46 233.268 434.01 233.096C436.183 232.327 438.34 231.456 440.474 230.491C442.607 229.51 444.686 228.561 446.718 227.635C449.205 226.552 451.519 225.391 453.652 224.151C455.786 222.896 458.092 221.413 460.587 219.695C460.728 219.616 460.877 219.522 461.026 219.412C461.191 219.287 461.356 219.193 461.528 219.13C463.537 217.875 465.647 216.4 467.867 214.705C470.079 212.994 472.166 211.276 474.111 209.558C475.743 208.075 477.351 206.671 478.943 205.353C480.528 204.034 482.066 202.638 483.556 201.147C484.474 200.229 485.415 199.17 486.38 197.977C487.361 196.769 488.122 195.529 488.671 194.274ZM382.831 255.943C383.208 255.653 383.6 255.3 384.024 254.876C384.463 254.437 385.067 253.903 385.844 253.275C385.781 252.734 385.608 252.075 385.341 251.298C385.067 250.529 384.275 249.509 382.957 248.254C382.557 247.877 381.89 247.689 380.949 247.689C379.795 247.689 378.517 247.987 377.12 248.568C375.716 249.133 374.547 249.729 373.606 250.357C372.053 251.447 370.758 252.397 369.715 253.213C368.664 254.029 367.644 254.868 366.64 255.723C366.326 255.959 366.012 256.21 365.699 256.477C365.385 256.751 365.024 257.089 364.632 257.481C363.078 258.72 361.682 260.015 360.427 261.372C359.188 262.738 357.956 264.158 356.724 265.641L354.151 268.904C353.288 269.995 352.52 271.031 351.829 272.011C351.123 272.977 350.464 274.075 349.852 275.307C349.311 276.797 349.037 278.116 349.037 279.261C349.037 279.975 349.115 280.446 349.256 280.673C349.492 281.136 349.962 281.364 350.668 281.364C351.28 281.364 351.853 281.223 352.394 280.924C353.163 280.532 353.806 280.171 354.308 279.857C354.826 279.544 355.595 279.041 356.599 278.351C358.372 277.033 359.901 275.809 361.18 274.679C362.474 273.549 363.863 272.404 365.353 271.227C366.208 270.599 366.985 270.019 367.675 269.469C368.366 268.928 369.025 268.355 369.652 267.743C371.912 265.719 374.124 263.726 376.304 261.78C378.477 259.835 380.65 257.889 382.831 255.943ZM432.456 297.338C432.08 297.338 431.687 297.315 431.295 297.275C430.919 297.252 430.526 297.197 430.134 297.118C429.444 296.946 428.824 296.71 428.283 296.397C427.734 296.098 427.224 295.8 426.745 295.486C426.369 294.937 426 294.451 425.647 294.011C425.286 293.588 425.082 293.039 425.02 292.348C424.933 292.097 424.894 291.854 424.894 291.626C424.894 291.399 424.894 291.171 424.894 290.936C424.894 289.539 425.122 288.135 425.584 286.73C425.977 285.726 426.384 284.745 426.808 283.78C427.247 282.8 427.734 281.882 428.283 281.019C428.738 280.25 429.24 279.512 429.789 278.822C430.33 278.116 430.872 277.409 431.421 276.719C432.362 275.55 433.335 274.459 434.339 273.455C435.257 272.514 436.222 271.588 437.226 270.662C438.246 269.72 439.265 268.826 440.269 267.963C441.211 267.273 442.105 266.661 442.968 266.111C443.823 265.57 444.639 265.029 445.416 264.479C446.271 263.938 447.047 263.491 447.738 263.13C448.444 262.777 449.306 262.251 450.311 261.561C451.166 260.933 451.958 260.462 452.695 260.148C453.425 259.835 453.637 259.38 453.323 258.768C452.484 257.512 451.707 256.249 451.001 254.97C450.311 253.699 449.761 252.428 449.369 251.173C449.283 250.545 449.181 249.949 449.055 249.384C448.946 248.803 448.938 248.238 449.024 247.689C447.306 248.78 445.635 249.823 444.004 250.827C442.372 251.832 440.779 252.852 439.234 253.872C437.516 254.962 435.884 256.029 434.339 257.073C432.786 258.124 431.311 259.144 429.915 260.148C429.366 260.549 428.581 261.106 427.561 261.812C426.557 262.502 425.624 263.122 424.769 263.663C424.392 263.726 423.89 264.032 423.262 264.574C422.635 265.123 422.094 265.28 421.631 265.044C421.49 264.903 421.411 264.785 421.411 264.699C421.411 264.621 421.803 264.275 422.572 263.663C424.894 262.031 426.69 260.792 427.969 259.929C429.264 259.074 430.73 258.101 432.362 257.01L443.313 250.011C443.768 249.698 444.27 249.352 444.819 248.976C445.361 248.584 445.902 248.223 446.451 247.909C448.247 246.74 449.15 246.151 449.15 246.151C450.695 240.424 452.789 236.218 455.425 233.535C458.077 230.836 460.571 229.643 462.893 229.957C464.603 230.106 465.466 231.15 465.466 233.096C465.466 234.814 463.717 237.301 460.226 240.565C459.199 241.342 458.045 242.181 456.775 243.076C455.496 243.978 453.841 245.084 451.817 246.402C451.73 246.716 451.691 247.077 451.691 247.469C451.691 247.846 451.691 248.223 451.691 248.599C451.691 249.627 451.785 250.608 451.974 251.549C452.178 252.475 452.554 253.275 453.103 253.966C453.731 254.907 454.343 255.77 454.955 256.539C455.347 257.002 455.716 257.504 456.053 258.046C456.406 258.595 456.665 259.411 456.837 260.494C456.602 261.521 456.225 262.33 455.708 262.91C455.206 263.475 454.562 264.158 453.794 264.95C453.017 265.876 452.162 266.723 451.221 267.492C450.295 268.269 449.369 269.054 448.428 269.846L446.451 271.478C445.761 272.027 445.055 272.608 444.349 273.235C443.658 273.847 442.968 274.459 442.278 275.087L438.418 278.571C436.237 280.689 434.135 283.059 432.111 285.695C431.962 286.009 431.774 286.322 431.546 286.636C431.311 286.934 431.115 287.233 430.95 287.546L430.009 289.178C429.773 289.578 429.522 290.088 429.256 290.716C428.981 291.328 428.848 292.05 428.848 292.913C428.848 293.368 428.887 293.729 428.973 293.98C429.201 294.584 429.82 295.126 430.825 295.612C431.766 295.84 432.739 295.957 433.743 295.957C434.449 295.785 435.657 295.526 437.351 295.173C439.061 294.835 440.74 294.278 442.372 293.509C442.85 293.274 443.345 293.054 443.847 292.85C444.349 292.662 444.866 292.45 445.416 292.223C446.043 291.987 446.608 291.76 447.11 291.532C447.612 291.281 448.091 291.014 448.553 290.716L450.656 289.649C453.456 288.253 456.241 286.777 459.002 285.224C461.764 283.678 464.572 281.85 467.443 279.732C468.526 279.041 469.616 278.374 470.707 277.723C471.789 277.056 472.84 276.335 473.844 275.558C475.641 274.389 477.586 273.047 479.681 271.541C481.768 270.019 483.831 268.551 485.862 267.147C487.031 266.292 487.918 265.633 488.53 265.17C489.157 264.715 489.738 264.244 490.287 263.758C490.679 263.467 491.299 263.051 492.138 262.502C492.993 261.961 493.55 261.875 493.801 262.251C493.864 262.337 493.895 262.424 493.895 262.502C493.895 262.651 493.754 262.84 493.487 263.067C493.213 263.302 492.962 263.499 492.734 263.663C489.863 265.907 486.812 268.214 483.572 270.599C480.348 272.969 477.147 275.166 473.97 277.19C471.789 278.571 469.616 280.006 467.443 281.489C465.262 282.98 463.019 284.377 460.697 285.695C458.124 287.327 455.527 288.849 452.915 290.245C450.318 291.65 447.659 292.889 444.945 293.98C442.999 294.984 440.897 295.785 438.638 296.397C436.394 297.024 434.339 297.338 432.456 297.338ZM452.413 244.3C454.9 242.817 456.696 241.593 457.81 240.628C458.94 239.671 460.242 238.4 461.732 236.83C462.964 235.512 463.584 234.398 463.584 233.472C463.584 232.994 463.348 232.711 462.893 232.625C462.117 232.625 461.395 232.782 460.728 233.096C460.077 233.41 459.552 233.77 459.159 234.163C457.692 235.402 456.28 236.877 454.923 238.588C453.558 240.306 452.727 242.213 452.413 244.3ZM489.792 284.753C489.502 284.753 489.181 284.753 488.82 284.753C488.467 284.753 488.129 284.714 487.816 284.628C485.729 283.796 484.45 282.321 483.987 280.203C483.909 279.826 483.862 279.465 483.862 279.104C483.862 278.751 483.862 278.414 483.862 278.1C483.862 277.182 483.948 276.272 484.113 275.37C484.262 274.475 484.489 273.565 484.803 272.639C485.039 272.011 485.305 271.399 485.619 270.787C485.933 270.16 486.239 269.532 486.529 268.904C487.015 267.963 487.502 267.084 488.004 266.268C488.506 265.452 489.032 264.621 489.573 263.758C489.887 263.381 490.185 262.965 490.451 262.502C490.726 262.024 491.016 261.623 491.33 261.31C491.879 260.705 492.413 260.039 492.962 259.301C493.503 258.548 494.044 257.904 494.593 257.355C494.97 256.979 495.331 256.657 495.692 256.382C496.045 256.092 496.413 255.755 496.79 255.378C497.417 254.837 498.021 254.311 498.61 253.809C499.19 253.307 499.787 252.82 500.398 252.334C500.94 251.957 501.371 251.636 501.685 251.361C501.999 251.094 502.509 250.686 503.222 250.137C504.227 246.395 506.062 243.154 508.745 240.408C511.42 237.646 515.209 235.638 520.104 234.382C520.959 234.155 521.932 234.037 523.022 234.037C524.819 234.037 526.701 234.398 528.67 235.104C530.655 235.795 532.279 236.917 533.534 238.462C535.456 240.408 536.421 242.903 536.421 245.932C536.421 247.108 536.233 248.348 535.856 249.666C535.307 251.612 534.452 253.464 533.283 255.221C532.106 256.963 530.788 258.571 529.329 260.054C528.153 261.294 527.101 262.361 526.16 263.255C525.234 264.134 524.073 265.123 522.677 266.205C522.128 266.692 521.5 267.163 520.794 267.618C520.104 268.081 519.21 268.74 518.127 269.595C518.582 269.83 519.422 270.097 520.637 270.411C521.846 270.725 523.273 270.96 524.905 271.101C526.599 271.188 528.372 271.274 530.239 271.352C532.122 271.439 533.252 271.439 533.628 271.352C534.946 271.274 536.437 271.117 538.115 270.882C539.786 270.654 541.708 270.223 543.889 269.595C545.285 269.14 546.399 268.748 547.215 268.434C548.031 268.12 548.886 267.735 549.788 267.273C550.682 266.817 551.906 266.158 553.459 265.295C553.836 265.068 554.275 264.778 554.777 264.417C555.295 264.064 555.946 263.616 556.723 263.067C557.036 262.926 557.382 262.714 557.758 262.439C558.15 262.173 558.425 262.11 558.574 262.251C558.801 262.337 558.919 262.494 558.919 262.722C558.919 262.871 558.645 263.185 558.103 263.663C556.472 264.903 554.903 265.923 553.397 266.739C551.89 267.555 550.706 268.198 549.851 268.653C547.905 269.516 546.211 270.183 544.767 270.662C543.324 271.125 542.022 271.47 540.877 271.698C538.155 272.247 535.801 272.537 533.816 272.576C531.824 272.623 530.177 272.639 528.859 272.639C527.141 272.639 525.015 272.467 522.489 272.106C519.979 271.753 518.096 271.305 516.841 270.756C516.464 271.07 516.033 271.407 515.554 271.76C515.091 272.121 514.676 272.412 514.299 272.639C512.667 273.957 510.91 275.166 509.027 276.248C507.16 277.339 505.301 278.429 503.442 279.512C502.203 280.203 500.94 280.909 499.645 281.615C498.367 282.305 497.072 282.964 495.754 283.592C494.75 283.992 493.73 284.282 492.711 284.471C491.707 284.659 490.734 284.753 489.792 284.753ZM516.747 268.779C517.892 268.088 518.919 267.359 519.822 266.582C520.716 265.79 521.555 265.044 522.332 264.354C523.728 263.185 525.03 262.047 526.223 260.933C527.431 259.803 528.655 258.501 529.894 257.01C531.463 255.213 532.546 253.495 533.157 251.863C533.785 250.231 534.256 248.646 534.569 247.093C534.711 245.32 534.553 243.672 534.099 242.166C533.636 240.643 532.506 239.333 530.71 238.243C530.475 238.078 530.09 237.85 529.549 237.552C529 237.238 528.655 237.042 528.513 236.956C527.651 236.564 526.756 236.265 525.815 236.077C524.889 235.889 524.003 235.795 523.148 235.795C522.834 235.795 522.497 235.818 522.144 235.857C521.806 235.905 521.485 235.952 521.171 236.014C520.081 236.101 518.661 236.438 516.903 237.019C515.162 237.607 513.515 238.517 511.946 239.749C510.314 241.004 509.004 242.377 508.023 243.86C507.058 245.327 506.117 246.991 505.199 248.85C505.968 248.395 506.658 247.987 507.27 247.626C507.898 247.273 508.478 246.936 509.027 246.622C509.506 246.308 509.953 246.057 510.377 245.869C510.816 245.681 511.224 245.508 511.6 245.335C513.232 244.504 514.589 244.041 515.68 243.954C516.998 243.727 518.198 243.609 519.288 243.609C521.234 243.609 522.559 243.845 523.273 244.3C524.277 244.614 525.046 245.084 525.595 245.712C526.137 246.324 526.568 247.014 526.882 247.783C526.944 247.956 526.976 248.223 526.976 248.599C526.976 249.086 526.741 249.478 526.286 249.792C525.737 249.941 525.195 250.035 524.654 250.074C524.105 250.121 523.524 250.098 522.897 250.011C520.653 250.011 518.676 250.671 516.966 251.989C515.962 252.538 515.162 253.009 514.582 253.401C513.993 253.778 513.358 254.28 512.667 254.907C511.412 255.849 510.283 256.775 509.279 257.669C508.274 258.548 507.372 259.419 506.58 260.274L508.808 263.193C509.263 263.656 509.788 264.134 510.377 264.636C510.957 265.138 511.726 265.75 512.667 266.457C513.499 267.006 514.126 267.367 514.55 267.555C514.989 267.743 515.719 268.151 516.747 268.779ZM490.044 283.247C490.671 283.247 491.299 283.2 491.926 283.09C492.53 282.964 492.993 282.862 493.307 282.776C495.629 281.772 498.123 280.571 500.806 279.167C503.505 277.77 506.086 276.272 508.557 274.679C511.044 273.094 513.232 271.509 515.115 269.94C514.315 269.485 513.311 268.959 512.103 268.371C510.91 267.79 509.733 266.99 508.588 265.986C507.874 265.217 507.16 264.401 506.454 263.538C505.764 262.683 505.144 261.937 504.603 261.31C503.826 261.937 503.081 262.494 502.375 262.973C501.685 263.436 501.026 263.938 500.398 264.479C499.849 264.942 499.371 265.421 498.955 265.923C498.531 266.425 498.014 266.951 497.386 267.492C497.072 267.806 496.711 268.143 496.319 268.496C495.943 268.857 495.55 269.218 495.158 269.595C494.382 270.372 493.495 271.384 492.491 272.639C491.487 273.879 490.718 274.962 490.169 275.903C489.777 276.452 489.283 277.245 488.694 278.288C488.114 279.34 487.816 280.328 487.816 281.27C487.816 282.046 488.059 282.666 488.537 283.121C488.773 283.208 489.024 283.247 489.29 283.247C489.565 283.247 489.816 283.247 490.044 283.247Z" fill="white"/>
</g>
<defs>
<filter id="filter0_f_163_309" x="-5.8" y="4.2" width="613.6" height="325.6" filterUnits="userSpaceOnUse" color-interpolation-filters="sRGB">
<feFlood flood-opacity="0" result="BackgroundImageFix"/>
<feBlend mode="normal" in="SourceGraphic" in2="BackgroundImageFix" result="shape"/>
<feGaussianBlur stdDeviation="42.9" result="effect1_foregroundBlur_163_309"/>
</filter>
<clipPath id="clip0_163_309">
<rect width="686" height="347" fill="white"/>
</clipPath>
</defs>
</svg>
