<svg width="79" height="79" viewBox="0 0 79 79" fill="none" xmlns="http://www.w3.org/2000/svg">
<g clip-path="url(#clip0_170_266)">
<path d="M41.852 0.000337286C30.7211 -0.087123 -0.530343 16.8458 0.00683985 37.8145C0.749161 66.7992 23.6548 79.1407 42.9939 78.9988C59.3889 78.8784 78.2611 60.8646 78.9753 43.552C79.7812 24.0305 60.694 0.148414 41.852 0.000337286ZM39.7537 5.38704C48.3775 9.25467 66.7557 16.9056 75.4676 40.3805C70.1167 60.7985 55.3081 66.3398 40.9446 75.2835C32.5061 68.6092 17.2695 73.8915 5.56973 39.9537C8.23564 32.0152 14.8784 16.4227 39.7537 5.38704Z" fill="#1B4A92"/>
<path d="M34.0734 29.7419C34.6324 27.9671 32.922 23.9234 38.2066 15.8053C44.8955 21.0608 45.9353 26.1486 46.0545 28.2246C46.0694 28.4991 48.0491 26.5638 50.4743 26.2362C53.5708 25.8182 54.3335 27.5487 55.8707 28.1728C46.8951 35.9462 45.5066 53.3189 42.5206 64.3799C41.2348 68.6826 40.1932 47.5675 22.2813 31.3871C21.831 30.9804 25.799 27.8145 28.321 27.9846C30.3554 28.1219 32.753 28.6677 34.0734 29.7419Z" fill="#1B4A92"/>
</g>
<defs>
<clipPath id="clip0_170_266">
<rect width="79" height="79" fill="white"/>
</clipPath>
</defs>
</svg>
