<svg width="1057" height="178" viewBox="0 0 1057 178" fill="none" xmlns="http://www.w3.org/2000/svg">
<path d="M165.387 130.055C164.192 130.055 163.104 129.421 162.13 128.159C161.596 126.771 161.329 125.476 161.329 124.288C161.329 123.827 161.369 123.347 161.463 122.846C161.569 122.352 161.656 121.872 161.73 121.404C162.19 119.555 162.777 117.76 163.492 116.011C164.219 114.248 165.02 112.48 165.894 110.697C167.082 108.121 168.437 105.624 169.952 103.221C171.48 100.805 173.136 98.4685 174.917 96.2256C175.305 95.6249 175.718 95.0441 176.145 94.4901C176.573 93.9227 177.12 93.3086 177.801 92.6477C178.582 91.5998 179.436 90.5918 180.363 89.6306C181.284 88.6694 182.179 87.7615 183.033 86.9071C184.168 85.719 185.462 84.3839 186.904 82.902C188.359 81.4068 189.627 80.0651 190.695 78.8703C190.014 79.1907 189.387 79.451 188.799 79.6446C187.338 80.1786 185.896 80.766 184.475 81.4068C183.046 82.0343 181.645 82.635 180.257 83.2225C179.79 83.4227 179.296 83.6497 178.762 83.9167C178.241 84.1837 177.787 84.4507 177.4 84.7177C176.933 84.9847 176.439 85.2383 175.905 85.4653C175.371 85.6989 174.844 85.9459 174.33 86.2129C173.062 86.8738 171.781 87.5079 170.486 88.1087C169.205 88.6961 167.903 89.3502 166.588 90.0578L159.14 94.2498C158.286 94.717 157.298 95.2577 156.177 95.8785C155.056 96.506 154.095 97.0467 153.294 97.5072C151.638 98.5753 150.043 99.5899 148.515 100.551C147 101.499 145.418 102.467 143.763 103.461C140.593 105.437 137.603 107.46 134.793 109.522C131.977 111.572 129.054 113.654 126.01 115.77C123.694 117.426 121.559 118.948 119.603 120.336C117.661 121.725 115.932 122.753 114.424 123.407C113.89 123.674 113.33 123.807 112.742 123.807C112.135 123.807 111.601 123.674 111.14 123.407C110.673 122.873 110.446 122.179 110.446 121.324C110.446 120.597 110.613 119.802 110.954 118.948C111.274 117.813 111.708 116.732 112.262 115.717C112.829 114.689 113.416 113.648 114.024 112.593C114.558 111.598 115.172 110.637 115.866 109.709C116.56 108.788 117.201 107.894 117.788 107.039C118.709 105.584 119.737 104.209 120.858 102.927C121.979 101.632 123.074 100.324 124.141 99.0025C124.796 98.2015 125.436 97.4138 126.064 96.6261C126.684 95.8251 127.332 95.0975 128.012 94.4367C128.867 93.4421 129.721 92.4208 130.575 91.3661C131.443 90.2981 132.31 89.3035 133.165 88.3757C135.547 86.0127 137.897 83.6363 140.213 81.2466C142.522 78.8636 144.898 76.4806 147.34 74.0909C148.922 72.382 150.504 70.6999 152.092 69.0445C153.694 67.389 155.349 65.807 157.058 64.2918C159.173 62.3026 161.256 60.3534 163.305 58.4443C165.347 56.5219 167.429 54.6395 169.552 52.7838C171.347 51.2552 173.156 49.7333 174.971 48.218C176.786 46.6894 178.548 45.1675 180.257 43.6522C181.591 42.4641 183.127 41.1891 184.875 39.834C186.637 38.4857 188.172 37.2441 189.494 36.1227C188.426 36.7101 187.558 37.0438 186.904 37.1106C184.461 37.698 182.152 38.0918 179.963 38.2854C177.787 38.4857 175.345 38.5524 172.622 38.499C171.107 38.4323 169.565 38.3522 168.003 38.2587C166.455 38.1519 164.92 37.965 163.411 37.698C162.344 37.5779 160.962 37.3442 159.274 37.0038C157.598 36.67 156.204 36.403 155.082 36.2028C153.761 35.9358 152.493 35.6421 151.265 35.3217C150.037 34.9879 148.762 34.6808 147.447 34.4138C145.592 34.0267 143.75 33.5728 141.921 33.0521C140.106 32.5181 138.244 32.1176 136.342 31.8506C134.953 31.657 133.572 31.4234 132.204 31.1564C130.849 30.8894 129.481 30.6224 128.093 30.3554C126.437 30.0216 124.742 29.7546 123.02 29.5543C121.312 29.3608 119.63 29.1271 117.975 28.8601C117.12 28.74 116.36 28.6131 115.706 28.4863C115.045 28.3461 114.157 28.2393 113.036 28.1659C111.768 27.8989 110.446 27.6853 109.058 27.5251C107.67 27.3649 106.182 27.2848 104.6 27.2848C103.532 27.218 102.551 27.218 101.663 27.2848C100.769 27.3582 99.8614 27.3916 98.9404 27.3916C98.3531 27.3248 97.6923 27.2848 96.9649 27.2848C96.2307 27.2848 95.5033 27.2848 94.7758 27.2848C94.1885 27.2848 93.5878 27.2848 92.9871 27.2848C92.3998 27.2848 91.8392 27.3515 91.3053 27.4717C91.0383 27.5451 90.7847 27.5785 90.5578 27.5785C90.3242 27.5785 90.0773 27.5785 89.8103 27.5785C87.688 27.5117 85.6257 27.6986 83.6168 28.1392C81.6013 28.5664 79.539 28.9402 77.4233 29.2606C76.1552 29.5276 74.8872 29.8147 73.6058 30.115C72.3244 30.4021 71.0163 30.7158 69.6814 31.0496C68.4868 31.3166 67.2388 31.7171 65.944 32.2511C64.6626 32.7718 63.4613 33.199 62.34 33.5327C60.4846 34.0667 58.736 34.781 57.0809 35.6688C55.4391 36.5632 53.7572 37.431 52.0353 38.2854C49.5793 39.4068 47.2434 40.7018 45.0409 42.157C42.8318 43.6189 40.6695 45.1742 38.5538 46.8296C33.7285 50.8013 29.5305 55.2937 25.9532 60.3134C25.6863 60.7806 25.3793 61.2212 25.0456 61.6484C24.7252 62.0756 24.4316 62.4961 24.1646 62.9033C23.8242 63.3706 23.5039 63.8312 23.2035 64.2918C22.9165 64.759 22.6029 65.2463 22.2692 65.7603C22.0156 66.2276 21.802 66.6881 21.6285 67.1487C21.4683 67.616 21.2881 68.1099 21.0945 68.644C20.8276 68.5772 20.6407 68.5104 20.5339 68.457C20.4405 68.3903 20.327 68.3502 20.1869 68.3502C20.0601 68.2101 20 68.0165 20 67.7628C20 67.4291 20.0934 67.1621 20.2937 66.9618C20.6808 65.9672 21.2147 64.9459 21.8954 63.8912C23.0167 62.2358 24.1512 60.6004 25.3125 58.9783C26.4671 57.363 27.7018 55.821 29.0233 54.3591C29.1434 54.239 29.2702 54.1122 29.397 53.9853C29.5372 53.8452 29.644 53.7384 29.7174 53.6649C30.4449 52.2098 31.3725 51.0082 32.4938 50.0604C33.615 49.0991 34.7362 48.0845 35.8575 47.0165C36.6584 46.2889 37.4859 45.6281 38.3402 45.0407C39.2078 44.4399 40.0021 43.7791 40.7162 43.0648C41.1233 42.6576 41.4236 42.424 41.6238 42.3706C43.279 41.643 44.8407 40.7819 46.3224 39.7806C47.8173 38.7861 49.3524 37.8582 50.9408 37.0038C53.25 35.8824 55.5325 34.8143 57.775 33.7997C60.0308 32.7718 62.3467 31.8906 64.716 31.1564C67.0252 30.3554 69.3211 29.6278 71.6036 28.9669C73.8994 28.3128 76.2353 27.8856 78.6246 27.6853C79.0851 27.6853 79.5323 27.6252 79.9594 27.4984C80.3866 27.3582 80.8271 27.2514 81.2942 27.178C83.6769 26.8576 86.0528 26.5505 88.4221 26.2435C90.8047 25.9431 93.154 25.863 95.4699 26.0032C96.7847 26.0566 98.1195 26.0766 99.4743 26.0566C100.842 26.0232 102.224 26.0032 103.612 26.0032C104.733 26.0032 105.888 26.0432 107.083 26.11C108.271 26.1634 109.465 26.2902 110.66 26.4838C112.369 26.7508 114.13 26.9777 115.946 27.1513C117.761 27.3115 119.53 27.5518 121.258 27.8722C123.234 28.266 125.243 28.5931 127.292 28.8601C129.354 29.1271 131.376 29.4943 133.352 29.9548C135.607 30.4221 137.843 30.9161 140.052 31.4501C142.255 31.9841 144.491 32.5114 146.753 33.0254C149.456 33.7597 152.159 34.3738 154.869 34.8677C157.592 35.3684 160.301 35.8824 163.011 36.4164C164.666 36.6834 166.348 36.8836 168.057 37.0038C169.778 37.1306 171.474 37.1907 173.129 37.1907C173.983 37.1907 174.837 37.184 175.692 37.164C176.559 37.1306 177.427 37.0772 178.281 37.0038C181.058 36.8102 183.781 36.383 186.45 35.7222C189.133 35.068 191.736 34.1068 194.245 32.8385C194.973 32.5047 195.727 32.2377 196.515 32.0375C197.316 31.8439 198.043 31.6837 198.704 31.5569C199.238 31.6837 199.778 31.8639 200.332 32.0909C200.899 32.3245 201.22 32.6716 201.293 33.1322C201.22 33.259 201.186 33.3925 201.186 33.5327C201.186 33.6595 201.12 33.793 201 33.9332C200.733 34.2536 200.446 34.5674 200.145 34.8677C199.858 35.1748 199.585 35.4552 199.318 35.7222C197.856 37.164 196.314 38.5391 194.699 39.834C193.078 41.1157 191.476 42.424 189.894 43.759C188.826 44.5467 187.792 45.3811 186.797 46.2689C185.816 47.1633 184.768 48.0712 183.647 48.9923C181.919 50.5276 180.15 52.0762 178.335 53.6382C176.519 55.1869 174.744 56.7221 173.022 58.2307L170.246 60.8207C163.905 66.4278 157.712 72.1951 151.665 78.1226C145.612 84.0368 139.545 89.9376 133.458 95.8251C131.73 97.6074 130.001 99.423 128.279 101.272C126.571 103.128 124.922 105.01 123.341 106.933C122.286 108.321 121.192 109.709 120.057 111.098C118.936 112.486 117.881 113.915 116.907 115.37C116.44 116.158 115.986 116.932 115.545 117.693C115.118 118.461 114.704 119.235 114.317 120.016C114.244 120.229 114.157 120.416 114.05 120.577C113.957 120.737 113.917 120.89 113.917 121.03C113.917 121.351 114.184 121.611 114.718 121.805C115.639 121.611 116.68 121.104 117.841 120.283C118.996 119.448 119.964 118.734 120.751 118.147C122.406 116.959 124.061 115.704 125.717 114.382C127.372 113.047 129.027 111.819 130.682 110.697C132.531 109.456 134.426 108.187 136.368 106.906C138.324 105.611 140.266 104.329 142.188 103.061C144.891 101.285 147.367 99.6967 149.61 98.3083C151.865 96.9198 154.422 95.3979 157.271 93.7425C159.367 92.5543 161.476 91.3928 163.598 90.2714C165.714 89.15 167.796 88.0552 169.845 86.9872C171.567 86.2062 173.242 85.4052 174.864 84.5842C176.479 83.7498 178.081 82.9688 179.669 82.2345C181.518 81.3133 183.387 80.4856 185.276 79.7514C187.158 79.0238 189.026 78.2695 190.882 77.4818C191.609 77.1481 192.223 76.841 192.724 76.574C193.218 76.307 193.798 76.0533 194.459 75.7997C195.186 75.1989 195.901 74.5848 196.595 73.9573C197.289 73.3165 198.063 72.7692 198.917 72.3019C199.238 72.1818 199.545 72.0216 199.852 71.8213C200.152 71.6277 200.466 71.4942 200.786 71.4208C201.193 71.2272 201.594 71.1271 201.987 71.1271C202.521 71.1271 203.015 71.3273 203.482 71.7145C204.21 72.1083 204.577 72.7425 204.577 73.6102C204.577 73.8105 204.503 74.1042 204.363 74.4914C204.096 74.9586 203.729 75.4192 203.269 75.8798C202.802 76.347 202.314 76.7809 201.8 77.1881C199.218 79.698 196.635 82.2078 194.059 84.7177C191.476 87.2275 188.859 89.7374 186.21 92.2472C184.555 93.9027 182.98 95.6115 181.485 97.3737C180.003 99.1226 178.548 100.858 177.107 102.58C176.039 103.829 175.038 105.063 174.117 106.292C173.189 107.52 172.261 108.795 171.34 110.11C170.072 111.892 168.918 113.741 167.87 115.664C166.815 117.586 165.827 119.609 164.906 121.725C164.693 122.245 164.506 122.886 164.346 123.647C164.186 124.408 164.106 125.156 164.106 125.89C164.106 126.351 164.132 126.798 164.186 127.225C164.252 127.652 164.386 128.026 164.586 128.346C165.314 128.56 165.948 128.667 166.481 128.667C167.476 128.667 168.497 128.3 169.552 127.572C171.006 126.838 172.415 126.057 173.77 125.222C175.118 124.401 176.426 123.474 177.694 122.419C179.469 120.89 181.271 119.335 183.086 117.746C184.902 116.164 186.73 114.542 188.586 112.887C189.921 111.966 191.149 111.018 192.27 110.056C193.391 109.095 194.546 108.121 195.74 107.119C197.322 105.731 198.944 104.343 200.599 102.954C202.254 101.566 203.909 100.177 205.565 98.7889C207.34 97.2803 209.175 95.8451 211.064 94.4901C212.946 93.1417 214.781 91.6331 216.563 89.9777C217.558 89.0565 218.632 88.1821 219.794 87.361C220.948 86.5266 222.049 85.6789 223.104 84.8245C224.225 83.9567 225.38 83.0489 226.574 82.101C227.762 81.1398 228.99 80.1652 230.258 79.164C231.306 78.4364 232.294 77.6621 233.222 76.841C234.143 76.0066 235.144 75.1589 236.212 74.3045C237.333 73.3099 238.494 72.3486 239.709 71.4208C240.937 70.4996 242.178 69.5718 243.446 68.6439C245.368 67.1888 247.584 65.4532 250.094 63.4373C252.603 61.4281 254.846 59.726 256.821 58.3375C258.156 57.3429 259.517 56.335 260.906 55.3204C262.294 54.2924 263.742 53.3712 265.257 52.5702C267.179 50.8614 269.261 49.3928 271.504 48.1646C273.76 46.9364 275.915 45.568 277.964 44.0527C278.819 43.3986 279.706 42.8178 280.634 42.3172C281.555 41.8232 282.516 41.3426 283.517 40.8754C285.026 40.0743 286.48 39.2133 287.869 38.2854C289.257 37.3642 290.739 36.6033 292.327 36.0159C292.467 35.9491 292.621 35.869 292.781 35.7756C292.941 35.6688 293.054 35.582 293.128 35.5086C295.05 34.514 296.979 33.506 298.921 32.4914C300.876 31.4634 302.879 30.5155 304.927 29.6611C306.049 29.2005 307.183 28.6732 308.345 28.0858C309.499 27.485 310.647 26.951 311.788 26.4838C314.098 25.3623 316.42 24.3944 318.756 23.5734C321.105 22.739 323.468 21.8913 325.857 21.0369C328.166 20.1824 330.516 19.3747 332.905 18.6071C335.288 17.8461 337.637 17.1653 339.953 16.5779C341.801 16.1173 343.463 15.67 344.945 15.2428C346.44 14.8023 348.375 14.5486 350.765 14.4952C351.886 14.088 353.034 13.8811 354.208 13.8811C355.396 13.8811 356.564 13.7476 357.706 13.4806C358.026 13.3604 358.346 13.2803 358.667 13.2403C359 13.2069 359.307 13.1869 359.574 13.1869C360.696 13.1869 361.617 13.1602 362.351 13.1068C363.078 13.0401 363.872 13 364.727 13C365.06 13 365.394 13 365.715 13C366.048 13 366.415 13.0401 366.809 13.1068C368.871 13.2336 370.907 13.4472 372.922 13.7476C374.931 14.0346 376.934 14.5153 378.929 15.1894C381.439 16.0439 383.734 17.2387 385.817 18.7673C387.899 20.2826 389.728 22.0982 391.316 24.2142C392.044 25.1955 392.638 26.5505 393.105 28.2727C393.565 30.0016 393.799 31.7571 393.799 33.5327C393.799 34.1201 393.759 34.7209 393.692 35.3217C393.619 35.9091 393.518 36.4698 393.398 37.0038C392.738 40.2479 391.91 42.8779 390.916 44.9072C389.915 46.923 388.94 48.5384 387.979 49.7667C387.031 50.9815 386.164 52.0829 385.363 53.0775C385.236 53.1309 385.042 53.1576 384.776 53.1576C384.362 53.1576 384.162 53.0375 384.162 52.7838C384.162 52.5168 384.362 52.1563 384.776 51.6891C386.09 50.1071 387.292 48.505 388.379 46.883C389.481 45.2676 390.388 43.3585 391.102 41.1691C391.83 38.9796 392.304 36.3029 392.517 33.1322C392.371 31.6236 392.224 30.2686 392.064 29.0737C391.903 27.8855 391.476 26.6707 390.782 25.4424C390.088 24.2142 388.873 22.8124 387.151 21.2238C385.883 20.3026 384.642 19.4281 383.414 18.6071C382.199 17.7727 380.704 17.0251 378.929 16.3643C377.661 16.0438 376.34 15.6901 374.951 15.2962C373.563 14.8891 372.208 14.7222 370.894 14.7889C369.359 14.4552 367.77 14.2816 366.115 14.2816C365.795 14.2816 365.428 14.2816 365.02 14.2816C364.627 14.2816 364.273 14.3217 363.953 14.3884C363.612 14.4618 362.945 14.4819 361.95 14.4418C360.969 14.4084 360.175 14.3884 359.574 14.3884C358.52 14.5887 357.579 14.7222 356.745 14.7889C355.924 14.8624 355.049 14.9224 354.128 14.9758C351.205 15.2428 348.869 15.63 347.107 16.124C345.359 16.6246 343.437 17.1052 341.341 17.5658C338.224 18.3 335.147 19.1611 332.104 20.1557C329.061 21.137 326.051 22.225 323.081 23.4132C318.843 25.0686 314.625 26.8442 310.427 28.7266C306.222 30.6157 302.078 32.5848 297.986 34.6274L293.421 37.0038C292.834 37.2708 292.253 37.5378 291.686 37.8048C291.132 38.0718 290.592 38.4656 290.058 38.9796C289.858 39.1799 289.611 39.3468 289.31 39.4869C289.003 39.6138 288.723 39.7473 288.456 39.8874C287.014 40.6217 285.579 41.4094 284.158 42.2638C282.73 43.1182 281.328 44.0127 279.94 44.9338C279.473 45.2009 279.032 45.4879 278.605 45.7883C278.178 46.0753 277.731 46.3223 277.27 46.5359C275.809 47.1967 274.427 48.0044 273.132 48.9656C271.851 49.9135 270.55 50.8213 269.235 51.6891C268.968 51.8893 268.701 52.0629 268.434 52.2231C268.167 52.3833 267.9 52.5702 267.633 52.7838C264.803 54.6395 262.094 56.4885 259.517 58.3375C256.935 60.1932 254.292 62.1424 251.589 64.1849C250.394 65.1128 249.166 66.0206 247.905 66.9084C246.637 67.8029 245.449 68.7107 244.327 69.6319C243.4 70.2927 242.459 71.0403 241.498 71.8747C240.55 72.6957 239.582 73.5034 238.588 74.3045C238.247 74.5715 237.847 74.8919 237.386 75.2657C236.919 75.6261 236.459 75.9599 235.998 76.2803C234.557 77.4017 233.102 78.5632 231.647 79.7514C230.185 80.9462 228.697 82.101 227.188 83.2224C226.121 84.0769 225.066 84.9046 224.038 85.7056C223.024 86.5066 222.016 87.2676 221.022 87.9751C219.967 88.8496 218.893 89.7307 217.791 90.6185C216.704 91.513 215.602 92.354 214.481 93.155C213.48 94.0095 212.459 94.8572 211.411 95.6916C210.357 96.5126 209.302 97.3137 208.234 98.0946L202.868 102.58C201.353 103.755 199.865 104.977 198.41 106.238C196.968 107.507 195.514 108.762 194.059 110.003C192.991 110.858 191.936 111.705 190.908 112.54C189.894 113.361 188.886 114.208 187.892 115.076C187.304 115.47 186.811 115.864 186.423 116.251C184.234 118.107 182.045 119.956 179.856 121.805C177.681 123.66 175.345 125.369 172.835 126.958C171.981 127.492 171.1 127.973 170.192 128.4C169.298 128.827 168.357 129.241 167.362 129.655C166.648 129.922 165.988 130.055 165.387 130.055ZM270.069 76.574C269.922 76.574 269.782 76.5673 269.642 76.5473C269.515 76.5139 269.388 76.4939 269.268 76.4939C268.074 76.0333 267.319 75.1322 266.999 73.7971C266.999 73.0696 267.213 72.4488 267.64 71.9281C268.067 71.3941 268.547 70.9335 269.081 70.5397C269.402 70.2059 269.755 69.9523 270.149 69.7921C270.556 69.6185 270.99 69.5251 271.457 69.5251C271.651 69.5251 272.018 69.5985 272.552 69.7387C273.473 70.6665 273.94 71.7279 273.94 72.916C273.94 73.1163 273.92 73.3299 273.887 73.5568C273.847 73.7905 273.793 74.0375 273.727 74.3045C272.799 75.8197 271.577 76.574 270.069 76.574ZM236.245 122.419C234.857 122.419 233.375 122.018 231.787 121.217C230.986 120.49 230.392 119.796 229.998 119.135C229.611 118.481 229.411 117.586 229.411 116.465C229.411 116.131 229.411 115.824 229.411 115.557C229.411 115.29 229.438 114.996 229.491 114.676C229.758 113.554 230.259 112.266 230.986 110.804C231.72 109.349 232.414 108.154 233.068 107.226C233.535 106.499 234.129 105.611 234.857 104.556C235.591 103.488 236.612 102.2 237.927 100.685L239.208 99.2962C240.136 98.2482 240.824 97.4405 241.291 96.8664C241.751 96.299 242.319 95.6582 242.999 94.944C244.174 93.9494 245.088 93.1751 245.749 92.621C246.423 92.0537 247.037 91.5731 247.591 91.1792C248.158 90.772 248.872 90.2714 249.727 89.684C250.381 89.2234 251.155 88.8162 252.049 88.4558C252.957 88.082 253.838 87.9618 254.692 88.082C255.493 88.4224 255.893 89.0565 255.893 89.9777C255.893 90.1045 255.893 90.2647 255.893 90.4583C255.893 90.6586 255.853 90.8254 255.787 90.9656C255.446 91.6265 254.966 92.2072 254.345 92.7011C253.718 93.2018 253.144 93.7158 252.61 94.2498C251.949 94.8372 251.282 95.4179 250.608 95.9853C249.947 96.5394 249.259 97.08 248.552 97.6141C247.017 98.8089 245.602 100.037 244.307 101.299C243.026 102.547 241.691 103.929 240.303 105.437C240.109 105.584 239.756 105.958 239.235 106.559C238.701 107.146 238.301 107.6 238.034 107.92C237.306 108.721 236.686 109.522 236.165 110.324C235.631 111.111 235.004 112.059 234.27 113.18C233.936 113.648 233.569 114.195 233.175 114.836C232.788 115.463 232.521 116.064 232.374 116.652C232.181 117.045 232.081 117.506 232.081 118.04C232.081 118.434 232.174 118.854 232.347 119.295C232.508 119.722 232.821 120.096 233.282 120.416C233.802 120.683 234.343 120.89 234.91 121.03C235.464 121.157 236.045 121.217 236.646 121.217C238.034 121.217 239.155 121.024 240.009 120.63C241.197 120.096 242.532 119.575 244.014 119.055C245.509 118.521 246.617 117.953 247.351 117.346C248.078 117.025 248.719 116.718 249.273 116.411C249.84 116.111 250.427 115.797 251.035 115.477C252.083 114.876 253.05 114.222 253.945 113.528C254.832 112.833 255.813 112.219 256.881 111.685C258.323 110.831 259.718 109.943 261.072 109.015C262.441 108.094 263.749 107.166 264.997 106.238C266.332 105.317 267.733 104.309 269.215 103.221C270.71 102.12 272.185 101.045 273.646 99.9904C273.967 99.7234 274.287 99.4564 274.607 99.1894C274.941 98.9224 275.248 98.8289 275.515 98.8957C275.655 98.9691 275.729 99.1026 275.729 99.2962C275.729 99.3696 275.675 99.4764 275.569 99.6166C275.462 99.7434 275.382 99.8702 275.328 99.9904L274.821 100.498C271.971 102.741 269.061 104.943 266.091 107.093C263.115 109.229 259.978 111.225 256.668 113.074C254.812 114.342 252.85 115.55 250.768 116.705C248.686 117.866 246.483 118.968 244.174 120.016C243.707 120.229 243.266 120.456 242.839 120.683C242.412 120.917 241.931 121.097 241.398 121.217C240.61 121.484 239.796 121.751 238.942 122.018C238.074 122.285 237.173 122.419 236.245 122.419ZM294.649 123.3C294.062 123.3 293.462 123.273 292.861 123.22C292.274 123.153 291.713 123.046 291.179 122.899C290.178 122.439 289.497 121.858 289.123 121.164C288.763 120.47 288.589 119.735 288.589 118.948C288.589 117.953 288.763 116.959 289.123 115.957C289.497 114.963 289.817 114.235 290.084 113.768C290.739 112.526 291.266 111.592 291.66 110.964C292.067 110.324 292.601 109.576 293.261 108.721C293.915 107.8 294.596 106.892 295.29 105.998C295.984 105.11 296.658 104.202 297.319 103.275C297.513 103.008 297.673 102.741 297.8 102.474C297.94 102.207 298.107 101.906 298.307 101.566C298.908 100.591 299.215 99.8302 299.215 99.2962C299.215 98.375 298.48 97.9078 297.025 97.9078C295.831 97.9078 294.389 98.1748 292.701 98.7088C291.025 99.2294 289.631 99.7167 288.509 100.177C286.854 100.978 285.159 101.879 283.437 102.874C281.729 103.855 280.641 104.516 280.18 104.85C278.912 105.651 277.517 106.552 275.989 107.547C274.481 108.528 273.159 109.482 272.038 110.404C271.384 110.797 270.53 111.458 269.475 112.379C268.407 113.307 267.119 114.536 265.604 116.064C264.877 116.652 264.343 117.132 264.002 117.506C263.669 117.866 263.268 118.214 262.801 118.547C262.681 118.601 262.501 118.667 262.267 118.734C262.04 118.808 261.86 118.881 261.733 118.948C260.812 118.734 260.178 118.167 259.838 117.239C259.838 117.119 259.824 116.959 259.784 116.758C259.751 116.565 259.771 116.431 259.838 116.358C260.178 115.096 260.605 114.002 261.119 113.074C262.708 111.098 264.129 109.456 265.391 108.134C266.125 107.406 266.872 106.612 267.633 105.758C268.381 104.89 269.328 103.855 270.463 102.66L273.533 99.4831C274.053 98.9691 274.541 98.4618 275.001 97.9612C275.462 97.4672 275.922 96.9866 276.389 96.5193C277.524 95.3312 278.672 94.1697 279.833 93.0483C280.988 91.9268 281.996 90.9322 282.85 90.0578C283.844 89.1366 284.812 88.2822 285.76 87.4945C286.721 86.6935 287.735 85.9326 288.803 85.1983C289.657 84.6109 290.245 84.2571 290.565 84.1303C290.899 83.9901 291.606 83.9167 292.674 83.9167C293.795 84.3839 294.356 85.0781 294.356 85.9993C294.676 86.7336 294.356 87.4812 293.395 88.2422C292.447 88.9898 291.446 89.9376 290.378 91.0724C289.858 91.5397 289.284 92.0203 288.643 92.5142C288.016 92.9949 287.442 93.5022 286.908 94.0362L283.731 97.0266C283.464 97.2269 283.25 97.4405 283.09 97.6675C282.93 97.9011 282.716 98.1481 282.449 98.4151C280.794 100.004 279.152 101.619 277.537 103.275C275.915 104.917 274.32 106.599 272.732 108.321L271.931 109.122C271.878 109.175 271.557 109.456 270.97 109.95C270.369 110.45 269.996 110.771 269.849 110.911C273.359 108.454 276.296 106.419 278.685 104.796C281.068 103.181 282.289 102.367 282.343 102.367C284.265 101.179 286.247 100.117 288.296 99.1894C290.338 98.2682 292.494 97.5473 294.756 97.0266C295.27 96.8865 295.891 96.773 296.625 96.6795C297.352 96.5727 297.986 96.5193 298.52 96.5193C299.515 96.5193 300.322 96.6395 300.95 96.8664C301.57 97.1001 302.184 97.6808 302.792 98.602C303.039 98.9424 303.166 99.5365 303.166 100.391C303.166 101.245 303.039 101.98 302.792 102.58C302.184 104.096 301.57 105.351 300.95 106.345C300.322 107.326 299.548 108.481 298.627 109.816C297.753 110.938 296.932 111.919 296.171 112.753C295.424 113.574 294.743 114.349 294.142 115.076C293.675 115.737 293.268 116.398 292.914 117.052C292.554 117.713 292.307 118.507 292.167 119.428C292.167 119.695 292.207 120.096 292.3 120.63C292.407 121.151 292.761 121.611 293.368 122.018C293.688 122.072 293.995 122.118 294.302 122.152C294.603 122.192 294.916 122.205 295.237 122.205C296.104 122.205 296.972 122.125 297.826 121.965C298.681 121.805 299.435 121.618 300.095 121.404C301.43 121.017 302.698 120.563 303.913 120.043C305.141 119.509 306.382 118.941 307.65 118.334C309.232 117.553 310.974 116.638 312.883 115.584C314.805 114.516 316.433 113.548 317.768 112.673C320.077 111.285 321.913 110.07 323.268 109.015C324.616 107.967 326.318 106.712 328.367 105.25C329.434 104.396 330.542 103.562 331.704 102.741C332.858 101.906 333.999 101.052 335.121 100.177C335.635 99.7901 336.062 99.4964 336.402 99.2962C336.736 99.1026 337.03 98.9691 337.283 98.8957H337.39C338.044 98.8957 338.144 99.1093 337.684 99.5365C337.216 99.9637 336.642 100.411 335.948 100.872C335.254 101.339 334.84 101.639 334.72 101.779C333.452 102.707 332.324 103.568 331.33 104.369C330.349 105.157 329.094 106.105 327.566 107.226C324.789 109.276 322.093 111.198 319.477 112.994C316.874 114.776 314.017 116.425 310.907 117.933C309.252 118.808 307.517 119.629 305.702 120.39C303.886 121.137 302.084 121.818 300.309 122.419C298.313 123.006 296.425 123.3 294.649 123.3ZM356.317 123.3C355.73 123.3 355.13 123.273 354.529 123.22C353.942 123.153 353.381 123.046 352.847 122.899C351.846 122.439 351.165 121.858 350.791 121.164C350.431 120.47 350.257 119.735 350.257 118.948C350.257 117.953 350.431 116.959 350.791 115.957C351.165 114.963 351.485 114.235 351.752 113.768C352.407 112.526 352.934 111.592 353.328 110.964C353.735 110.324 354.269 109.576 354.929 108.721C355.583 107.8 356.264 106.892 356.958 105.998C357.652 105.11 358.326 104.202 358.987 103.275C359.181 103.008 359.341 102.741 359.468 102.474C359.608 102.207 359.775 101.906 359.975 101.566C360.576 100.591 360.883 99.8302 360.883 99.2962C360.883 98.375 360.148 97.9078 358.693 97.9078C357.499 97.9078 356.057 98.1748 354.369 98.7088C352.694 99.2294 351.299 99.7167 350.177 100.177C348.522 100.978 346.827 101.879 345.105 102.874C343.397 103.855 342.309 104.516 341.848 104.85C340.58 105.651 339.185 106.552 337.657 107.547C336.149 108.528 334.827 109.482 333.706 110.404C333.052 110.797 332.198 111.458 331.143 112.379C330.075 113.307 328.787 114.536 327.272 116.064C326.545 116.652 326.011 117.132 325.67 117.506C325.337 117.866 324.936 118.214 324.469 118.547C324.349 118.601 324.169 118.667 323.935 118.734C323.708 118.808 323.528 118.881 323.401 118.948C322.48 118.734 321.846 118.167 321.506 117.239C321.506 117.119 321.492 116.959 321.452 116.758C321.419 116.565 321.439 116.431 321.506 116.358C321.846 115.096 322.273 114.002 322.787 113.074C324.376 111.098 325.797 109.456 327.059 108.134C327.793 107.406 328.54 106.612 329.301 105.758C330.049 104.89 330.996 103.855 332.131 102.66L335.201 99.4831C335.721 98.9691 336.209 98.4618 336.669 97.9612C337.13 97.4672 337.59 96.9866 338.057 96.5193C339.192 95.3312 340.34 94.1697 341.501 93.0483C342.656 91.9268 343.664 90.9322 344.518 90.0578C345.512 89.1366 346.48 88.2822 347.428 87.4945C348.389 86.6935 349.403 85.9326 350.471 85.1983C351.325 84.6109 351.913 84.2571 352.233 84.1303C352.567 83.9901 353.274 83.9167 354.342 83.9167C355.463 84.3839 356.024 85.0781 356.024 85.9993C356.344 86.7336 356.024 87.4812 355.063 88.2422C354.115 88.9898 353.114 89.9376 352.046 91.0724C351.526 91.5397 350.952 92.0203 350.311 92.5142C349.684 92.9949 349.11 93.5022 348.576 94.0362L345.399 97.0266C345.132 97.2269 344.918 97.4405 344.758 97.6675C344.598 97.9011 344.384 98.1481 344.117 98.4151C342.462 100.004 340.82 101.619 339.205 103.275C337.584 104.917 335.988 106.599 334.4 108.321L333.599 109.122C333.546 109.175 333.225 109.456 332.638 109.95C332.037 110.45 331.664 110.771 331.517 110.911C335.027 108.454 337.964 106.419 340.353 104.796C342.736 103.181 343.957 102.367 344.011 102.367C345.933 101.179 347.915 100.117 349.964 99.1894C352.006 98.2682 354.162 97.5473 356.424 97.0266C356.938 96.8865 357.559 96.773 358.293 96.6795C359.02 96.5727 359.655 96.5193 360.188 96.5193C361.183 96.5193 361.99 96.6395 362.618 96.8664C363.238 97.1001 363.852 97.6808 364.46 98.602C364.707 98.9424 364.834 99.5365 364.834 100.391C364.834 101.245 364.707 101.98 364.46 102.58C363.852 104.096 363.238 105.351 362.618 106.345C361.99 107.326 361.216 108.481 360.295 109.816C359.421 110.938 358.6 111.919 357.839 112.753C357.092 113.574 356.411 114.349 355.81 115.076C355.343 115.737 354.936 116.398 354.582 117.052C354.222 117.713 353.975 118.507 353.835 119.428C353.835 119.695 353.875 120.096 353.968 120.63C354.075 121.151 354.429 121.611 355.036 122.018C355.356 122.072 355.663 122.118 355.97 122.152C356.271 122.192 356.584 122.205 356.905 122.205C357.772 122.205 358.64 122.125 359.494 121.965C360.349 121.805 361.103 121.618 361.763 121.404C363.098 121.017 364.366 120.563 365.581 120.043C366.809 119.509 368.05 118.941 369.318 118.334C370.9 117.553 372.642 116.638 374.551 115.584C376.473 114.516 378.101 113.548 379.436 112.673C381.745 111.285 383.581 110.07 384.936 109.015C386.284 107.967 387.986 106.712 390.035 105.25C391.102 104.396 392.21 103.562 393.372 102.741C394.526 101.906 395.668 101.052 396.789 100.177C397.303 99.7901 397.73 99.4964 398.07 99.2962C398.404 99.1026 398.698 98.9691 398.951 98.8957H399.058C399.712 98.8957 399.812 99.1093 399.352 99.5365C398.884 99.9637 398.31 100.411 397.616 100.872C396.922 101.339 396.508 101.639 396.388 101.779C395.12 102.707 393.992 103.568 392.998 104.369C392.017 105.157 390.762 106.105 389.234 107.226C386.457 109.276 383.761 111.198 381.145 112.994C378.542 114.776 375.685 116.425 372.575 117.933C370.92 118.808 369.185 119.629 367.37 120.39C365.554 121.137 363.752 121.818 361.977 122.419C359.981 123.006 358.093 123.3 356.317 123.3ZM331.016 164.659C329.628 164.659 328.393 164.506 327.305 164.205C326.204 163.918 325.323 163.444 324.663 162.79C324.202 162.256 323.808 161.669 323.488 161.028C323.154 160.4 322.947 159.626 322.874 158.705C322.874 157.049 323.688 155.314 325.303 153.498C326.925 151.683 328.981 149.927 331.47 148.238C333.946 146.563 336.569 145.041 339.345 143.673C342.122 142.317 344.631 141.249 346.874 140.468C350.845 139.133 354.482 138.019 357.792 137.131C361.103 136.236 364.3 135.489 367.376 134.888C370.44 134.301 373.643 133.82 376.987 133.446C380.317 133.086 384.001 132.752 388.039 132.432C388.38 132.165 388.747 131.898 389.134 131.631C389.527 131.364 389.895 131.13 390.228 130.936C391.156 130.276 392.084 129.615 393.005 128.96C393.932 128.3 394.86 127.632 395.781 126.958C397.903 125.443 399.979 123.954 402.028 122.472C404.07 120.977 406.119 119.442 408.168 117.853C408.895 117.319 410.037 116.431 411.585 115.183C413.147 113.921 414.922 112.513 416.898 110.964C418.886 109.402 420.855 107.827 422.797 106.238C424.753 104.656 426.508 103.248 428.057 102.02C429.605 100.791 430.713 99.9236 431.394 99.403C431.447 99.3362 431.22 99.4697 430.726 99.8035C430.246 100.124 429.718 100.458 429.151 100.791C428.577 101.112 428.197 101.345 428.003 101.486C426.081 102.734 424.092 103.875 422.05 104.903C420.001 105.918 417.952 106.999 415.91 108.134C415.176 108.454 414.482 108.822 413.828 109.229C413.167 109.623 412.473 110.016 411.745 110.404C409.289 111.725 406.9 112.9 404.591 113.928C402.275 114.963 399.865 115.944 397.356 116.865C396.308 117.259 395.16 117.506 393.912 117.613C392.651 117.706 391.583 117.786 390.709 117.853C389.467 117.786 388.613 117.386 388.146 116.652C387.685 115.997 387.452 115.236 387.452 114.382V113.875C387.452 113.341 387.532 112.88 387.692 112.486C387.852 112.099 388.066 111.632 388.333 111.098C389.067 109.589 389.895 108.134 390.816 106.746C391.743 105.357 392.838 104.069 394.099 102.874C395.614 101.345 397.163 99.8769 398.744 98.4685C400.326 97.0467 401.948 95.6649 403.603 94.3299C404.33 93.7425 405.078 93.1217 405.845 92.4608C406.606 91.7867 407.38 91.1525 408.168 90.5651C408.895 90.0311 409.643 89.5505 410.41 89.1233C411.171 88.6961 412.046 88.4491 413.027 88.3757C413.561 88.4491 413.968 88.5559 414.255 88.6961C414.555 88.8229 414.842 89.0432 415.109 89.3636C415.303 89.7774 415.403 90.2113 415.403 90.6719C415.403 90.8722 415.383 91.0657 415.349 91.2593C415.329 91.4596 415.283 91.6532 415.216 91.8467C415.142 91.9202 415.089 92.027 415.056 92.1671C415.036 92.294 414.956 92.4208 414.816 92.5409C413.961 93.609 412.98 94.5702 411.879 95.4246C410.791 96.279 409.69 97.1468 408.569 98.0146C406.446 99.7968 404.277 101.532 402.055 103.221C399.846 104.897 397.69 106.632 395.568 108.428C394.647 109.215 393.752 110.057 392.898 110.964C392.044 111.859 391.316 112.827 390.709 113.875C390.462 114.342 390.335 114.936 390.335 115.664C390.335 116.004 390.535 116.251 390.923 116.411C391.316 116.571 391.743 116.652 392.204 116.652C392.598 116.652 392.898 116.618 393.112 116.545C393.772 116.425 394.486 116.318 395.247 116.224C395.995 116.118 396.702 115.931 397.356 115.664C399.399 114.936 401.641 113.975 404.084 112.78C406.54 111.592 408.896 110.37 411.158 109.122C412.74 108.394 414.228 107.667 415.616 106.933C417.005 106.205 418.259 105.511 419.381 104.85C422.884 103.268 426.161 101.512 429.205 99.5899C431.714 98.0813 433.509 96.9933 434.597 96.3324C435.699 95.6582 436.479 95.1776 436.947 94.8906C437.407 94.5902 437.934 94.2431 438.522 93.8493C439.71 93.0483 440.884 92.2606 442.046 91.4729C443.2 90.6719 444.141 90.2046 444.875 90.0578C445.262 90.0578 445.596 90.1913 445.863 90.4583C446.13 90.7253 446.397 91.0324 446.664 91.3661C446.984 92.027 446.878 92.6411 446.344 93.2085C445.823 93.7625 445.336 94.3032 444.875 94.8372C443.874 96.032 442.88 96.9933 441.885 97.7209C441.151 98.2415 440.477 98.8156 439.856 99.4564C439.229 100.084 438.555 100.685 437.828 101.272C436.633 102.34 435.438 103.395 434.25 104.423C433.056 105.437 431.874 106.445 430.7 107.44C429.772 108.294 428.831 109.122 427.87 109.923C426.909 110.711 425.961 111.498 425.04 112.299C424.626 112.62 424.213 112.967 423.785 113.341C423.358 113.701 422.911 114.048 422.451 114.382C419.407 116.752 416.31 119.108 413.16 121.458C410.024 123.807 406.813 126.037 403.523 128.159C403.376 128.226 402.976 128.48 402.322 128.907C401.661 129.334 400.967 129.795 400.239 130.296C399.505 130.789 398.911 131.177 398.451 131.444C401.494 130.976 404.551 130.402 407.634 129.708C410.711 129.014 413.968 128.086 417.405 126.931C420.836 125.77 424.62 124.214 428.751 122.259C432.875 120.303 437.521 117.813 442.686 114.783C443.874 114.055 445.396 113.047 447.251 111.765C449.1 110.47 450.655 109.382 451.923 108.508C454.232 106.926 456.014 105.664 457.262 104.716C458.524 103.755 459.545 102.974 460.332 102.367C461.253 101.639 462.148 100.978 463.002 100.391C463.87 99.7901 464.343 99.4564 464.417 99.403C464.61 99.2094 464.964 99.0292 465.485 98.869C466.019 98.6954 466.286 98.7755 466.286 99.1093C466.286 99.3629 465.952 99.71 465.298 100.151C464.637 100.578 464.043 100.992 463.509 101.379C461.587 102.841 459.698 104.249 457.85 105.598C455.994 106.953 454.312 108.154 452.804 109.202C443.207 115.897 433.917 121.211 424.933 125.142C415.943 129.074 406.42 131.697 396.369 133.019L394.793 134.114C393.532 134.968 392.651 135.569 392.151 135.929C391.657 136.303 390.749 136.891 389.428 137.692C387.452 138.933 385.477 140.201 383.501 141.483C381.512 142.778 379.49 144.06 377.441 145.328C375.325 146.57 373.21 147.838 371.087 149.119C368.972 150.414 366.816 151.663 364.627 152.857C361.797 154.386 358.914 155.888 355.977 157.37C353.027 158.865 350.024 160.207 346.981 161.402C344.331 162.256 341.588 163.01 338.758 163.671C335.915 164.325 333.332 164.659 331.016 164.659ZM329.121 163.084C330.262 163.084 331.35 162.977 332.378 162.763C333.392 162.563 334.427 162.343 335.474 162.096C337.79 161.415 340.06 160.634 342.282 159.746C344.491 158.852 346.653 157.884 348.769 156.836C350.284 156.102 351.786 155.354 353.281 154.593C354.776 153.825 356.244 153.018 357.686 152.163C358.88 151.362 360.088 150.595 361.316 149.867C362.544 149.153 363.786 148.432 365.027 147.704C366.562 146.776 368.07 145.815 369.565 144.821C371.047 143.819 372.515 142.831 373.97 141.857C375.879 140.662 377.941 139.354 380.164 137.932C382.373 136.503 384.402 135.162 386.25 133.9C381.966 134.381 378.202 134.848 374.958 135.315C371.721 135.776 368.791 136.263 366.175 136.784C363.559 137.318 360.996 137.912 358.487 138.573C355.977 139.227 353.301 140.021 350.451 140.949C347.554 141.944 344.464 143.199 341.187 144.714C337.917 146.242 334.874 147.931 332.057 149.787C329.248 151.636 327.085 153.552 325.57 155.528C324.843 156.596 324.476 157.724 324.476 158.919C324.476 159.967 324.843 160.921 325.57 161.775C326.284 162.643 327.466 163.084 329.121 163.084Z" fill="#1B4A92"/>
<path d="M542.054 50.6187C542.912 51.0615 543.346 51.7533 543.346 52.685C543.346 53.2385 543.235 53.9534 543.014 54.8251C542.801 55.7014 542.322 56.6055 541.575 57.5371C540.085 59.3451 538.448 61.1117 536.668 62.832C534.897 64.5432 533.016 66.0791 531.024 67.4443C529.903 68.1961 528.796 69.0079 527.703 69.8796C526.606 70.7559 525.471 71.5585 524.291 72.2964C524.042 72.4948 523.636 72.7946 523.073 73.2004C522.52 73.6063 522.022 73.9661 521.579 74.2705C521.515 74.5195 521.436 74.7502 521.339 74.9716C521.252 75.1929 521.178 75.3959 521.118 75.5804C520.366 77.3284 519.615 79.058 518.868 80.7646C518.116 82.4757 517.401 84.233 516.728 86.041L514.846 90.5242C514.413 92.4567 513.947 94.0618 513.445 95.3394C512.951 96.6216 512.453 98.3466 511.95 100.524L511.489 103.143C511.365 103.586 511.222 104.449 511.065 105.726C510.904 106.995 510.761 108.268 510.641 109.545C510.516 110.827 510.424 111.685 510.364 112.128C511.051 111.625 511.752 111.159 512.467 110.726C513.177 110.283 513.666 109.942 513.924 109.693C515.732 108.254 517.378 106.699 518.868 105.025C520.366 103.342 521.708 101.534 522.889 99.6011C523.452 98.7294 523.89 97.7931 524.199 96.7969C524.503 95.8006 524.752 94.8043 524.936 93.8081C525.01 93.4898 525.075 93.0978 525.139 92.6274C525.199 92.1615 525.416 91.8986 525.785 91.834C526.029 91.8986 526.154 92.1477 526.154 92.5905C526.154 93.024 526.089 93.4299 525.969 93.8081C525.66 95.5561 525.213 97.069 524.623 98.3466C524.033 99.615 523.267 100.874 522.336 102.129C521.399 103.374 520.182 104.836 518.683 106.52C518.056 107.138 517.447 107.746 516.857 108.346C516.267 108.936 515.594 109.541 514.846 110.154C514.293 110.597 513.56 111.113 512.651 111.704C511.752 112.294 510.927 112.838 510.18 113.327C509.995 114.646 509.871 115.984 509.811 117.349C509.746 118.161 509.668 118.913 509.571 119.6C509.469 120.292 509.359 121.164 509.239 122.22C509.174 123.031 509.128 123.733 509.091 124.323C509.064 124.913 508.99 125.642 508.87 126.518C508.686 127.007 508.436 127.192 508.132 127.072C507.934 126.947 507.837 126.795 507.837 126.611C507.837 126.486 507.846 126.343 507.874 126.186C507.911 126.025 507.929 125.882 507.929 125.762C508.063 124.332 508.206 123.073 508.353 121.98C508.51 120.887 508.621 119.628 508.686 118.198L509.054 114.176C508.561 114.425 508.031 114.72 507.468 115.061C506.915 115.407 506.444 115.703 506.066 115.947C504.443 116.943 502.746 117.82 500.975 118.567C499.204 119.319 497.507 119.941 495.884 120.43C494.948 120.753 493.809 121.016 492.471 121.223C491.129 121.445 489.746 121.556 488.321 121.556C486.698 121.556 485.121 121.399 483.599 121.094C482.072 120.79 480.814 120.26 479.817 119.508C479.19 119.005 478.701 118.447 478.36 117.829C478.014 117.202 477.687 116.574 477.383 115.947C477.134 114.891 477.014 113.742 477.014 112.497C477.014 110.505 477.336 108.604 477.991 106.796C478.642 104.988 479.495 103.213 480.555 101.464L482.99 97.5348C484.918 95.4224 486.721 93.5221 488.395 91.834C490.078 90.1506 491.826 88.6562 493.634 87.3509C495.008 86.2347 496.022 85.4091 496.677 84.8787C497.327 84.3529 498.121 83.7441 499.057 83.0523C501.367 81.3688 503.724 79.7499 506.122 78.2001C508.52 76.6412 510.959 75.1745 513.445 73.8093C514.819 73.0621 516.304 72.2688 517.89 71.4293C519.476 70.5807 520.924 69.7827 522.243 69.0309C522.303 69.0309 522.336 69.0217 522.336 68.994C522.336 68.9571 522.363 68.9387 522.428 68.9387C523.668 65.5072 525.379 62.3985 527.556 59.6034C529.742 56.7992 532.038 54.5761 534.436 52.9249C536.834 51.2644 538.937 50.4342 540.745 50.4342C541.114 50.4342 541.547 50.4988 542.054 50.6187ZM533.735 60.6181C537.964 56.9422 540.081 54.2301 540.081 52.4821C540.081 52.3622 540.062 52.2053 540.025 52.0208C539.998 51.8364 539.832 51.7441 539.527 51.7441C538.716 51.7441 537.59 52.1684 536.152 53.0171C534.722 53.8565 533.32 54.9543 531.946 56.3195C530.456 57.8231 528.912 59.7095 527.316 61.9834C525.73 64.2618 524.535 66.3005 523.737 68.1085L525.693 66.7986L527.74 65.1935C528.612 64.5801 529.313 64.0681 529.843 63.6622C530.369 63.2564 530.918 62.8413 531.485 62.4077C532.047 61.9649 532.799 61.3699 533.735 60.6181ZM519.624 76.6135C519.684 76.4198 519.758 76.2169 519.845 76.0047C519.942 75.7833 520.113 75.4236 520.362 74.9162C519.67 75.299 518.983 75.7095 518.296 76.1523C517.618 76.5858 517.032 76.9548 516.544 77.2592C514.109 78.6245 511.701 80.0773 509.331 81.6132C506.97 83.1399 504.669 84.7404 502.432 86.41C501.925 86.7928 501.422 87.1572 500.92 87.4985C500.426 87.8444 499.928 88.2318 499.426 88.6608L493.541 93.7158C491.549 95.5884 489.741 97.6086 488.118 99.7856C486.504 101.963 485.042 104.241 483.728 106.612C483.235 107.608 482.797 108.623 482.418 109.656C482.049 110.68 481.8 111.718 481.681 112.774C481.431 115.274 482.086 117.16 483.636 118.438C485.194 119.706 487.288 120.338 489.907 120.338C490.963 120.338 492.052 120.246 493.172 120.061C495.976 119.448 498.586 118.562 501.012 117.405C503.447 116.251 505.974 114.96 508.593 113.53C508.713 113.396 508.852 113.3 508.999 113.235C509.156 113.175 509.267 113.115 509.331 113.051C509.465 111.565 509.594 110.209 509.718 108.992C509.838 107.774 509.995 106.575 510.18 105.394C510.484 103.771 510.751 102.322 510.973 101.04C511.194 99.7625 511.517 98.5634 511.95 97.4426C512.638 94.9612 513.26 92.9041 513.814 91.2806C514.376 89.657 515.068 87.7568 515.879 85.5798C516.442 84.0208 517.051 82.508 517.706 81.0413C518.356 79.5792 518.997 78.1033 519.624 76.6135Z" fill="#A47124"/>
<path d="M730.35 55.7671C730.544 57.0153 730.644 58.3303 730.644 59.7187C730.644 60.3796 730.604 61.0271 730.537 61.6679C730.484 62.2953 730.39 62.9695 730.27 63.6971C730.003 64.892 729.736 66.0668 729.469 67.2216C729.202 68.3831 728.835 69.5178 728.375 70.6393C727.52 72.762 726.246 74.9781 724.557 77.2877C722.862 79.604 721.193 81.5531 719.538 83.1351C718.751 83.8694 717.91 84.577 717.002 85.2712C716.108 85.9654 715.2 86.6463 714.279 87.3004C712.37 88.6888 710.421 90.0172 708.433 91.2788C706.457 92.527 704.408 93.7085 702.292 94.83C700.244 95.898 698.275 96.9126 696.393 97.8738C694.504 98.8351 692.502 99.7095 690.386 100.49C687.997 101.418 685.728 102.186 683.578 102.787C681.443 103.374 679.12 103.935 676.611 104.469C676.464 104.522 676.264 104.549 675.997 104.549C673.894 105.016 671.385 105.417 668.468 105.75C665.565 106.091 662.756 106.258 660.033 106.258C659.766 106.311 659.398 106.331 658.938 106.311C658.471 106.278 657.984 106.258 657.47 106.258C657.203 106.258 656.916 106.258 656.615 106.258C656.308 106.258 656.001 106.285 655.681 106.338H652.691C652.104 106.338 651.543 106.338 651.009 106.338C650.489 106.338 650.062 106.378 649.728 106.445C648.727 106.378 647.846 106.358 647.085 106.391C646.337 106.431 645.496 106.411 644.575 106.338C643.721 106.338 642.854 106.331 641.986 106.311C641.132 106.278 640.237 106.224 639.316 106.151C639.116 106.084 638.816 106.044 638.409 106.044C636.233 105.924 634.631 105.764 633.603 105.564C632.589 105.35 631.314 105.123 629.786 104.869C627.737 104.462 625.735 103.982 623.779 103.428C621.837 102.86 619.908 102.306 617.986 101.772C614.355 100.384 611.499 99.0153 609.417 97.6602C607.334 96.3118 605.633 95.2038 604.318 94.3493L600.34 97.9005C599.072 99.042 597.791 100.157 596.496 101.238C595.214 102.326 593.946 103.428 592.705 104.549C591.777 105.283 590.87 106.044 589.982 106.845C589.088 107.633 588.18 108.421 587.259 109.222C585.871 110.416 584.469 111.611 583.068 112.799C581.679 113.994 580.291 115.149 578.903 116.27C577.582 117.325 576.267 118.366 574.952 119.394C573.631 120.409 572.309 121.45 570.974 122.518C569.533 123.713 568.078 124.888 566.623 126.043C565.161 127.204 563.7 128.379 562.245 129.567C560.536 131.009 558.801 132.404 557.039 133.759C555.29 135.128 553.495 136.469 551.646 137.791C549.791 139.106 547.909 140.441 545.987 141.796C544.065 143.165 542.149 144.506 540.247 145.828C538.979 146.682 537.671 147.537 536.323 148.391C534.968 149.259 533.627 150.16 532.292 151.088C529.922 152.743 527.433 154.272 524.817 155.681C522.201 157.102 519.504 158.277 516.728 159.205C515.266 159.879 513.992 160.393 512.91 160.754C511.822 161.107 510.681 161.368 509.493 161.528C508.299 161.701 506.777 161.888 504.928 162.089C504.074 162.155 503.34 162.209 502.739 162.249C502.152 162.282 501.391 162.329 500.47 162.382C499.008 162.382 497.974 162.396 497.373 162.436C496.786 162.469 496.259 162.449 495.798 162.382C495.404 162.329 494.904 162.282 494.303 162.249C493.716 162.209 493.322 162.122 493.129 161.982C492.595 161.728 492.328 161.401 492.328 160.994C492.328 160.473 492.728 160.113 493.529 159.899C494.256 159.966 494.977 160.039 495.691 160.113C496.419 160.18 497.246 160.22 498.174 160.22C498.581 160.22 499.015 160.22 499.482 160.22C499.943 160.22 500.403 160.18 500.87 160.113C502.325 159.966 503.754 159.799 505.142 159.605C506.53 159.405 507.845 159.138 509.093 158.804C511.796 157.95 514.592 156.642 517.475 154.879C520.359 153.131 522.955 151.502 525.271 149.993C529.702 147.016 533.773 144.012 537.497 140.969C541.235 137.925 545.219 134.814 549.457 131.65C551.306 130.188 553.101 128.706 554.85 127.191C556.612 125.662 558.38 124.167 560.162 122.705C562.352 120.93 564.527 119.047 566.703 117.072C568.892 115.082 571.081 113.193 573.27 111.411C574.318 110.543 575.326 109.642 576.287 108.714C577.248 107.793 578.249 106.939 579.304 106.151C580.832 105.03 582.24 103.775 583.522 102.386C584.816 100.998 586.224 99.7695 587.739 98.7015C587.933 98.5814 588.167 98.3811 588.434 98.1141L596.282 90.8783C596.99 90.2241 597.751 89.5833 598.551 88.9558C599.352 88.315 600.106 87.6675 600.821 87.0067C602.009 86.0855 603.17 85.1376 604.291 84.1764C605.426 83.2152 606.56 82.274 607.681 81.3462C609.19 80.0312 610.758 78.7562 612.38 77.528C613.995 76.2998 615.597 75.0649 617.185 73.8166C618.714 72.6284 620.235 71.4336 621.75 70.2387C623.279 69.0506 624.834 67.8891 626.422 66.7677C627.737 65.8465 629.072 64.9186 630.427 63.9908C631.795 63.0696 633.136 62.1418 634.458 61.2139C636.306 59.8989 638.202 58.6974 640.144 57.6094C642.099 56.508 644.002 55.3932 645.857 54.2718C649.167 52.3494 652.671 50.6138 656.375 49.0652C660.073 47.5166 663.743 46.1749 667.374 45.0334C668.295 44.7864 669.143 44.5795 669.91 44.4193C670.671 44.2457 671.652 44.0922 672.847 43.9654C673.628 43.8252 674.755 43.7518 676.237 43.7518C677.732 43.7518 679.107 43.7518 680.375 43.7518C681.957 43.8986 683.325 44.1656 684.486 44.5528C685.641 44.9466 686.155 45.4072 686.035 45.9412C686.035 46.1415 685.848 46.275 685.474 46.3417C685.113 46.3951 684.673 46.4218 684.139 46.4218C683.672 46.4218 683.245 46.4152 682.858 46.3951C682.464 46.3617 682.137 46.3417 681.87 46.3417C678.486 46.7356 675.757 47.1628 673.674 47.6233C671.592 48.0906 669.817 48.6246 668.362 49.2254C666.92 49.8128 665.432 50.4736 663.903 51.2012C661.267 52.3961 658.818 53.651 656.562 54.966C654.32 56.2877 651.977 57.7362 649.541 59.3182C647.152 60.9202 644.749 62.4956 642.333 64.0442C639.93 65.5928 637.568 67.2616 635.259 69.0372C634.191 69.9116 633.096 70.746 631.975 71.547C630.854 72.3347 629.732 73.1491 628.611 74.0035L620.869 80.3582C620.068 81.0191 619.281 81.6532 618.52 82.254C617.773 82.8414 617.065 83.5356 616.411 84.3366C616.264 84.39 616.077 84.5502 615.85 84.8172C615.617 85.0842 615.37 85.3512 615.103 85.6182C613.515 86.8665 612.066 87.9545 610.752 88.8757C609.43 89.8035 608.082 90.9316 606.694 92.2667L605.492 93.3614C606.347 94.0222 607.348 94.7498 608.509 95.5508C609.664 96.3385 610.278 96.6923 610.351 96.6189C612.006 97.4733 613.428 98.2075 614.622 98.8083C615.81 99.3957 617.065 99.9231 618.387 100.384C619.701 100.851 621.417 101.345 623.539 101.879C626.315 102.807 629.125 103.468 631.975 103.855L635.445 104.255C636.954 104.402 638.228 104.542 639.263 104.682C640.291 104.809 641.299 104.836 642.28 104.763C642.613 104.763 642.927 104.783 643.214 104.816C643.514 104.856 643.835 104.869 644.175 104.869C644.709 104.869 645.203 104.856 645.67 104.816C646.131 104.783 646.558 104.729 646.951 104.656C647.806 104.656 648.66 104.676 649.514 104.709C650.382 104.749 651.25 104.763 652.104 104.763C652.564 104.763 652.991 104.763 653.385 104.763C653.792 104.763 654.226 104.729 654.693 104.656C655.207 104.589 656.142 104.542 657.496 104.522C658.865 104.489 659.879 104.435 660.54 104.362C661.127 104.362 661.801 104.335 662.569 104.282C663.329 104.215 664.444 104.142 665.906 104.068C667.541 103.875 669.249 103.561 671.031 103.134C672.827 102.693 674.849 102.139 677.091 101.478C681.323 100.163 686.061 98.3477 691.294 96.0314C693.336 95.1103 695.405 94.0222 697.487 92.774C699.569 91.5124 701.498 90.2841 703.28 89.0893C705.129 87.7743 706.791 86.5394 708.272 85.3779C709.767 84.2231 711.342 82.8814 712.998 81.3461C713.598 80.8121 714.292 80.0779 715.08 79.13C715.881 78.1688 716.628 77.1942 717.322 76.1929C718.016 75.1983 718.524 74.3372 718.844 73.603C719.378 72.9488 719.858 72.1344 720.286 71.1732C720.713 70.212 721.06 69.4043 721.327 68.7435C721.734 67.7689 722.001 66.781 722.128 65.7797C722.248 64.7851 722.421 63.4568 722.635 61.8013C722.688 60.9469 722.715 60.2727 722.715 59.7721C722.715 59.2781 722.715 58.8309 722.715 58.4371C722.715 57.903 722.715 57.3891 722.715 56.8884C722.715 56.3945 722.648 55.6802 722.528 54.7524C722.328 52.6564 722.001 50.8474 721.54 49.3322C721.073 47.8036 720.479 46.2483 719.752 44.6596C718.557 42.083 717.216 39.8134 715.721 37.8509C714.239 35.8951 712.41 34.0995 710.221 32.4574C708.246 30.9288 706.083 29.487 703.734 28.1319C701.385 26.7835 699.016 25.6755 696.633 24.8211C693.323 23.486 689.879 22.3112 686.302 21.2966C682.738 20.2686 679.18 19.521 675.623 19.0537C674.942 18.987 674.262 18.9069 673.567 18.8134C672.873 18.7066 672.166 18.6199 671.459 18.5464C669.997 18.3529 668.388 18.1726 666.626 18.0124C664.878 17.8522 663.243 17.7387 661.714 17.6653C661.194 17.5986 660.633 17.5585 660.033 17.5585C659.445 17.5585 658.885 17.5585 658.351 17.5585C655.374 17.5585 652.451 17.7454 649.568 18.1192C646.698 18.4797 643.748 18.7267 640.705 18.8668C639.51 18.9202 638.335 19.0004 637.181 19.1071C636.019 19.2006 634.845 19.3742 633.657 19.6412C632.195 19.9082 630.774 20.2286 629.385 20.6024C627.997 20.9628 626.582 21.3099 625.141 21.6437C622.952 22.3045 620.796 22.9387 618.68 23.5394C616.558 24.1268 614.476 24.9479 612.433 25.9959C612.233 26.0693 612.02 26.1561 611.793 26.2629C611.559 26.3563 611.312 26.4631 611.045 26.5833C608.142 27.7781 605.306 29.1866 602.529 30.802C599.753 32.424 597.036 34.0995 594.387 35.8217L593.292 36.4091C590.389 38.138 587.533 40.1138 584.723 42.3366C581.906 44.5461 579.177 46.7088 576.527 48.8249C574.084 50.8741 571.909 53.0569 569.987 55.3665C568.065 57.6828 566.476 59.999 565.235 62.3086C563.847 64.5515 562.672 66.8077 561.711 69.0639C560.75 71.3067 559.976 73.6831 559.388 76.1929C558.921 77.9752 558.574 79.9444 558.347 82.0938C558.114 84.2498 558 86.219 558 87.9946C557.927 89.65 558.053 91.2454 558.374 92.774C558.708 94.2892 559.048 95.4374 559.388 96.2183C559.775 97.807 560.336 99.0686 561.07 100.01C561.798 100.938 562.625 101.792 563.553 102.573C563.94 103.04 564.367 103.361 564.834 103.534C565.295 103.695 565.889 103.975 566.623 104.362C567.157 104.489 567.35 104.756 567.21 105.163C567.01 105.43 566.743 105.564 566.409 105.564C565.021 104.963 563.726 104.195 562.538 103.267C561.364 102.346 560.376 101.225 559.575 99.903C557.6 96.3251 556.612 92.3601 556.612 87.9946C556.665 87.6608 556.672 87.3471 556.639 87.0601C556.619 86.7597 556.612 86.4726 556.612 86.2056C556.732 84.6971 556.839 83.1618 556.932 81.6131C557.039 80.0512 557.419 78.0486 558.08 75.6055C558.027 75.4653 558.06 75.2985 558.187 75.0982C558.774 72.0543 559.762 69.2441 561.15 66.6608C562.552 64.0842 564.073 61.4742 565.715 58.8376C566.783 57.2556 568.071 55.54 569.586 53.6844C571.115 51.8353 572.576 50.24 573.964 48.905C574.745 48.1774 575.713 47.343 576.874 46.3951C578.029 45.4339 579.043 44.6262 579.918 43.9654C581.092 43.0442 582.434 42.0563 583.949 41.0016C585.477 39.9336 586.839 38.9657 588.033 38.0912C589.688 36.9698 591.357 35.8884 593.052 34.8338C594.741 33.7657 596.402 32.7111 598.044 31.6564C599.573 30.7352 601.114 29.8808 602.663 29.0931C604.224 28.2921 605.799 27.5312 607.388 26.7969C607.508 26.6567 607.655 26.5566 607.815 26.5032C607.989 26.4364 608.109 26.363 608.162 26.2896C610.011 25.2416 611.899 24.3338 613.822 23.5661C615.744 22.8052 617.666 22.0909 619.588 21.4301C621.437 20.8427 623.018 20.302 624.34 19.8014C625.655 19.3074 627.47 18.9202 629.786 18.6532L632.375 18.0658C633.497 17.8722 634.498 17.692 635.392 17.5318C636.28 17.3583 637.127 17.2314 637.928 17.158C638.122 17.1046 638.335 17.0779 638.569 17.0779C638.796 17.0779 638.976 17.0445 639.103 16.9711C641.559 16.5839 643.655 16.2368 645.403 15.9298C647.165 15.6294 648.773 15.4492 650.235 15.3958C652.277 15.2556 654.306 15.1421 656.322 15.0487C658.331 14.9419 660.366 14.8551 662.435 14.7817C662.756 14.7817 663.089 14.775 663.45 14.755C663.823 14.7216 664.177 14.7016 664.518 14.7016C664.978 14.7016 665.452 14.7216 665.932 14.755C666.426 14.775 666.907 14.8217 667.374 14.8885C669.096 15.0153 670.771 15.1488 672.393 15.289C674.008 15.4158 675.576 15.576 677.091 15.7696C678.213 15.843 679.334 15.9498 680.455 16.09C681.59 16.2168 682.684 16.4104 683.739 16.6774C685.267 17.0712 686.755 17.3983 688.197 17.6653C689.652 17.9323 691.113 18.3328 692.575 18.8668C693.89 19.3341 695.245 19.7613 696.633 20.1485C698.021 20.5423 699.369 20.9695 700.691 21.4301C702.88 22.3045 705.015 23.219 707.098 24.1803C709.18 25.1281 711.142 26.2295 712.998 27.4911C713.992 28.152 714.973 28.8462 715.934 29.5738C716.895 30.308 717.763 31.1358 718.55 32.0569C718.744 32.3239 718.958 32.5776 719.191 32.8045C719.418 33.0382 719.672 33.2785 719.939 33.5255C722.194 35.7149 724.05 38.1046 725.491 40.6812C726.946 43.2645 728.108 46.1014 728.962 49.1987C729.229 50.2667 729.496 51.3481 729.763 52.4294C730.03 53.5175 730.223 54.6323 730.35 55.7671ZM725.939 125.295C725.258 125.295 724.557 125.262 723.83 125.188C723.115 125.122 722.495 124.962 721.961 124.708C721.5 124.568 721.053 124.381 720.626 124.147C720.199 123.92 719.758 123.667 719.291 123.4C718.223 122.672 717.476 121.818 717.049 120.836C716.622 119.842 716.241 118.687 715.901 117.365C715.901 116.958 715.941 116.457 716.008 115.87C716.081 115.269 716.154 114.769 716.221 114.375C716.475 112.92 716.715 111.932 716.942 111.411C717.176 110.877 717.523 110.25 717.983 109.515C718.59 108.394 719.278 107.353 720.039 106.391C720.786 105.43 721.627 104.462 722.548 103.481C723.082 102.947 723.623 102.413 724.177 101.879C724.744 101.345 725.298 100.851 725.832 100.384C727.54 98.8017 729.336 97.3865 731.224 96.1383C733.106 94.8767 735.075 93.7219 737.124 92.6672C738.779 91.7995 740.475 91.1319 742.223 90.6647C743.985 90.2041 745.787 89.9705 747.642 89.9705C748.37 89.9705 749.011 90.0239 749.565 90.1307C750.132 90.2241 750.686 90.4978 751.22 90.9584C751.807 91.7594 752.101 92.5871 752.101 93.4415C752.101 93.9756 751.941 94.6431 751.62 95.4441C750.426 97.3532 748.964 98.8751 747.242 100.01C744.466 101.986 741.916 103.474 739.607 104.469C737.291 105.45 734.381 106.305 730.877 107.032C730.29 107.106 729.663 107.192 729.009 107.299C728.348 107.393 727.754 107.433 727.22 107.433C726.686 107.433 726.319 107.399 726.125 107.326C725.465 107.793 724.984 108.174 724.684 108.474C724.377 108.781 724.03 109.222 723.643 109.809H723.536C723.069 110.343 722.548 110.957 721.961 111.651C721.373 112.346 720.88 113.093 720.466 113.894C720.079 114.555 719.745 115.303 719.478 116.137C719.211 116.958 719.078 117.759 719.078 118.54C719.078 119.201 719.198 119.848 719.425 120.489C719.658 121.117 720.039 121.691 720.573 122.225C721.427 123.012 722.201 123.506 722.895 123.72C723.589 123.92 724.664 124.08 726.125 124.201C727.313 124.201 728.395 124.107 729.356 123.907C730.317 123.713 731.151 123.52 731.865 123.319C733.053 122.986 734.054 122.679 734.855 122.412C735.656 122.145 736.577 121.878 737.631 121.611C739.747 120.83 741.909 119.895 744.119 118.807C746.341 117.706 748.637 116.558 751.006 115.363C752.928 114.388 754.677 113.353 756.265 112.265C757.867 111.164 759.616 109.956 761.524 108.634C762.392 108.033 763.16 107.486 763.82 107.005C764.474 106.511 765.302 105.897 766.303 105.163C766.817 104.829 767.304 104.496 767.771 104.175C768.232 103.841 768.499 103.768 768.572 103.962C768.692 104.108 768.759 104.275 768.759 104.469C768.759 104.596 768.038 105.216 766.597 106.338C764.741 107.8 763.019 109.081 761.418 110.183C759.829 111.271 758.087 112.399 756.185 113.574C753.996 114.909 751.954 116.077 750.072 117.072C748.183 118.053 746.081 119.101 743.772 120.222C741.329 121.364 738.819 122.398 736.243 123.319C733.66 124.247 731.017 124.868 728.314 125.189C727.901 125.262 727.5 125.295 727.113 125.295C726.719 125.295 726.326 125.295 725.939 125.295ZM726.926 106.445C727.58 106.518 728.555 106.491 729.836 106.365C731.131 106.224 732.012 106.058 732.479 105.857C734.401 105.323 736.176 104.729 737.818 104.068C739.473 103.414 741.129 102.647 742.784 101.772C743.972 101.118 745.06 100.41 746.041 99.6628C747.035 98.9018 747.996 98.0808 748.924 97.2063C749.191 96.9593 749.551 96.452 750.018 95.6844C750.479 94.9234 750.646 94.3093 750.526 93.8421C750.379 93.5216 749.885 93.3614 749.031 93.3614C748.443 93.3614 747.809 93.4282 747.135 93.5483C746.475 93.6752 745.887 93.8087 745.373 93.9489C743.645 94.6097 742.01 95.404 740.461 96.3252C738.913 97.2531 737.371 98.2143 735.843 99.2089C734.381 100.264 732.826 101.385 731.171 102.573C729.529 103.768 728.114 105.056 726.926 106.445ZM884.5 40.9749C884.834 41.242 885.087 41.549 885.247 41.8828C885.408 42.2032 885.521 42.4969 885.595 42.7639C885.521 45.0067 884.927 46.9292 883.806 48.5312C882.685 50.1199 881.463 51.6018 880.149 52.9902C879.147 54.0449 878.08 55.0128 876.945 55.9006C875.824 56.795 874.769 57.7362 873.795 58.7308C872.407 59.8522 871.325 60.7601 870.565 61.4543C869.797 62.1485 868.723 63.0563 867.334 64.1777C866.867 64.645 866.173 65.139 865.252 65.673C864.324 66.207 863.604 66.7076 863.09 67.1682C862.089 67.9025 861.061 68.5766 859.993 69.1974C858.938 69.8249 857.884 70.4657 856.816 71.1199L854.36 72.7219C852.505 73.7232 850.603 74.6644 848.647 75.5522C846.685 76.4466 844.756 77.3545 842.854 78.2756C840.198 79.397 837.488 80.3449 834.712 81.1059C831.935 81.8735 829.192 82.6478 826.489 83.4288C825.829 83.5757 825.195 83.7426 824.594 83.9361C824.007 84.1364 823.379 84.2966 822.725 84.4168C821.584 84.6838 820.416 84.9374 819.228 85.1644C818.053 85.398 816.892 85.5849 815.758 85.7251C814.316 85.9253 812.994 86.5461 811.807 87.5941L808.736 90.2642C807.936 90.945 807.148 91.6126 806.387 92.2667C805.64 92.9276 804.899 93.6218 804.171 94.3494C803.104 95.3306 802.069 96.3185 801.075 97.3131C800.094 98.3144 799.106 99.3691 798.111 100.49C796.99 101.759 795.849 103 794.694 104.229C793.533 105.443 792.398 106.705 791.277 108.02C789.155 110.476 787.406 112.819 786.018 115.042C784.63 117.252 783.936 119.675 783.936 122.305C783.936 123.573 784.283 124.641 784.977 125.509C785.671 126.363 786.712 126.791 788.1 126.791C790.076 126.791 792.238 126.39 794.588 125.589C796.937 124.788 799.246 123.8 801.529 122.625C803.824 121.437 805.907 120.242 807.775 119.047C809.657 117.859 811.139 116.898 812.207 116.164C813.448 115.309 814.77 114.401 816.158 113.44C817.546 112.479 818.868 111.478 820.136 110.423C821.45 109.428 822.845 108.367 824.327 107.246C825.822 106.124 827.103 105.203 828.171 104.469C828.825 104.062 829.326 103.895 829.666 103.962C829.86 103.962 829.96 104.035 829.96 104.175C829.96 104.375 829.559 104.763 828.759 105.35C826.049 107.346 823.473 109.322 821.017 111.278C818.574 113.22 815.931 115.116 813.088 116.965C811.967 117.699 810.425 118.674 808.47 119.902C806.527 121.117 804.385 122.352 802.036 123.613C799.686 124.861 797.317 125.923 794.935 126.791C792.565 127.645 790.383 128.072 788.394 128.072C786.218 128.072 784.45 127.418 783.082 126.096C781.727 124.761 781.053 123.106 781.053 121.13C781.053 120.796 781.066 120.449 781.106 120.089C781.139 119.715 781.193 119.368 781.266 119.047C782.581 113.761 784.923 109.101 788.287 105.056L789.675 103.267C789.422 103.534 789.168 103.801 788.901 104.068C788.634 104.335 788.267 104.669 787.807 105.056L787.112 105.75C784.263 108.334 781.7 110.583 779.424 112.506C777.141 114.415 774.752 116.391 772.243 118.433C771.442 119.114 770.621 119.682 769.787 120.142C768.966 120.609 768.091 121.037 767.17 121.424C766.583 121.691 765.889 121.824 765.088 121.824C764.167 121.824 763.273 121.557 762.419 121.023C761.885 120.489 761.504 119.875 761.271 119.181C761.044 118.487 760.924 117.779 760.924 117.045C760.924 116.798 760.944 116.538 760.977 116.271C761.017 116.004 761.07 115.737 761.137 115.469C761.391 114.014 761.798 112.626 762.365 111.304C762.939 109.989 763.58 108.734 764.287 107.539C765.428 105.884 766.556 104.362 767.678 102.974C768.652 101.712 769.713 100.457 770.854 99.2089C771.368 98.6081 771.922 98.0274 772.51 97.4733C773.11 96.9059 773.744 96.3519 774.405 95.8179C775.132 95.2305 775.847 94.6297 776.541 94.0023C777.235 93.3614 777.942 92.8141 778.676 92.3468C780.452 91.172 782.634 90.0906 785.217 89.0894C785.818 88.8223 786.432 88.6621 787.059 88.6087C787.68 88.542 788.26 88.5019 788.794 88.5019C790.716 88.5019 792.138 88.7956 793.066 89.3831C793.72 89.8503 794.48 90.4778 795.335 91.2788C796.189 92.0665 796.783 93.2213 797.123 94.7499L803.958 87.5941C804.024 87.474 804.224 87.2937 804.545 87.0601C804.879 86.8332 805.085 86.6463 805.159 86.4994L809.03 83.0283C810.485 81.5865 811.993 80.2248 813.541 78.9431C815.09 77.6482 816.625 76.3265 818.16 74.9915C819.815 73.603 821.497 72.2346 823.205 70.8796C824.927 69.5312 826.649 68.1962 828.358 66.8745C830.347 65.3459 832.402 63.884 834.525 62.4956C836.64 61.1072 838.749 59.7187 840.852 58.3303C841.526 57.8697 842.213 57.4625 842.907 57.1021C843.601 56.7283 844.275 56.3144 844.936 55.8472C846.838 54.7257 848.714 53.6577 850.569 52.6431C852.418 51.6151 854.24 50.6005 856.042 49.5992C858.885 48.0172 861.701 46.5687 864.478 45.247C867.254 43.932 870.057 42.7038 872.887 41.5624C874.609 40.9749 876.337 40.4877 878.066 40.0938C878.453 40.0271 878.847 39.9737 879.241 39.9336C879.628 39.9002 880.028 39.8802 880.442 39.8802C881.883 39.8802 883.232 40.2474 884.5 40.9749ZM883.405 46.1282C883.546 45.8611 883.732 45.474 883.966 44.9533C884.193 44.4193 884.18 43.9254 883.913 43.4581C883.499 43.3379 883.199 43.2712 883.005 43.2712C882.271 43.2712 881.463 43.4514 880.576 43.8052C879.681 44.1657 878.974 44.4126 878.44 44.5528C877.386 44.9467 876.304 45.3538 875.183 45.781C874.062 46.2083 872.967 46.6889 871.9 47.2229C870.898 47.6901 869.904 48.2041 868.91 48.7715C867.928 49.3255 866.974 49.8662 866.053 50.4002L859.299 53.8713C858.445 54.3386 857.57 54.8192 856.683 55.3131C855.788 55.8138 854.881 56.3211 853.96 56.8351C852.892 57.4425 851.837 58.0499 850.81 58.6507C849.795 59.2381 848.761 59.8656 847.713 60.5198C846.645 61.1072 845.591 61.748 844.563 62.4422C843.548 63.1364 842.514 63.8239 841.466 64.4981L835.593 68.5566C834.739 69.2175 833.884 69.8316 833.03 70.399C832.176 70.953 831.308 71.5604 830.44 72.2146C829.586 72.8754 828.712 73.5496 827.824 74.2438C826.93 74.9381 826.022 75.6523 825.101 76.3799C823.98 77.3077 822.819 78.2222 821.631 79.13C820.436 80.0245 819.282 80.9323 818.16 81.8535C817.82 82.1205 817.466 82.4276 817.092 82.7613C816.732 83.0817 816.425 83.5023 816.158 84.0162C816.812 84.0162 817.453 83.9895 818.08 83.9361C818.721 83.8694 819.368 83.7693 820.029 83.6424C822.412 83.2353 824.761 82.7346 827.077 82.1472C829.386 81.5465 831.735 80.8522 834.125 80.0646C834.585 79.9244 835.046 79.7709 835.513 79.6107C835.973 79.4505 836.434 79.3036 836.901 79.1568C838.75 78.5026 840.585 77.7616 842.4 76.9406C844.216 76.1062 845.984 75.2985 847.713 74.5109C849.829 73.5897 851.797 72.6018 853.613 71.5471C855.428 70.4791 857.39 69.2175 859.513 67.7556C859.633 67.6889 859.759 67.6088 859.886 67.5153C860.026 67.4085 860.167 67.3284 860.313 67.275C862.022 66.207 863.817 64.9521 865.706 63.5102C867.588 62.055 869.363 60.5932 871.019 59.1313C872.407 57.8697 873.775 56.6749 875.13 55.5535C876.478 54.432 877.786 53.2439 879.054 51.9756C879.835 51.1946 880.636 50.2935 881.457 49.2788C882.291 48.2509 882.938 47.1962 883.405 46.1282ZM793.36 98.5947C793.68 98.3478 794.014 98.0474 794.374 97.6869C794.748 97.3131 795.262 96.8592 795.922 96.3252C795.869 95.8646 795.722 95.3039 795.495 94.6431C795.262 93.9889 794.588 93.1211 793.466 92.0531C793.126 91.7327 792.559 91.5725 791.758 91.5725C790.777 91.5725 789.689 91.8262 788.501 92.3201C787.306 92.8007 786.312 93.308 785.511 93.842C784.189 94.7699 783.088 95.5776 782.201 96.2718C781.306 96.966 780.439 97.6803 779.584 98.4078C779.317 98.6081 779.05 98.8217 778.783 99.0487C778.516 99.2823 778.209 99.5693 777.876 99.9031C776.554 100.958 775.366 102.059 774.298 103.214C773.244 104.375 772.196 105.584 771.148 106.845L768.959 109.622C768.225 110.55 767.571 111.431 766.984 112.265C766.383 113.086 765.822 114.021 765.302 115.069C764.841 116.337 764.608 117.459 764.608 118.433C764.608 119.041 764.675 119.441 764.795 119.635C764.995 120.029 765.395 120.222 765.996 120.222C766.517 120.222 767.004 120.102 767.464 119.848C768.118 119.515 768.666 119.208 769.093 118.941C769.533 118.674 770.187 118.246 771.042 117.659C772.55 116.538 773.851 115.496 774.939 114.535C776.04 113.574 777.222 112.599 778.49 111.598C779.217 111.064 779.878 110.57 780.465 110.103C781.053 109.642 781.613 109.155 782.147 108.634C784.069 106.912 785.951 105.216 787.807 103.561C789.655 101.906 791.504 100.25 793.36 98.5947ZM835.579 133.813C835.259 133.813 834.925 133.793 834.592 133.759C834.271 133.739 833.938 133.693 833.604 133.626C833.017 133.479 832.489 133.279 832.029 133.012C831.562 132.758 831.128 132.504 830.721 132.237C830.4 131.77 830.087 131.356 829.786 130.983C829.479 130.622 829.306 130.155 829.252 129.567C829.179 129.354 829.146 129.147 829.146 128.953C829.146 128.76 829.146 128.566 829.146 128.366C829.146 127.178 829.339 125.983 829.733 124.788C830.067 123.934 830.414 123.099 830.774 122.278C831.148 121.444 831.562 120.663 832.029 119.928C832.416 119.274 832.843 118.647 833.31 118.059C833.771 117.459 834.231 116.858 834.698 116.271C835.499 115.276 836.327 114.348 837.181 113.494C837.962 112.693 838.783 111.905 839.637 111.117C840.505 110.316 841.372 109.555 842.227 108.821C843.028 108.234 843.788 107.713 844.523 107.246C845.25 106.785 845.944 106.325 846.605 105.857C847.332 105.397 847.993 105.016 848.58 104.709C849.181 104.409 849.915 103.962 850.769 103.374C851.497 102.84 852.171 102.44 852.798 102.173C853.419 101.906 853.599 101.518 853.332 100.998C852.618 99.9298 851.957 98.8551 851.357 97.767C850.769 96.6857 850.302 95.6043 849.969 94.5363C849.895 94.0023 849.809 93.4949 849.702 93.0143C849.608 92.5204 849.602 92.0398 849.675 91.5725C848.213 92.5003 846.792 93.3881 845.404 94.2426C844.015 95.097 842.661 95.9647 841.346 96.8325C839.884 97.7604 838.496 98.6682 837.181 99.556C835.86 100.45 834.605 101.318 833.417 102.173C832.95 102.513 832.282 102.987 831.415 103.588C830.561 104.175 829.766 104.702 829.039 105.163C828.719 105.216 828.291 105.477 827.758 105.937C827.224 106.405 826.763 106.538 826.369 106.338C826.249 106.218 826.182 106.118 826.182 106.044C826.182 105.977 826.516 105.684 827.17 105.163C829.146 103.775 830.674 102.72 831.762 101.986C832.863 101.258 834.111 100.43 835.499 99.5026L844.816 93.5483C845.203 93.2813 845.631 92.9876 846.098 92.6672C846.558 92.3335 847.019 92.0264 847.486 91.7594C849.014 90.7648 849.782 90.2642 849.782 90.2642C851.097 85.3913 852.879 81.8134 855.121 79.5306C857.377 77.2343 859.499 76.2197 861.475 76.4867C862.93 76.6135 863.664 77.5013 863.664 79.1567C863.664 80.6186 862.175 82.7346 859.206 85.5115C858.331 86.1723 857.35 86.8866 856.269 87.6475C855.181 88.4152 853.773 89.3564 852.051 90.4778C851.977 90.7448 851.944 91.0518 851.944 91.3856C851.944 91.706 851.944 92.0264 851.944 92.3468C851.944 93.2213 852.024 94.0557 852.184 94.8567C852.358 95.6443 852.678 96.3252 853.145 96.9126C853.679 97.7136 854.2 98.4479 854.721 99.1021C855.054 99.4959 855.368 99.9231 855.655 100.384C855.955 100.851 856.175 101.545 856.322 102.466C856.122 103.341 855.802 104.028 855.361 104.522C854.934 105.003 854.387 105.584 853.733 106.258C853.072 107.045 852.345 107.766 851.544 108.421C850.756 109.081 849.969 109.749 849.168 110.423L847.486 111.812C846.899 112.279 846.298 112.773 845.697 113.307C845.11 113.827 844.523 114.348 843.935 114.882L840.652 117.846C838.796 119.648 837.008 121.664 835.286 123.907C835.159 124.174 834.999 124.441 834.805 124.708C834.605 124.962 834.438 125.215 834.298 125.482L833.497 126.871C833.297 127.211 833.083 127.645 832.856 128.179C832.623 128.7 832.509 129.314 832.509 130.048C832.509 130.435 832.543 130.742 832.616 130.956C832.81 131.47 833.337 131.93 834.191 132.344C834.992 132.538 835.82 132.638 836.674 132.638C837.275 132.491 838.302 132.271 839.744 131.97C841.199 131.683 842.627 131.209 844.015 130.555C844.423 130.355 844.843 130.168 845.27 129.995C845.697 129.834 846.138 129.654 846.605 129.461C847.139 129.26 847.619 129.067 848.047 128.873C848.474 128.66 848.881 128.433 849.275 128.179L851.063 127.271C853.446 126.083 855.815 124.828 858.164 123.506C860.514 122.191 862.903 120.636 865.346 118.834C866.267 118.246 867.194 117.679 868.122 117.125C869.043 116.558 869.937 115.943 870.792 115.283C872.32 114.288 873.975 113.147 875.757 111.865C877.532 110.57 879.288 109.322 881.016 108.127C882.011 107.399 882.765 106.839 883.285 106.445C883.819 106.058 884.313 105.657 884.78 105.243C885.114 104.996 885.641 104.642 886.355 104.175C887.083 103.715 887.557 103.641 887.77 103.962C887.824 104.035 887.85 104.108 887.85 104.175C887.85 104.302 887.73 104.462 887.503 104.656C887.27 104.856 887.056 105.023 886.863 105.163C884.42 107.072 881.824 109.035 879.067 111.064C876.324 113.08 873.601 114.949 870.898 116.671C869.043 117.846 867.194 119.067 865.346 120.329C863.49 121.597 861.581 122.785 859.606 123.907C857.417 125.295 855.208 126.59 852.985 127.778C850.776 128.973 848.514 130.028 846.205 130.956C844.549 131.81 842.761 132.491 840.839 133.012C838.93 133.546 837.181 133.813 835.579 133.813ZM852.558 88.6888C854.674 87.4272 856.202 86.3859 857.15 85.5649C858.111 84.7505 859.219 83.6691 860.487 82.3341C861.535 81.2127 862.062 80.2648 862.062 79.4772C862.062 79.07 861.862 78.8297 861.475 78.7562C860.814 78.7562 860.2 78.8897 859.633 79.1567C859.079 79.4237 858.631 79.7308 858.298 80.0646C857.05 81.1192 855.848 82.3742 854.694 83.8293C853.533 85.2912 852.825 86.9133 852.558 88.6888ZM884.36 123.106C884.113 123.106 883.839 123.106 883.532 123.106C883.232 123.106 882.945 123.072 882.678 122.999C880.903 122.291 879.815 121.037 879.421 119.234C879.354 118.914 879.314 118.607 879.314 118.3C879.314 117.999 879.314 117.712 879.314 117.445C879.314 116.664 879.388 115.89 879.528 115.122C879.655 114.361 879.848 113.587 880.115 112.799C880.315 112.265 880.542 111.745 880.809 111.224C881.076 110.69 881.337 110.156 881.583 109.622C881.997 108.821 882.411 108.073 882.838 107.379C883.265 106.685 883.712 105.977 884.173 105.243C884.44 104.923 884.694 104.569 884.92 104.175C885.154 103.768 885.401 103.428 885.668 103.161C886.135 102.647 886.589 102.079 887.056 101.452C887.517 100.811 887.977 100.264 888.444 99.7963C888.765 99.4759 889.072 99.2022 889.379 98.9686C889.679 98.7216 889.993 98.4345 890.313 98.1141C890.847 97.6536 891.361 97.2063 891.861 96.7791C892.355 96.3519 892.863 95.938 893.383 95.5242C893.844 95.2038 894.211 94.9301 894.478 94.6965C894.745 94.4695 895.178 94.1224 895.786 93.6551C896.64 90.4711 898.202 87.7143 900.484 85.378C902.76 83.0283 905.984 81.3195 910.148 80.2515C910.876 80.0579 911.703 79.9578 912.631 79.9578C914.159 79.9578 915.761 80.2648 917.436 80.8656C919.125 81.453 920.506 82.4075 921.574 83.7225C923.209 85.378 924.03 87.5007 924.03 90.0773C924.03 91.0785 923.87 92.1332 923.55 93.2546C923.083 94.9101 922.355 96.4854 921.361 97.9806C920.36 99.4625 919.238 100.831 917.997 102.093C916.996 103.147 916.101 104.055 915.301 104.816C914.513 105.564 913.525 106.405 912.337 107.326C911.87 107.74 911.336 108.14 910.736 108.527C910.148 108.921 909.387 109.482 908.466 110.209C908.853 110.41 909.568 110.637 910.602 110.904C911.63 111.171 912.845 111.371 914.233 111.491C915.674 111.565 917.183 111.638 918.771 111.705C920.373 111.778 921.334 111.778 921.654 111.705C922.776 111.638 924.044 111.504 925.472 111.304C926.893 111.111 928.529 110.743 930.384 110.209C931.572 109.822 932.52 109.489 933.214 109.222C933.908 108.955 934.635 108.627 935.403 108.234C936.164 107.846 937.205 107.286 938.526 106.552C938.847 106.358 939.22 106.111 939.647 105.804C940.088 105.504 940.642 105.123 941.303 104.656C941.57 104.536 941.863 104.355 942.184 104.122C942.517 103.895 942.751 103.841 942.878 103.962C943.071 104.035 943.171 104.168 943.171 104.362C943.171 104.489 942.938 104.756 942.477 105.163C941.089 106.218 939.754 107.086 938.473 107.78C937.191 108.474 936.184 109.021 935.456 109.408C933.801 110.143 932.359 110.71 931.131 111.117C929.903 111.511 928.795 111.805 927.821 111.998C925.505 112.466 923.503 112.713 921.814 112.746C920.119 112.786 918.718 112.799 917.596 112.799C916.135 112.799 914.326 112.653 912.177 112.346C910.041 112.045 908.44 111.665 907.372 111.197C907.052 111.464 906.684 111.751 906.277 112.052C905.884 112.359 905.53 112.606 905.209 112.799C903.821 113.921 902.326 114.949 900.725 115.87C899.136 116.798 897.554 117.726 895.973 118.647C894.918 119.234 893.844 119.835 892.742 120.436C891.655 121.023 890.553 121.584 889.432 122.118C888.578 122.458 887.71 122.705 886.843 122.866C885.988 123.026 885.161 123.106 884.36 123.106ZM907.292 109.515C908.266 108.928 909.14 108.307 909.908 107.646C910.669 106.972 911.383 106.338 912.044 105.75C913.232 104.756 914.34 103.788 915.354 102.84C916.382 101.879 917.423 100.771 918.477 99.5026C919.812 97.974 920.733 96.5121 921.254 95.1237C921.788 93.7352 922.188 92.3869 922.455 91.0652C922.575 89.5566 922.442 88.1548 922.055 86.8732C921.661 85.5782 920.7 84.4635 919.172 83.5356C918.971 83.3955 918.644 83.2019 918.184 82.9482C917.717 82.6812 917.423 82.5143 917.303 82.4409C916.569 82.1072 915.808 81.8535 915.007 81.6933C914.219 81.5331 913.465 81.453 912.738 81.453C912.471 81.453 912.184 81.473 911.883 81.5064C911.597 81.5464 911.323 81.5865 911.056 81.6399C910.128 81.7133 908.92 82.0004 907.425 82.4943C905.944 82.995 904.542 83.7693 903.207 84.8173C901.819 85.8853 900.705 87.0534 899.87 88.315C899.049 89.5633 898.248 90.9784 897.468 92.5604C898.122 92.1733 898.709 91.8262 899.23 91.5191C899.763 91.2187 900.257 90.9317 900.725 90.6647C901.132 90.3977 901.512 90.1841 901.872 90.0239C902.246 89.8637 902.593 89.7168 902.914 89.57C904.302 88.8624 905.456 88.4686 906.384 88.3951C907.505 88.2016 908.526 88.1014 909.454 88.1014C911.109 88.1014 912.237 88.3017 912.845 88.6888C913.699 88.9559 914.353 89.3564 914.82 89.8904C915.281 90.411 915.648 90.9984 915.915 91.6526C915.968 91.7995 915.995 92.0264 915.995 92.3468C915.995 92.7607 915.795 93.0944 915.407 93.3614C914.94 93.4883 914.48 93.5684 914.019 93.6018C913.552 93.6418 913.058 93.6218 912.524 93.5483C910.615 93.5483 908.934 94.1091 907.479 95.2305C906.624 95.6977 905.944 96.0983 905.45 96.432C904.949 96.7524 904.409 97.1796 903.821 97.7136C902.753 98.5147 901.792 99.3023 900.938 100.063C900.084 100.811 899.316 101.552 898.642 102.279L900.538 104.763C900.925 105.156 901.372 105.564 901.873 105.991C902.366 106.418 903.02 106.939 903.821 107.539C904.529 108.007 905.063 108.314 905.423 108.474C905.797 108.634 906.417 108.981 907.292 109.515ZM884.573 121.824C885.107 121.824 885.641 121.784 886.175 121.691C886.689 121.584 887.083 121.497 887.35 121.424C889.325 120.569 891.448 119.548 893.73 118.353C896.026 117.165 898.222 115.89 900.324 114.535C902.44 113.187 904.302 111.838 905.904 110.503C905.223 110.116 904.369 109.669 903.341 109.168C902.326 108.674 901.325 107.993 900.351 107.139C899.743 106.485 899.136 105.791 898.535 105.056C897.948 104.329 897.421 103.695 896.96 103.161C896.3 103.695 895.666 104.168 895.065 104.576C894.478 104.97 893.917 105.397 893.383 105.857C892.916 106.251 892.509 106.658 892.155 107.086C891.795 107.513 891.354 107.96 890.82 108.421C890.553 108.688 890.246 108.975 889.913 109.275C889.592 109.582 889.259 109.889 888.925 110.209C888.264 110.87 887.51 111.731 886.656 112.799C885.801 113.854 885.147 114.775 884.68 115.576C884.346 116.044 883.926 116.718 883.425 117.606C882.932 118.5 882.678 119.341 882.678 120.142C882.678 120.803 882.885 121.33 883.292 121.717C883.492 121.791 883.706 121.824 883.933 121.824C884.166 121.824 884.38 121.824 884.573 121.824Z" fill="#1B4A92"/>
</svg>
