<svg width="81" height="32" viewBox="0 0 81 32" fill="none" xmlns="http://www.w3.org/2000/svg">
<g clip-path="url(#clip0_157_280)">
<path d="M37.5967 31.7894C37.0871 31.688 36.4305 30.965 35.9761 30.0048C35.1509 28.2613 34.9601 28.1529 33.8899 28.8194C33.3797 29.1372 32.7414 29.1091 31.566 28.717C29.3608 27.9812 28.3503 26.001 28.9814 23.6522C29.2217 22.7578 29.6736 21.7347 29.9858 21.3787C31.014 20.2056 30.585 20.2177 27.9287 21.4366C24.7298 22.9046 24.3089 22.919 23.0101 21.6045C22.2287 20.8137 22.0433 20.3035 22.2282 19.4519L22.4704 18.3358L19.5232 18.316C16.4211 18.2952 16.6949 18.4007 10.5896 14.8796C8.93232 13.9238 7.66308 12.7353 6.2409 10.8076C5.13631 9.31025 3.68273 7.49054 3.01067 6.76374C2.33865 6.03692 1.78881 5.23324 1.78881 4.97783C1.78881 4.72239 1.34066 3.97438 0.792899 3.31555C0.24514 2.65675 -0.0999911 1.84592 0.0259244 1.51378C0.347005 0.66701 2.08771 0.751271 2.37258 1.62737C2.72171 2.70145 6.51815 4.19598 8.87862 4.1886C9.99273 4.18541 12.7274 3.78817 14.9556 3.30648C19.5022 2.32362 20.7916 2.30193 24.0376 3.15367C25.6095 3.56613 26.6546 4.14695 27.4646 5.05817C28.1715 5.85338 29.2075 6.48361 30.098 6.65996C30.9053 6.81989 31.8394 7.02147 32.1737 7.10795C32.5814 7.21347 32.752 6.99545 32.6923 6.44512C32.5688 5.30997 34.1036 1.53463 35.0353 0.681238C36.0489 -0.247094 38.6157 -0.222719 40.21 0.730353C41.3663 1.42167 41.5765 1.43193 42.7968 0.856515C43.8675 0.351594 44.4656 0.316567 45.8819 0.675784C47.9362 1.19685 48.5486 1.91557 49.2298 4.60571L49.7297 6.57978L51.8359 5.37679C53.9352 4.17772 53.9498 4.17575 56.3259 4.77339C57.637 5.10316 60.2891 6.03294 62.2194 6.83962L65.7291 8.30627L69.7144 7.85393C72.4208 7.54674 74.0519 7.14944 74.7974 6.61582C75.4011 6.18366 76.4386 5.83005 77.1029 5.83005C77.7673 5.83005 78.4235 5.64554 78.5613 5.42002C78.9294 4.81721 80.6689 4.92062 80.9112 5.55965C81.2118 6.35243 80.7835 6.84539 79.0978 7.64671C78.2222 8.06297 76.3027 9.89366 74.4387 12.0904C72.6953 14.1451 70.4831 16.6985 69.5228 17.7646C67.1554 20.393 64.0018 21.6443 58.2534 22.2361C55.8411 22.4844 53.772 22.839 53.6553 23.024C53.4246 23.3899 51.4534 23.7573 47.9967 24.0789C45.8673 24.277 45.1571 24.7152 45.1441 25.8389C45.1257 27.4196 42.2268 30.9887 40.386 31.697C39.3937 32.0789 39.1012 32.0887 37.5967 31.7894ZM41.231 29.2553C41.6446 28.8873 42.3451 27.8681 42.7878 26.9903C43.4708 25.6359 43.5152 25.2482 43.0814 24.4277C42.5571 23.4363 41.74 23.2878 39.8712 23.8444C38.4807 24.2585 35.5368 23.3228 34.2234 22.0493C32.8097 20.6785 32.3271 20.7264 31.359 22.3334C30.3925 23.9375 30.3324 25.4197 31.1838 26.6499C32.0207 27.8592 33.4477 27.8033 34.9766 26.5013C36.6339 25.0899 37.2471 25.363 37.0985 27.4464C36.9039 30.1739 39.1119 31.1404 41.231 29.2553ZM52.329 21.8879C53.565 21.2019 53.4771 20.6464 51.9238 19.3278L50.6071 18.21L51.468 17.2478C53.8334 14.6041 53.7928 12.9667 51.3283 11.6318C50.62 11.2482 50.155 11.294 48.9747 11.8637C47.5533 12.5497 47.5123 12.631 47.756 14.2754C48.0336 16.1491 47.1806 18.9489 45.8864 20.4122C44.947 21.4744 44.9336 22.1257 45.8468 22.3274C47.3227 22.6535 51.4542 22.3734 52.329 21.8879ZM38.6555 21.2065C39.3354 19.9206 38.9043 19.416 37.9065 20.3299C36.9723 21.1856 35.8199 20.8041 35.8199 19.6391C35.8199 18.8271 35.7785 18.8169 35.1337 19.4695C34.4889 20.1221 34.5054 20.2262 35.4069 21.1974C36.6399 22.5257 37.9559 22.5294 38.6555 21.2068V21.2065ZM41.8968 21.4932C41.8968 21.313 42.5063 20.9425 43.2512 20.6699C45.322 19.9121 46.1998 17.3107 44.3847 17.3107C43.4763 17.3107 42.7071 18.0959 42.7071 19.0233C42.7071 19.424 42.2513 20.0541 41.6943 20.4235C40.5587 21.1766 40.3718 21.8209 41.2891 21.8209C41.6234 21.8209 41.8968 21.6735 41.8968 21.4932ZM27.501 20.0799C30.8054 18.2202 31.6554 17.3709 31.926 15.6586C32.0749 14.7158 32.4781 13.3938 32.822 12.7209C34.6763 9.09172 28.7009 6.22075 26.3199 9.59691C25.6696 10.5189 25.6981 10.5881 27.3424 12.0816C28.7917 13.3979 28.9582 13.7103 28.5052 14.2627C28.2143 14.6174 27.6384 14.8181 27.2252 14.7088C26.1413 14.4219 23.6659 17.1072 23.6659 18.5701C23.6659 20.5863 24.0603 21.1055 25.3876 20.8369C26.0476 20.7033 26.9986 20.3626 27.501 20.0799ZM64.626 19.3089C66.8735 18.4465 68.0787 17.3551 71.5475 13.0408C73.4884 10.6268 74.1385 9.25038 72.7881 10.4142C72.3981 10.7503 71.441 11.2755 70.6612 11.5813C69.8813 11.8871 69.0974 12.3787 68.9192 12.6739C68.741 12.969 68.1273 13.2105 67.5553 13.2105C66.6584 13.2105 66.5426 13.3546 66.7134 14.2587C66.9347 15.4309 66.136 16.4906 65.0309 16.4906C64.6401 16.4906 63.887 16.9573 63.3575 17.5278C62.828 18.0982 62.1804 18.4816 61.9183 18.3798C61.6563 18.278 61.2532 18.386 61.0227 18.619C60.5086 19.1394 59.7226 18.7057 59.7226 17.9015C59.7226 17.0593 59.1931 17.1714 58.5954 18.1401C58.1731 18.8244 57.9374 18.8904 57.2479 18.5169C56.2695 17.987 56.2741 17.9835 55.9087 19.5215L55.627 20.7072L59.0332 20.4275C60.9066 20.2736 63.4234 19.7703 64.626 19.3089ZM41.2638 17.8926C42.0119 17.1356 41.7558 16.4906 40.7071 16.4906C39.8142 16.4906 38.8908 17.5205 39.2525 18.1127C39.6325 18.7351 40.5283 18.6371 41.2638 17.8926ZM54.5581 17.4994C54.6823 16.8423 54.5877 16.5138 54.3015 16.609C53.7392 16.7962 53.4446 18.5407 53.9754 18.5407C54.1877 18.5407 54.4499 18.0722 54.5581 17.4994ZM37.8455 16.6615C37.8455 16.3044 37.629 16.0853 37.3644 16.1746C36.6132 16.428 36.4886 17.3107 37.204 17.3107C37.5568 17.3107 37.8455 17.0185 37.8455 16.6615ZM22.7956 15.6434C22.933 14.6841 22.9097 14.674 22.1561 15.3642C21.0057 16.4178 20.293 16.2786 20.5258 15.0458C20.7945 13.6232 20.2313 13.4122 18.8403 14.4146C17.2469 15.5629 17.0511 15.4896 17.3537 13.8575C17.6129 12.4591 16.9761 11.4037 16.4213 12.3122C15.9011 13.1641 14.043 13.6218 13.5493 13.0197C13.2352 12.6368 13.2255 12.3806 13.5177 12.1977C14.2106 11.7644 14.002 10.4013 13.1742 9.95297C12.5373 9.608 12.2253 9.77627 11.3511 10.9362C10.771 11.7059 10.2964 12.4983 10.2964 12.6971C10.2964 12.8959 10.8889 13.3736 11.6131 13.7586C12.3373 14.1436 13.5387 14.8502 14.283 15.329C16.0453 16.4624 17.6854 16.8359 20.4247 16.7274C22.4453 16.6474 22.6663 16.5464 22.7956 15.6434ZM34.4144 15.6912C34.2653 15.447 33.9541 15.3655 33.7229 15.5101C33.4507 15.6804 33.4922 15.8917 33.8405 16.1095C34.4907 16.5162 34.7866 16.3005 34.4144 15.6912ZM62.4913 15.3134C62.6471 14.204 61.9973 14.4336 61.3117 15.73C60.9371 16.4384 60.9825 16.5423 61.6134 16.4205C62.0287 16.3404 62.4156 15.8524 62.4913 15.3134ZM45.9624 15.4482C46.3655 14.9565 46.3728 14.7063 45.9951 14.3241C45.6174 13.9418 45.4243 13.9684 45.1272 14.4438C44.2593 15.8333 44.9578 16.6732 45.9624 15.4482ZM43.5031 14.4675C44.0779 13.3804 44.036 13.2104 43.1933 13.2104C42.3401 13.2104 41.4917 13.9669 41.4917 14.7275C41.4917 15.5547 43.0336 15.3553 43.5031 14.4675ZM40.1174 14.133C40.8955 13.0956 40.8058 12.8004 39.7119 12.8004C38.835 12.8004 38.2507 13.4697 38.2507 14.474C38.2507 15.1225 39.5537 14.8845 40.1174 14.133ZM58.5081 13.8229C58.9547 12.6341 59.5898 12.4877 59.8317 13.518C59.9648 14.0847 60.0966 13.9985 60.459 13.1079C60.9815 11.824 61.0605 11.7948 62.1488 12.4827C62.8147 12.9035 63.0337 12.8602 63.4999 12.215C63.8058 11.7915 64.2496 11.5661 64.4862 11.7141C65.1024 12.0995 66.2047 11.5847 66.2047 10.9114C66.2047 10.2364 66.685 10.1704 67.2723 10.7647C67.5613 11.0572 68.2967 10.9267 69.6389 10.3443C70.7099 9.87975 71.5147 9.43192 71.4275 9.34919C71.3402 9.26642 70.3832 9.33681 69.3006 9.50624C66.8206 9.89366 63.0673 9.19891 60.1278 7.80829C58.9022 7.22853 56.9463 6.52876 55.7812 6.25328C53.8547 5.79777 53.5428 5.8281 52.3376 6.58798C50.9462 7.46522 49.8082 8.95454 50.3116 9.2395C50.4741 9.33158 51.0629 9.51893 51.62 9.65588C52.8695 9.96312 54.9623 12.5596 54.9623 13.8026C54.9623 14.5851 55.1949 14.7293 56.5432 14.7828C57.8836 14.8359 58.1824 14.69 58.5081 13.8229ZM64.9893 13.9821C64.9893 13.7566 64.807 13.6861 64.5842 13.8255C64.3614 13.9648 64.1791 14.2634 64.1791 14.4889C64.1791 14.7144 64.3614 14.7849 64.5842 14.6455C64.807 14.5062 64.9893 14.2076 64.9893 13.9821ZM25.6915 12.8362C25.6915 12.6462 25.4181 12.2611 25.0839 11.9804C24.1156 11.1671 24.3738 9.66678 25.756 8.07354L27.0358 6.59829L26.2114 5.76396C24.5153 4.04737 18.9669 3.51069 15.1675 4.6957C14.3927 4.93735 12.3379 5.24529 10.6012 5.38005C8.86443 5.51487 7.43653 5.80955 7.42811 6.03507C7.41876 6.26056 8.28956 6.60205 9.36112 6.79392C10.4326 6.98576 12.0007 7.50933 12.8457 7.95739C14.0016 8.57035 14.5166 8.65889 14.926 8.31507C15.3505 7.95849 15.5237 8.07493 15.7148 8.84519C15.9773 9.90373 17.5177 10.5763 18.1694 9.91684C18.8326 9.24555 19.2094 9.4732 19.2094 10.5453C19.2094 11.7272 20.4039 11.969 21.2351 10.9553C22.1267 9.86809 22.8556 10.2278 22.8556 11.755C22.8556 13.38 23.8112 14.2001 24.9721 13.5713C25.3678 13.3569 25.6915 13.0262 25.6915 12.8362ZM36.9446 13.5482C37.2925 13.196 37.301 12.9195 36.9758 12.5231C36.3936 11.8132 35.6335 11.8344 35.0242 12.5774C34.0681 13.7432 35.8578 14.648 36.9444 13.5481L36.9446 13.5482ZM15.9684 11.5703C15.9684 11.3448 15.7968 11.1603 15.5872 11.1603C15.3775 11.1603 15.0933 11.3448 14.9556 11.5703C14.8178 11.7959 14.9892 11.9804 15.3368 11.9804C15.6841 11.9804 15.9684 11.7959 15.9684 11.5703ZM10.071 10.6591C11.0511 9.24283 10.8388 8.79793 8.97988 8.37346C8.0329 8.15722 6.93903 7.84575 6.5491 7.68133C5.50355 7.24051 5.68501 7.89954 7.05548 9.52024C7.7229 10.3096 8.26941 11.0937 8.26993 11.2628C8.27438 11.9248 9.47378 11.522 10.071 10.6591ZM39.6852 10.313C39.8321 10.0725 39.869 9.79139 39.7672 9.68832C39.4846 9.40234 38.2507 9.96852 38.2507 10.3842C38.2507 10.8974 39.362 10.8423 39.6852 10.313ZM47.5544 8.72716C48.443 7.04677 47.9405 4.09774 46.5208 2.66085C45.2518 1.37658 42.302 2.80761 42.302 4.70736C42.302 6.00618 40.9516 5.34664 40.5244 3.83919C40.0036 2.00127 37.9303 0.915896 36.4607 1.71186C34.7082 2.6611 33.8311 6.09493 34.9944 7.4524C35.425 7.95489 35.8348 8.54068 35.9051 8.75419C35.9783 8.9763 36.7892 8.87229 37.8005 8.51126C40.1835 7.66034 42.2637 7.71716 44.3847 8.69122C46.6011 9.70912 47.0326 9.71402 47.5544 8.72716Z" fill="#1B4A92"/>
</g>
<defs>
<clipPath id="clip0_157_280">
<rect width="81" height="32" fill="white"/>
</clipPath>
</defs>
</svg>
