<svg width="81" height="41" viewBox="0 0 81 41" fill="none" xmlns="http://www.w3.org/2000/svg">
<g clip-path="url(#clip0_157_274)">
<mask id="mask0_157_274" style="mask-type:luminance" maskUnits="userSpaceOnUse" x="-6" y="-6" width="90" height="53">
<path fill-rule="evenodd" clip-rule="evenodd" d="M-5.30176 -5.37671L83.8894 -5.31292L83.9275 46.1196L-5.26362 46.0558L-5.30176 -5.37671Z" fill="white"/>
</mask>
<g mask="url(#mask0_157_274)">
<path d="M72.701 0.00240489C72.3087 0.0192219 71.8893 0.0778553 71.437 0.178062C70.2129 0.4492 69.8556 0.592789 69.5269 0.941651C69.1812 1.30852 68.3324 1.81174 68.1902 1.73377C68.0504 1.65709 66.8535 2.04303 66.3339 2.33382C66.1931 2.41263 65.6079 2.70196 65.0321 2.97497C64.4563 3.24798 63.5591 3.77512 63.0366 4.14742C62.5141 4.51971 61.9384 4.91232 61.757 5.01819C61.4792 5.18034 60.0944 6.23092 59.6445 6.6215C59.5704 6.68583 59.2999 6.90269 59.0427 7.1025C58.5548 7.48152 57.8503 8.12621 57.3642 8.64307C57.2307 8.78507 57.0505 8.94012 56.9177 9.03607C56.9074 9.02967 56.9031 9.02355 56.8923 9.01719C56.4922 8.78165 55.9092 8.19724 55.3456 7.4691C54.5209 6.40336 53.382 5.97368 51.6764 6.08377C50.5227 6.15824 50.1762 6.23953 49.8264 6.51712C49.4585 6.80904 48.6109 7.15424 48.4928 7.06075C48.3767 6.96881 47.2339 7.15703 46.7188 7.3526C46.5791 7.4056 46.0028 7.58709 45.439 7.75786C44.8752 7.92862 43.9826 8.29112 43.4529 8.56231C42.9232 8.83349 42.341 9.1154 42.1605 9.18773C41.8841 9.29853 40.4729 10.077 40.0067 10.3758C39.9299 10.4251 39.6521 10.5852 39.389 10.7342C38.8899 11.0167 38.155 11.5173 37.6375 11.9287C37.471 12.0611 37.2277 12.216 37.099 12.2714C36.9703 12.3268 36.4297 12.7076 35.8955 13.117C34.8624 13.9088 34.1951 14.3749 34.106 14.365C33.9755 14.3505 33.205 14.9829 33.1907 15.1164C33.182 15.1975 32.5816 15.6252 31.8572 16.0689C31.0135 16.5858 30.4471 17.032 30.28 17.3076C30.1365 17.5442 29.9803 17.7312 29.9317 17.7258C29.8831 17.7204 29.546 17.9518 29.1842 18.2382C28.8224 18.5245 28.4688 18.7524 28.3955 18.7443C28.3222 18.7361 28.0026 19.0122 27.6861 19.3605C26.9795 20.138 26.2292 20.6847 25.6115 20.8695C25.0316 21.043 22.5416 20.8442 21.0398 20.506C20.4462 20.3723 19.845 20.2583 19.7027 20.2507C18.3677 20.18 16.8737 19.947 16.7498 19.7904C16.6008 19.602 16.1021 19.611 15.904 19.8058C15.7442 19.9628 15.4662 19.9574 14.171 19.7674C13.3217 19.6428 10.6631 19.2821 8.26525 18.9663C5.86742 18.6504 3.64844 18.3498 3.3322 18.2976C2.8432 18.2168 2.73189 18.2453 2.59726 18.4829C2.47903 18.6915 2.33161 18.7475 2.01441 18.7123C1.50401 18.6555 1.22149 18.843 1.25109 19.2152C1.26685 19.4134 1.11659 19.5815 0.709573 19.8221C0.400087 20.005 0.104183 20.2513 0.0508121 20.3691C-0.197612 20.9172 0.63289 21.632 1.94916 22.0022C2.3355 22.1109 2.74119 22.2651 2.85222 22.3454C2.96325 22.4257 3.27998 22.4877 3.5556 22.4809C3.83121 22.4742 4.44403 22.6092 4.91801 22.7834C5.392 22.9576 6.20479 23.1775 6.72087 23.2685C7.68116 23.4378 9.3305 23.7599 11.9233 24.2895C13.58 24.6279 15.2724 25.1569 15.6432 25.4484C15.7804 25.5562 16.2919 25.7145 16.7775 25.8011C17.2632 25.8878 17.8565 26.0427 18.0956 26.1476C18.3347 26.2525 18.9081 26.4806 19.3726 26.6513C20.3232 27.0009 20.4006 27.1807 19.788 27.6328C18.0912 28.8852 16.8954 29.647 16.2627 29.8804C15.4251 30.1894 15.0325 30.5132 14.9832 30.9336C14.9428 31.2781 15.12 31.4429 15.4301 31.349C15.7529 31.2512 16.7951 31.4377 16.8748 31.6074C16.9186 31.7005 16.9769 31.7036 17.0459 31.6138C17.1036 31.5387 17.2081 31.5214 17.2772 31.5761C17.4267 31.6945 18.5702 31.5904 19.6817 31.3569C20.1207 31.2646 20.5955 31.2015 20.7366 31.2189C21.0415 31.2563 23.1877 30.8894 23.8349 30.6885C24.2558 30.5578 24.2978 30.5672 24.4369 30.824C24.5404 31.0151 24.795 31.1472 25.2544 31.252C26.3408 31.5 28.1509 31.8204 29.1293 31.9392L30.0418 32.0528L29.9849 32.4333C29.94 32.7354 30.0053 32.8694 30.2925 33.0625C31.0379 33.5638 32.2231 34.6162 32.6884 35.1896C33.1655 35.7776 33.1674 35.7863 33.0311 36.5832C32.8815 37.458 32.2687 38.5926 31.5843 39.2561C31.3179 39.5144 31.2117 39.7205 31.2487 39.9071C31.2853 40.0914 31.4148 40.1895 31.648 40.2155C31.9308 40.2464 32.1123 40.1079 32.6615 39.439C33.0299 38.9904 33.3797 38.5936 33.4406 38.5586C33.5015 38.5236 33.5847 38.3152 33.6241 38.0963C33.6636 37.8774 33.7297 37.7251 33.7697 37.7566C33.8358 37.8087 33.8876 39.0621 33.8433 39.5369C33.8013 39.9878 34.0209 40.4804 34.2777 40.509C34.5787 40.5425 35.0497 40.2381 35.0759 39.9935C35.0856 39.903 35.1673 39.8091 35.2595 39.7828C35.3597 39.7542 35.3393 39.7189 35.2057 39.6978C35.029 39.67 34.9934 39.5472 35.0407 39.1065C35.0936 38.6129 35.1448 38.537 35.4808 38.4493C35.7714 38.3734 35.9123 38.3982 36.0796 38.5533C36.4067 38.8565 36.7279 38.8422 36.9952 38.5127C37.4037 38.0092 36.943 37.3765 36.0981 37.2826C35.9393 37.2649 35.5832 37.106 35.306 36.93C35.0288 36.754 34.711 36.5993 34.5993 36.5869C34.4877 36.5745 34.3759 36.4585 34.3521 36.3289C34.2441 35.7411 33.6969 34.4053 33.4039 34.0136C33.2263 33.7761 32.9149 33.3432 32.7129 33.0508L32.3452 32.5191L33.2165 32.6893C33.6947 32.7834 34.4111 32.9456 34.8102 33.0516C35.3613 33.1979 35.6833 33.213 36.144 33.1087C36.7815 32.9646 36.9674 33.002 37.8423 33.4459C38.4008 33.7293 38.8054 34.204 38.7773 34.544C38.7684 34.6519 38.8529 34.9382 38.9645 35.1794C39.0761 35.4207 39.1995 35.8265 39.2405 36.0823C39.3118 36.5282 39.2852 36.5682 38.6136 37.0822C38.021 37.5356 37.9139 37.6842 37.9106 38.035C37.9079 38.3306 37.9809 38.4674 38.1611 38.5163C38.5199 38.6137 38.8753 38.5243 38.896 38.331C38.9057 38.2404 39.0669 38.1055 39.2539 38.0292C39.4409 37.9529 39.5986 37.8353 39.6055 37.7714C39.6123 37.7076 39.6726 37.7004 39.7385 37.7526C39.8044 37.8048 39.8425 37.9875 39.8242 38.1584C39.8059 38.3292 39.844 38.512 39.9099 38.5642C39.9758 38.6163 40.0168 38.771 40.0019 38.9102C39.9597 39.3041 40.6704 39.3343 40.9809 38.9515C41.2259 38.6494 41.2534 37.9666 41.0342 37.6179C40.9716 37.5183 41.0182 37.4032 41.1577 37.3097C41.3427 37.1856 41.4898 37.2122 42.0416 37.4736C42.7987 37.8321 43.1138 37.8034 43.1599 37.3733C43.1957 37.04 42.7091 36.6454 41.9747 36.4104C41.7365 36.3342 41.4048 36.0802 41.23 35.8377C41.054 35.5936 40.7597 35.3656 40.5613 35.3216C40.3661 35.2783 40.1909 35.1802 40.1747 35.1044C40.1585 35.0286 39.9071 34.5069 39.6166 33.9467C39.3262 33.3866 39.096 32.8633 39.1029 32.7828C39.1099 32.7022 39.397 32.5886 39.7428 32.5314C40.0887 32.4741 40.7189 32.2988 41.143 32.1419C41.567 31.985 41.9915 31.8646 42.0838 31.8749C42.1976 31.8873 42.4652 31.7639 42.8124 31.5638C43.5265 31.3832 45.1392 30.8391 45.695 30.571C46.1243 30.3638 46.1717 30.3669 46.3635 30.6121C46.5062 30.7947 46.7979 30.8911 47.3077 30.9238C48.5132 31.0012 50.5068 31.0312 51.5752 30.9915L52.5732 30.9573L52.5765 31.3662C52.5787 31.6895 52.6709 31.8164 53.0108 31.9703C53.8931 32.3696 55.3384 33.2709 55.9325 33.7925C56.5417 34.3274 56.5452 34.3395 56.5318 35.1955C56.5171 36.1353 56.0472 37.4251 55.4241 38.2335C55.1817 38.5482 55.1034 38.7773 55.1741 38.9663C55.2441 39.1529 55.3983 39.2363 55.6526 39.2244C55.9609 39.2092 56.1349 39.0317 56.6122 38.2402C56.9322 37.7095 57.243 37.2368 57.3024 37.19C57.3619 37.1432 57.4136 36.9128 57.4195 36.6773C57.4253 36.4418 57.4694 36.2705 57.5175 36.2968C57.597 36.3402 57.8605 37.6425 57.8921 38.1464C57.9221 38.6249 58.2429 39.1034 58.5229 39.0902C58.851 39.0748 59.3051 38.6776 59.2925 38.4174C59.2878 38.3212 59.3595 38.2088 59.454 38.1658C59.5566 38.1191 59.5279 38.0868 59.3811 38.0872C59.1871 38.0876 59.128 37.9645 59.1052 37.4958C59.0798 36.9708 59.1238 36.8828 59.4693 36.7347C59.768 36.6067 59.9231 36.6071 60.1283 36.7413C60.5293 37.0035 60.8724 36.9359 61.104 36.5466C61.4579 35.9517 60.8556 35.3674 59.9345 35.4107C59.7613 35.4189 59.3515 35.312 59.0251 35.1745C58.6988 35.0369 58.3325 34.9294 58.2108 34.9351C58.0891 34.9408 57.9505 34.837 57.9034 34.7054C57.6899 34.1089 56.8814 32.8039 56.5022 32.4434C56.2724 32.2248 55.8673 31.8248 55.6021 31.5529L55.1204 31.0558L56.0803 31.0907C56.6085 31.109 57.406 31.1607 57.8514 31.2046C58.4663 31.2653 58.8133 31.2246 59.2896 31.0385C59.9488 30.7809 60.1537 30.7876 61.1652 31.1052C61.8109 31.308 62.324 31.7393 62.3505 32.0996C62.3589 32.2139 62.4951 32.4984 62.6549 32.7319C62.8146 32.9655 63.0187 33.368 63.1051 33.6285C63.2558 34.0828 63.2329 34.1296 62.5986 34.7795C62.0391 35.3529 61.9486 35.5254 62.0035 35.8927C62.0497 36.2023 62.1477 36.3343 62.349 36.3552C62.7498 36.3969 63.116 36.2434 63.106 36.0378C63.1014 35.9414 63.2509 35.7717 63.4385 35.6605C63.6262 35.5494 63.7775 35.4046 63.7742 35.3367C63.7709 35.2688 63.8343 35.2492 63.9136 35.2927C63.993 35.3362 64.0665 35.52 64.0754 35.7017C64.0842 35.8833 64.1546 36.0671 64.2339 36.1106C64.3133 36.1541 64.3853 36.3118 64.3925 36.4598C64.4128 36.8788 65.1783 36.7898 65.4474 36.3375C65.6597 35.9807 65.5751 35.2626 65.2821 34.9347C65.1985 34.841 65.2273 34.713 65.3612 34.5918C65.5388 34.4311 65.702 34.4334 66.337 34.6142C67.208 34.8623 67.5408 34.7828 67.5186 34.3253C67.5014 33.9708 66.9124 33.636 66.0863 33.5133C65.8183 33.4735 65.4204 33.2623 65.1927 33.038C64.9635 32.8122 64.6109 32.6259 64.391 32.6131C64.1746 32.6005 63.9741 32.5259 63.9442 32.4493C63.9142 32.3728 63.5563 31.8727 63.1517 31.3356C62.7472 30.7985 62.4127 30.2883 62.4068 30.203C62.4008 30.1176 62.6918 29.953 63.0529 29.8352C63.4141 29.7175 64.0595 29.4261 64.4878 29.191C64.9162 28.9559 65.3501 28.7589 65.4508 28.7542C65.997 28.7271 69.1045 25.7001 70.5464 23.7896C70.8151 23.4336 71.3628 22.709 71.7655 22.1797C72.1682 21.6504 72.4962 21.1742 72.4938 21.1231C72.4913 21.0721 72.6017 20.8561 72.7407 20.642C72.8796 20.4279 73.0307 20.0669 73.0762 19.8401C73.1217 19.6132 73.3454 18.98 73.5699 18.4343C73.7943 17.8886 74.0377 17.159 74.111 16.8115C74.3388 15.7311 75.6812 12.7691 76.0989 12.4277C76.3085 12.2564 76.5246 12.0677 76.5803 12.0064C76.8024 11.7619 77.5585 10.4387 77.6314 10.1668C77.7225 9.82695 79.1033 9.07186 79.6807 9.0447C80.0825 9.02581 81.002 8.33391 80.9888 8.06071C80.9846 7.97462 80.8026 7.83671 80.5863 7.75546C80.0201 7.54281 79.1256 6.38033 78.9824 5.6695C78.9008 5.26413 78.7064 4.92646 78.3674 4.60301C78.0946 4.34274 77.7829 3.90548 77.6764 3.63084C77.5095 3.20078 77.5139 3.11013 77.7046 2.99235C78.0348 2.78846 77.9613 2.53952 77.5175 2.36951C77.0495 2.19025 76.3253 1.68011 75.6002 1.01314C74.8042 0.281001 73.8778 -0.048052 72.701 0.00240489ZM72.505 1.14408C72.778 1.15396 73.0306 1.18534 73.2369 1.23557C74.0606 1.43615 75.3999 2.06234 76.0253 2.54194C76.713 3.06927 76.9949 3.57326 77.2618 4.75042C77.5046 5.82151 77.5025 5.86485 77.2338 6.1375C77.0811 6.29247 76.9939 6.50144 77.0376 6.59979C77.0812 6.69813 77.0816 6.93107 77.0378 7.11876C76.9673 7.42019 76.9116 7.44573 76.5658 7.3482C76.3505 7.28746 76.1696 7.18565 76.1665 7.12158C76.1559 6.90324 75.376 6.16313 75.0414 6.05489C74.846 5.99167 74.7006 5.83272 74.6928 5.67103C74.6698 5.19797 73.8842 4.53161 73.1684 4.37772C72.3521 4.20223 71.8909 4.22039 71.3277 4.45251C70.9488 4.6087 70.8461 4.59929 70.5927 4.38304C70.2575 4.09703 70.1124 3.63644 69.9932 2.49876C69.9159 1.76111 69.9353 1.69058 70.2653 1.5018C70.6929 1.25716 71.6861 1.11445 72.505 1.14408ZM69.8548 5.1219C69.9539 5.12037 70.0628 5.14798 70.1748 5.2101C70.3354 5.29914 70.4756 5.4974 70.4855 5.65056C70.4954 5.80372 70.5998 6.04575 70.7201 6.1885C70.8404 6.33124 70.9456 6.54932 70.9516 6.67297C70.9576 6.79661 71.0939 7.14214 71.256 7.4374C71.8724 8.5598 73.6176 8.69244 74.6302 7.69659L74.9437 7.38847L75.2638 7.73458C75.4399 7.92373 75.8266 8.24052 76.1258 8.43945C76.6836 8.81026 76.8539 9.26429 76.4937 9.42093C76.3823 9.46938 76.2636 9.73745 76.2278 10.0184C76.1921 10.2994 76.0824 10.6725 75.9842 10.8456C75.7146 11.3207 74.7439 11.876 73.8209 12.0872C73.3676 12.1908 72.9591 12.2683 72.9148 12.2567C72.8705 12.245 72.5345 12.2237 72.1671 12.2123C71.5492 12.1932 71.4983 12.1646 71.4795 11.8189C71.453 11.3301 71.3397 11.1904 70.7346 10.8939C70.2818 10.672 70.057 10.4118 69.7711 9.78639C69.6103 9.43474 69.3175 9.03147 69.0515 8.79219C68.8656 8.62489 68.7855 8.33627 68.7565 7.7384C68.7223 7.03323 68.7632 6.86913 69.0507 6.59676C69.2813 6.37827 69.3792 6.13616 69.364 5.82313C69.3434 5.39788 69.5577 5.12652 69.8548 5.1219ZM72.5668 5.34626C72.8683 5.33208 73.1573 5.38373 73.21 5.45973C73.2627 5.53573 73.4115 5.57508 73.5395 5.54792C73.7074 5.5123 73.7877 5.61408 73.8311 5.91289C73.8642 6.14069 73.97 6.46132 74.0627 6.62382C74.1553 6.78633 74.1953 7.01794 74.1548 7.13969C74.059 7.4273 73.8444 7.43054 73.6669 7.14894C73.581 7.01271 73.3605 6.93747 73.1029 6.95686C72.8281 6.97754 72.5303 6.86787 72.2505 6.63886C71.8697 6.3271 71.8322 6.2343 71.9207 5.83039C72.0119 5.414 72.0668 5.36977 72.5668 5.34626ZM50.983 7.03968C51.6658 6.98837 52.6211 7.09897 53.1627 7.32988C53.8837 7.6372 55.0111 8.42129 55.511 8.96005C56.0606 9.55242 56.2442 10.0593 56.3165 11.1967C56.3824 12.2316 56.3763 12.2741 56.0921 12.4893C55.9306 12.6116 55.8196 12.7937 55.8452 12.8918C55.8707 12.99 55.8365 13.2074 55.7693 13.3762C55.6615 13.6472 55.6075 13.6653 55.3068 13.5238C55.1196 13.4357 54.9708 13.3134 54.9772 13.2532C54.9992 13.0479 54.3945 12.2421 54.1055 12.0923C53.9367 12.0047 53.8293 11.8353 53.8456 11.6833C53.8933 11.2385 53.2737 10.5028 52.6443 10.2548C51.9265 9.972 51.502 9.92158 50.9556 10.056C50.5879 10.1465 50.4991 10.1216 50.2997 9.88279C50.036 9.56702 49.9671 9.11854 50.0234 8.03953C50.0599 7.33991 50.0881 7.27443 50.4159 7.14641C50.5575 7.09111 50.7554 7.05678 50.983 7.03968ZM65.3664 7.3754C65.4492 7.36472 65.2564 7.73883 64.9485 8.10495C64.7112 8.38717 64.2914 8.88369 64.0175 9.20861C63.4739 9.85356 63.4211 10.0976 63.7645 10.3534C63.9545 10.4949 64.0674 10.4382 64.4899 9.98883C65.0463 9.39706 65.2433 9.31217 65.1361 9.71228C65.0669 9.97042 65.4 10.4102 65.6559 10.3982C65.9199 10.3857 66.1943 9.91215 66.1783 9.49565C66.169 9.25308 66.2533 8.92431 66.3681 8.76601C66.5631 8.49712 66.5758 8.52992 66.5299 9.27876C66.4845 10.0201 66.5016 10.0807 66.7646 10.0683C67.1432 10.0505 67.4635 10.6386 67.237 10.9366C67.1485 11.0532 67.1024 11.2931 67.1358 11.4681C67.1816 11.7076 67.1207 11.7991 66.892 11.8423C66.6794 11.8826 66.5652 12.0327 66.5121 12.3423C66.4403 12.7603 66.3986 12.8878 66.0912 13.572C66.0215 13.7271 65.9697 13.9837 65.9773 14.1412C65.9868 14.3362 65.8417 14.4968 65.5213 14.6474C64.7549 15.0077 64.761 15.712 65.5312 15.6823C65.67 15.6769 65.9828 15.7645 66.2251 15.8744L66.6656 16.0727L66.1526 16.6701C65.0117 17.9953 62.87 20.2584 62.7514 20.2639C62.6819 20.2672 62.619 20.2235 62.6151 20.1664C62.6112 20.1092 62.5499 19.9802 62.4788 19.8801C62.3194 19.6556 61.7644 19.9351 61.7788 20.2321C61.7838 20.3357 61.6959 20.4595 61.5824 20.5088C61.469 20.5582 61.3738 20.5386 61.3702 20.4647C61.3666 20.3908 61.2186 20.3368 61.0438 20.3451C60.7323 20.3597 59.7997 21.0913 58.963 21.9767C58.7085 22.246 58.5027 22.367 58.4435 22.2816C58.2663 22.026 57.8266 22.1587 57.5439 22.5517C57.3913 22.7639 57.1439 23.0303 56.9928 23.146C56.7507 23.3315 56.6932 23.3282 56.5239 23.1207C56.4033 22.9727 56.2281 22.9202 56.0487 22.9758C55.8468 23.0383 55.7389 22.9883 55.6811 22.8058C55.5478 22.3847 55.2373 22.5211 54.4046 23.3652C53.5389 24.2426 52.8011 24.7432 52.6214 24.5786C52.4676 24.4378 53.2986 23.6779 54.0339 23.2864C54.6499 22.9584 54.9445 22.5517 54.8001 22.2267C54.6435 21.8741 54.3374 22.0412 53.0612 23.1697C50.1597 25.7352 49.8122 26.0158 49.5647 26.0274C49.4934 26.0308 49.4228 26.0454 49.3683 26.0683C49.5072 25.9178 49.6001 25.8053 49.6026 25.7821C49.6077 25.7341 49.7395 25.5497 49.8971 25.3702C49.9513 25.3084 50.0091 25.2182 50.0649 25.1344C50.3563 25.0157 52.9297 22.9485 53.4379 22.4181C54.0397 21.7901 54.0928 21.4665 53.6054 21.4179C53.4239 21.3999 53.1116 21.639 52.7028 22.1096C52.3732 22.4889 51.5274 23.2155 50.7835 23.7664C50.8476 23.6523 50.9044 23.5407 50.9703 23.4299C51.0588 23.2812 51.1469 23.1091 51.2363 22.9425C51.3435 22.8671 51.4567 22.7853 51.5435 22.7382C52.3418 22.3049 52.6112 21.9521 52.3351 21.7037C52.2649 21.6405 52.1951 21.6165 52.0943 21.6312C52.0228 21.6417 51.9276 21.6822 51.8156 21.7349C52.318 20.6326 53.7484 18.4325 54.1459 18.1942C54.3616 18.0649 54.5868 17.9195 54.6464 17.8704C54.8841 17.6746 55.7629 16.5507 55.8687 16.3077C56.0009 16.0038 57.3663 15.4978 57.896 15.5567C58.2645 15.5977 59.2019 15.0875 59.2295 14.8306C59.2382 14.7497 59.0945 14.595 58.9094 14.4877C58.4247 14.2066 57.7795 12.9917 57.7522 12.3075C57.7366 11.9173 57.608 11.5735 57.3462 11.2222C57.3241 11.1925 57.3049 11.1483 57.2828 11.1153C57.4442 11.0053 57.596 10.9171 57.6597 10.9141C57.7512 10.9098 58.2638 10.5435 58.7999 10.103C59.3361 9.66261 59.929 9.22639 60.1175 9.13164C60.306 9.03689 60.675 8.83237 60.9379 8.67902C61.4238 8.39555 61.7751 8.40136 61.5113 8.68868C61.4316 8.77555 61.3731 8.99128 61.3816 9.16672C61.3935 9.41245 61.4763 9.48119 61.7397 9.46881C61.9278 9.45996 62.1257 9.51446 62.177 9.58849C62.4299 9.95342 63.5167 9.3143 63.7544 8.66122C63.835 8.43951 64.1151 8.17513 64.4479 8.00726C64.7551 7.85234 65.0866 7.63759 65.1859 7.52945C65.2808 7.42612 65.3388 7.37896 65.3664 7.3754ZM77.114 7.63463C77.148 7.63303 77.18 7.69363 77.1837 7.7699C77.1874 7.84619 77.1228 7.91384 77.0412 7.91768C76.9596 7.92152 76.9276 7.85777 76.9715 7.77926C77.0154 7.70074 77.08 7.63622 77.114 7.63463ZM49.3875 10.4675C49.5148 10.4445 49.6568 10.4851 49.7963 10.5966C49.9296 10.7031 50.0283 10.9084 50.0151 11.0527C50.0019 11.1971 50.0658 11.4367 50.1547 11.5875C50.2435 11.7382 50.3036 11.9588 50.2911 12.0751C50.2786 12.1913 50.3545 12.5309 50.4593 12.83C50.8578 13.9673 52.4252 14.3456 53.4915 13.564L53.8209 13.322L54.065 13.6901C54.1979 13.8922 54.506 14.2474 54.7496 14.4766C55.2037 14.904 55.2907 15.3518 54.9401 15.4455C54.8316 15.4744 54.6841 15.7073 54.6108 15.9643C54.5375 16.2213 54.3834 16.553 54.2689 16.7002C53.9546 17.1042 52.9922 17.4831 52.1212 17.5455C51.6936 17.5761 51.3108 17.5845 51.2722 17.5672C51.2335 17.5498 50.9302 17.4833 50.5973 17.4191C50.0375 17.3111 49.9938 17.2756 50.0269 16.9502C50.0736 16.4902 49.9927 16.343 49.4847 15.9781C49.1046 15.705 48.9348 15.4331 48.7651 14.8078C48.6697 14.4562 48.4653 14.0349 48.2578 13.7728C48.1128 13.5895 48.0799 13.3095 48.1402 12.7474C48.2113 12.0844 48.2726 11.9375 48.5738 11.7253C48.8155 11.5551 48.9412 11.3435 48.9727 11.0492C49.0085 10.716 49.1755 10.5057 49.3875 10.4675ZM51.6815 11.0534C51.7537 11.0518 51.8425 11.0565 51.9571 11.0692C52.2337 11.0999 52.4905 11.1921 52.5275 11.2707C52.5644 11.3493 52.6922 11.4065 52.8127 11.3998C52.9707 11.391 53.0289 11.4984 53.0251 11.7836C53.0222 12.001 53.0723 12.3136 53.1331 12.4788C53.1939 12.6439 53.1973 12.868 53.1428 12.9757C53.0139 13.2301 52.8169 13.2013 52.696 12.9126C52.6376 12.773 52.4486 12.6709 52.2112 12.6514C51.9581 12.6306 51.7007 12.4842 51.4792 12.2296C51.1777 11.8832 51.156 11.7915 51.2951 11.4275C51.4027 11.1461 51.465 11.0582 51.6815 11.0534ZM45.1048 11.9158C45.1815 11.9178 44.9537 12.2354 44.6203 12.5321C44.3633 12.7609 43.9096 13.1649 43.6132 13.4282C43.0248 13.9507 42.9388 14.1709 43.2144 14.4597C43.3669 14.6194 43.4805 14.5818 43.9303 14.2241C44.5227 13.753 44.7132 13.703 44.5575 14.0607C44.4571 14.2915 44.6969 14.7488 44.9317 14.7749C45.1738 14.8018 45.4907 14.4018 45.5365 14.0108C45.5632 13.7831 45.6907 13.4876 45.8182 13.3567C46.0347 13.1342 46.0384 13.1679 45.8881 13.8599C45.7393 14.5451 45.7485 14.6038 45.9898 14.6306C46.337 14.6692 46.5404 15.2632 46.2911 15.5082C46.1935 15.6041 46.1183 15.8212 46.1233 15.9894C46.1303 16.2195 46.0623 16.2968 45.8478 16.3038C45.6484 16.3104 45.523 16.4346 45.4298 16.7157C45.3039 17.0953 45.2453 17.2071 44.8663 17.8006C44.7803 17.9353 44.6986 18.1683 44.6827 18.3164C44.6631 18.4997 44.5054 18.6282 44.1918 18.722C43.4418 18.9464 43.3473 19.6061 44.0528 19.6907C44.1799 19.7059 44.4502 19.8298 44.6549 19.9677L45.0288 20.2195L44.4746 20.7005C43.2438 21.7706 40.9633 23.5703 40.8545 23.5582C40.7907 23.5511 40.7452 23.502 40.7499 23.4481C40.7546 23.3942 40.7145 23.2656 40.6643 23.1618C40.5517 22.929 40.0068 23.1057 39.9769 23.3849C39.9664 23.4823 39.8688 23.5881 39.7584 23.6176C39.6479 23.647 39.564 23.6146 39.5714 23.5451C39.5789 23.4757 39.4529 23.4024 39.2925 23.3846C39.0068 23.3529 38.051 23.9001 37.1609 24.6042C36.8901 24.8183 36.6829 24.9031 36.6414 24.8147C36.5171 24.5504 36.1004 24.6084 35.786 24.9339C35.6163 25.1097 35.3512 25.3227 35.1969 25.4087C34.9496 25.5465 34.8995 25.5356 34.7755 25.3173C34.6871 25.1616 34.5319 25.0838 34.3604 25.1095C34.1676 25.1384 34.0792 25.0774 34.053 24.8987C33.9927 24.4863 33.6887 24.5685 32.8081 25.2348C31.8928 25.9273 31.1487 26.2883 31.0089 26.1085C30.8894 25.9546 31.7556 25.3668 32.4817 25.1088C33.0902 24.8926 33.4179 24.5558 33.3336 24.2316C33.2421 23.8797 32.9391 23.99 31.6136 24.8569C28.6 26.8276 28.2456 27.0384 28.0186 27.0132C27.8877 26.9986 27.7536 27.0313 27.7239 27.0854C27.6943 27.1396 27.4477 27.3218 27.1728 27.4878C26.898 27.6538 26.647 27.7824 26.6185 27.777C26.4937 27.753 26.1232 27.3331 26.2382 27.3459C26.3087 27.3537 26.8439 27.1161 27.426 26.818C28.0082 26.5198 28.5112 26.2769 28.5442 26.2805C28.696 26.2974 31.5088 24.6414 32.0632 24.2091C32.7021 23.7109 32.8005 23.4197 32.3638 23.3034C32.2012 23.26 31.8825 23.4363 31.4421 23.8157C31.0719 24.1346 30.1322 24.7308 29.3548 25.1391C28.5773 25.5474 27.891 25.9365 27.8312 26.0035C27.7617 26.0814 27.73 26.068 27.7394 25.9688C27.7631 25.7167 29.5452 24.507 30.2954 24.2336C31.085 23.9457 31.3816 23.6568 31.1663 23.3847C31.0567 23.2463 30.9249 23.2448 30.5485 23.3782C30.0113 23.5685 29.9383 23.5754 29.9751 23.4377C30.0744 23.0662 29.9897 22.8803 29.7119 22.8494C29.5082 22.8268 29.2363 22.9819 28.8979 23.3178C28.4605 23.7518 25.8565 25.3121 25.8762 25.1283C25.9069 24.8412 28.9049 22.0977 29.1572 22.1258C29.4335 22.1565 30.1895 21.413 30.1801 21.1197C30.1638 20.6145 29.7657 20.7404 28.6501 21.6003C28.0323 22.0765 27.4627 22.5257 27.3832 22.6001C26.9341 23.0204 24.9643 24.544 24.9286 24.4989C24.8858 24.4447 25.3324 23.9434 26.8572 22.3325C27.321 21.8425 27.7134 21.3305 27.728 21.1942C27.7619 20.878 29.339 19.8253 29.8469 19.7796C30.1433 19.753 30.2309 19.6733 30.2586 19.4149C30.2801 19.2152 30.2219 19.0782 30.1096 19.0658C29.4461 18.992 30.0982 18.3071 31.8577 17.2327C32.3934 16.9056 33.1832 16.3662 33.6124 16.0319C34.0416 15.6975 34.5913 15.362 34.8318 15.2869C35.0723 15.2117 35.2725 15.1071 35.2784 15.0543C35.2844 15.0015 35.5775 14.8754 35.9278 14.7746C36.2781 14.6738 36.7587 14.4739 36.9953 14.3315C37.2319 14.1891 37.4911 14.0802 37.575 14.0895C37.6589 14.0989 38.1792 13.8346 38.7311 13.5018C39.283 13.169 39.8888 12.8461 40.0741 12.7852C40.2595 12.7243 40.6235 12.5914 40.885 12.4867C41.3686 12.293 41.6896 12.3485 41.4078 12.5781C41.3226 12.6475 41.2388 12.8408 41.2211 13.0058C41.1963 13.2368 41.2584 13.3124 41.5 13.3393C41.6725 13.3585 41.8443 13.4359 41.8802 13.5124C42.0576 13.8899 43.1404 13.4524 43.4514 12.8777C43.557 12.6826 43.8493 12.4797 44.1767 12.3716C44.4788 12.2718 44.8118 12.1186 44.9179 12.0321C45.0193 11.9496 45.0792 11.9152 45.1048 11.9158ZM74.5753 13.0751C74.686 13.1266 74.5575 13.4405 74.1322 14.3016C73.8528 14.8674 73.5373 15.7188 73.4296 16.1948C73.3219 16.6708 73.0561 17.508 72.8379 18.0534C72.6197 18.5989 72.3479 19.3301 72.2366 19.6794C71.8119 21.0122 67.6733 26.0371 65.935 27.3295C65.4811 27.667 64.9056 27.988 64.6553 28.043C64.405 28.0981 63.9215 28.271 63.5815 28.4264C63.2415 28.5817 62.287 28.8407 61.4622 29.0011C60.0489 29.2761 55.4991 29.5977 55.3193 29.436C55.2767 29.3976 54.7094 29.3663 54.0616 29.3663C52.5681 29.3663 49.973 29.2152 49.4645 29.0972L49.0748 29.0059L49.4898 28.8834C51.0113 28.4321 52.0976 27.9167 51.9573 27.7142C51.9085 27.6439 51.9296 27.5857 52.0048 27.5822C52.0799 27.5786 52.1715 27.6504 52.2076 27.7426C52.2547 27.8632 52.3852 27.8276 52.6701 27.6202C53.1473 27.2726 54.5212 26.5278 55.1977 26.2498C55.4667 26.1392 56.0332 25.8072 56.4552 25.5111C56.8772 25.2149 57.2772 24.9705 57.3452 24.9673C57.4133 24.9641 57.9828 24.6163 58.6122 24.194C59.2416 23.7717 60.0333 23.2624 60.37 23.0624C60.7068 22.8623 61.0285 22.604 61.0858 22.4902C61.1431 22.3764 61.2545 22.2801 61.3329 22.2764C61.4617 22.2703 62.3757 21.5853 62.5364 21.3741C62.5727 21.3264 62.7579 21.2395 62.9482 21.1824C63.2647 21.0875 65.2912 19.0042 67.309 16.6989C67.7554 16.1888 68.3549 15.5406 68.6422 15.2557C69.3192 14.5841 71.1624 13.613 71.8255 13.5804C72.3442 13.555 73.9444 13.2552 74.3852 13.1002C74.4728 13.0694 74.5384 13.0579 74.5753 13.0751ZM55.7632 13.87C55.7943 13.8735 55.8153 13.9335 55.8076 14.0053C55.7999 14.077 55.7304 14.1299 55.6555 14.1216C55.5807 14.1132 55.5629 14.05 55.6143 13.9832C55.6657 13.9163 55.732 13.8665 55.7632 13.87ZM52.4891 18.571C52.826 18.5071 52.7667 18.6673 52.084 19.656C51.7476 20.1432 51.3361 20.8911 51.1691 21.3195C51.0021 21.7479 50.6364 22.4902 50.3587 22.9673C50.081 23.4445 49.7318 24.0885 49.5799 24.3982C49.0001 25.5799 44.4996 29.6645 42.7296 30.617C42.2675 30.8657 41.6984 31.0798 41.4626 31.0946C41.2267 31.1095 40.7619 31.2002 40.4298 31.2955C40.0978 31.3909 39.1923 31.495 38.4181 31.5244C37.0915 31.5748 32.8999 31.2118 32.7597 31.0347C32.7264 30.9927 32.2152 30.8803 31.6254 30.7858C30.2656 30.5679 27.927 30.0469 27.4811 29.8626L27.1389 29.721L27.5349 29.6677C28.9855 29.4685 30.0471 29.1483 29.9487 28.9389C29.9145 28.8661 29.943 28.8117 30.012 28.8194C30.081 28.827 30.1542 28.9074 30.1737 28.9987C30.1991 29.118 30.3214 29.1069 30.6108 28.9548C31.0957 28.7001 32.4571 28.2044 33.1133 28.0436C33.3742 27.9797 33.9374 27.7525 34.3645 27.5377C34.7917 27.3229 35.1922 27.1505 35.2546 27.1575C35.317 27.1644 35.8874 26.9255 36.5217 26.6233C37.1559 26.321 37.9473 25.9594 38.2829 25.8219C38.6185 25.6843 38.949 25.4922 39.0177 25.3944C39.0864 25.2965 39.2024 25.2229 39.2743 25.2309C39.3924 25.2441 40.3231 24.7382 40.5001 24.5646C40.54 24.5254 40.7208 24.4707 40.9024 24.4452C41.2043 24.4027 43.3521 22.7559 45.5233 20.899C46.0037 20.4882 46.6457 19.9692 46.9485 19.7452C47.6623 19.2174 49.4793 18.5824 50.0877 18.6487C50.5636 18.7006 52.0653 18.6514 52.4891 18.571ZM17.3967 21.1526C17.6512 21.1643 18.0625 21.2233 18.7369 21.3292C19.6385 21.4708 20.4911 21.5504 20.6283 21.5061C20.8342 21.4396 24.8022 21.7826 24.7946 21.8662C24.7933 21.8806 24.5911 22.1338 24.3449 22.4291C24.0987 22.7243 23.8939 23.0053 23.8889 23.0517C23.884 23.098 23.7518 23.2471 23.5944 23.385C23.437 23.5228 23.1607 23.8613 22.9801 24.1365C22.7995 24.4116 22.4726 24.8546 22.255 25.1207C22.0374 25.3868 21.7589 25.7553 21.6375 25.9414C21.4661 26.204 21.3296 26.2695 21.023 26.2273C20.8058 26.1975 20.5717 26.147 20.5034 26.1171C20.3928 26.0685 19.3388 25.7243 18.5959 25.4936C18.3376 25.4133 18.3332 25.3856 18.5419 25.0689C18.8624 24.5826 18.8451 24.4423 18.4307 24.163C18.1692 23.9869 17.6146 23.8552 16.5359 23.7094C15.0214 23.5046 14.6248 23.3425 14.6664 22.9538C14.6952 22.6851 14.3798 22.5928 12.1538 22.2043C9.54903 21.7496 9.13676 21.6436 9.33389 21.4829C9.43649 21.3993 10.3603 21.5048 12.3374 21.8237C13.908 22.0771 16.2681 22.4415 17.581 22.6341C19.9594 22.9829 19.9674 22.9824 20.087 22.7074C20.1531 22.5556 20.1735 22.3868 20.1312 22.3331C20.089 22.2794 19.2696 22.1023 18.3094 21.9392C17.3492 21.7762 16.0466 21.538 15.4167 21.4097L14.2729 21.1765L15.5941 21.3029C16.6051 21.3979 16.9414 21.3826 17.0102 21.2468C17.0473 21.1736 17.1421 21.1408 17.3967 21.1526ZM19.3326 29.6803C19.3784 29.6795 19.4058 29.691 19.4023 29.7243C19.3955 29.7871 19.2345 29.8902 19.0444 29.9538C18.8469 30.0199 18.7374 30.017 18.7909 29.9474C18.8937 29.8136 19.1951 29.6826 19.3326 29.6803Z" fill="#1B4A92"/>
</g>
</g>
<defs>
<clipPath id="clip0_157_274">
<rect width="81" height="40.5" fill="white"/>
</clipPath>
</defs>
</svg>
