<svg width="75" height="32" viewBox="0 0 75 32" fill="none" xmlns="http://www.w3.org/2000/svg">
<g clip-path="url(#clip0_157_283)">
<path d="M74.9405 8.70981C74.5952 7.96164 73.2844 7.51644 71.6405 7.58895C69.6312 7.67756 69.1079 7.94133 69.4069 8.71469C69.7451 9.58909 70.6424 9.91987 70.7227 9.19974C70.7708 8.76859 71.0198 8.62168 71.7689 8.58251C73.1505 8.51023 73.8543 9.01906 73.5799 9.89171C73.4586 10.2776 73.1384 10.6831 72.8684 10.7928C72.5983 10.9027 71.8378 11.3225 71.1782 11.7259C70.5186 12.1293 68.931 12.8292 67.6501 13.2812C65.7254 13.9604 65.2247 14.0274 64.7652 13.6673C64.367 13.3551 64.048 13.3256 63.6412 13.563C62.6791 14.1244 61.6915 14.0207 59.6217 13.1409C57.9796 12.4428 57.2881 11.9699 55.66 10.4312C52.09 7.05718 48.9931 6.21517 44.0621 7.27789C42.8002 7.54985 41.3952 7.74961 40.9398 7.72181C40.32 7.68398 40.0682 7.82401 39.938 8.27902C39.6853 9.1617 40.5942 9.61169 41.7514 9.17675C42.9232 8.73628 43.3332 9.01398 45.5594 11.7563C47.1363 13.6987 47.1651 13.7197 50.0294 15.0063C51.6144 15.7197 52.8981 16.3334 52.8807 16.3727C52.7614 16.6444 49.9544 17.2565 48.5634 17.3146C44.753 17.4739 38.6685 16.487 38.9931 15.7623C39.2349 15.2225 36.9193 10.018 35.6093 8.15687C34.7709 6.96582 32.8225 5.38822 30.3132 3.86883C29.0889 3.12755 28.2023 2.39759 27.9045 1.88579C27.1996 0.674534 26.4595 0.444637 26.0693 1.31574C25.4674 2.65938 25.1888 5.41028 25.5256 6.68395C25.7113 7.3863 25.8438 8.00443 25.82 8.05758C25.7962 8.11077 25.0519 8.14873 24.1659 8.14206C23.28 8.1354 21.1007 8.12935 19.3232 8.12857C15.5021 8.12693 14.204 7.95433 12.5889 7.23313C11.5977 6.78913 11.3488 6.53983 11.1573 5.79C10.8814 4.70927 11.2247 3.82018 12.1428 3.23782C13.1982 2.56835 13.6789 2.74484 13.8234 3.85499C13.8944 4.40041 14.0535 4.7776 14.1771 4.69323C14.5423 4.44373 14.5144 2.30305 14.1438 2.13705C12.8067 1.53809 10.8035 2.4137 10.1417 3.88647C9.94616 4.32137 9.88686 5.07125 10.0098 5.55278C10.1327 6.03435 10.1808 6.54547 10.1167 6.68865C9.99534 6.9596 9.03172 6.93858 8.70012 6.65771C8.31814 6.33423 5.70835 6.91866 4.98555 7.48957C4.14407 8.15423 4.06918 8.86151 4.72522 9.94838C5.25918 10.833 6.06819 11.1437 6.89885 10.7833C7.81141 10.3874 7.61902 9.9812 6.48483 9.90928C3.74334 9.7354 5.25444 7.42964 8.05197 7.51802C9.53642 7.56492 14.3116 9.77846 16.8869 11.6134C18.1265 12.4967 19.4975 13.3792 19.9336 13.5746C20.3698 13.7699 20.6781 14.0382 20.6187 14.1708C20.5593 14.3034 21.0847 14.909 21.7861 15.5166C22.4875 16.1242 23.0912 16.6701 23.1276 16.7296C23.164 16.7891 22.6314 17.0683 21.944 17.3498C21.2036 17.6531 20.3444 18.2994 19.8366 18.9352C19.365 19.5256 18.452 20.39 17.8076 20.8562C16.4262 21.8555 16.049 22.5081 16.6875 22.7941C16.9382 22.9064 17.4276 22.8855 17.7751 22.7476C18.8932 22.3039 19.6523 22.1303 20.4358 22.139C22.2254 22.1589 22.9219 22.2322 23.4137 22.4525C23.7007 22.5811 24.9541 22.7838 26.199 22.903C28.5278 23.126 30.8905 22.763 33.1974 21.8278C33.9216 21.5343 35.1697 21.0444 35.9712 20.7391C37.4696 20.1683 38.1351 19.3428 38.2414 17.9231C38.285 17.3411 38.4663 17.3237 40.6598 17.6907C41.9641 17.909 43.4682 18.0863 44.0025 18.0848C44.5367 18.0833 45.0573 18.1195 45.1594 18.1652C45.5287 18.3307 49.1192 18.2816 49.9224 18.1001C50.375 17.9979 50.7646 17.9641 50.7882 18.0251C50.8117 18.086 50.2185 18.6299 49.4698 19.2337C47.4973 20.8244 46.2909 22.9926 46.0627 25.3567C45.9659 26.3608 46.0132 27.6508 46.1679 28.2234C46.4026 29.0916 46.5477 29.2516 47.043 29.1878C47.5416 29.1237 47.7431 28.8348 48.302 27.383C49.0454 25.4522 49.252 25.2675 52.313 23.8094C53.311 23.3339 54.629 22.6171 55.242 22.2164C56.5807 21.3414 60.8935 17.7294 61.07 17.3354C61.3792 16.645 65.6642 14.7934 68.0179 14.333C68.5542 14.2281 70.1789 13.4865 71.6285 12.6849C73.8521 11.4553 74.3342 11.0684 74.7132 10.2089C74.9606 9.64883 75.0625 8.97412 74.9405 8.70981ZM60.089 16.7725C59.9103 16.7956 59.6819 16.9978 59.5815 17.2221C59.481 17.4462 58.4008 18.4295 57.1809 19.4071C55.0679 21.1004 54.1025 21.6845 50.0608 23.7155C49.0902 24.2032 48.1872 24.828 48.0542 25.1039C47.5668 26.1145 47.0828 26.135 47.1077 25.1439C47.1383 23.923 48.518 21.4706 49.8557 20.2593C50.9682 19.252 53.5195 17.985 53.6717 18.3643C53.725 18.497 53.1367 19.068 52.3644 19.6331C50.9209 20.6896 50.3334 21.5181 50.6744 22.0163C50.9828 22.4667 51.8622 22.0831 52.1918 21.3544C52.5594 20.5417 55.1816 18.7987 57.6429 17.7309C58.6733 17.2839 59.4718 16.7612 59.484 16.5258C59.5072 16.0758 60.578 15.6182 61.0807 15.8434C61.4249 15.9976 60.6789 16.6965 60.089 16.7725ZM55.0385 15.5687C53.7161 15.5445 53.0266 15.3394 50.7599 14.2959C48.0854 13.0647 48.0374 13.0281 46.0937 10.7354C45.0135 9.46128 44.1632 8.3441 44.2041 8.25273C44.2451 8.16134 44.5257 8.01902 44.8278 7.9364C45.2828 7.81198 45.4692 7.91525 45.9142 8.53816C46.2096 8.95177 46.6732 9.38956 46.9444 9.51106C47.2156 9.63256 48.0061 10.3219 48.701 11.0429C50.7291 13.1471 52.7777 14.4069 54.4325 14.5675C57.1518 14.8313 57.6268 15.6161 55.0385 15.5687ZM53.6819 13.444C52.8561 13.0741 53.117 12.6901 54.2338 12.6317C55.4756 12.5667 55.5322 12.6191 54.8582 13.2086C54.4824 13.5372 54.0729 13.6192 53.6819 13.444ZM51.6288 12.0669C50.9604 11.7675 51.2255 11.2882 51.9442 11.4963C52.3854 11.6241 52.5042 11.7731 52.3219 11.9705C52.1757 12.1288 51.8638 12.1721 51.6288 12.0669ZM49.8869 10.5146C49.6379 10.4089 49.4799 10.2205 49.5353 10.0968C49.6553 9.82884 51.1497 9.56506 51.5449 9.74207C52.0151 9.9527 50.3683 10.72 49.8869 10.5146ZM32.4014 21.0356C29.5326 22.2246 23.1928 22.1716 22.7223 20.9546C22.6357 20.7308 22.3841 20.4666 22.1631 20.3676C21.8698 20.2362 21.8769 19.9101 22.1895 19.1596C22.425 18.5942 22.7208 18.1777 22.8468 18.2342C22.9728 18.2906 23.3196 18.1236 23.6175 17.863C24.1075 17.4345 24.2526 17.4535 25.1381 18.0619C26.4042 18.9319 30.8706 19.9647 32.9234 19.8623C33.7461 19.8213 34.3682 19.9014 34.306 20.0404C34.2437 20.1794 33.3867 20.6272 32.4014 21.0356ZM31.9443 16.6701C29.6878 16.5859 29.551 16.6298 29.7921 17.3595C30.0445 18.1235 29.7295 18.2676 28.7584 17.8326C28.3495 17.6495 27.7026 17.5215 27.3209 17.5481C26.2448 17.6232 24.6514 16.6477 22.135 14.3733C20.8664 13.2266 19.0041 11.7792 17.9965 11.1568C15.0173 9.31632 14.7123 8.83517 16.6552 9.04025C17.247 9.10273 18.5841 9.13309 19.6266 9.10771C25.4954 8.96472 29.1769 9.25794 29.8415 9.92129C30.1158 10.195 30.0369 10.2928 29.3571 10.5212C28.0413 10.9633 28.5379 11.5085 30.5311 11.8098C31.4618 11.9505 32.5593 12.223 32.97 12.4153C33.7024 12.7584 33.6931 12.7652 32.4827 12.7709C31.8039 12.7742 30.8101 12.7505 30.2742 12.7184C29.7383 12.6862 29.2293 12.8174 29.143 13.01C28.9446 13.4531 29.4172 13.6659 30.713 13.7167C32.2548 13.7773 33.3055 14.0266 33.182 14.3024C33.1216 14.4373 32.27 14.4877 31.2896 14.4145C27.9414 14.1644 27.5879 15.2681 30.9158 15.5816C32.0531 15.6887 33.1964 15.8681 33.4566 15.9803C34.3057 16.3468 33.4719 16.7268 31.9444 16.6699L31.9443 16.6701ZM29.551 8.547C28.0856 8.3536 27.8233 8.24495 27.1807 7.56509C26.2513 6.58172 26.1569 5.99359 26.9884 6.36606C27.3342 6.52096 27.7604 6.50599 27.9354 6.3328C28.1105 6.15963 28.4917 6.12455 28.7826 6.25486C29.4346 6.54692 30.0044 6.03662 29.8064 5.33805C29.4886 4.21713 33.77 7.33614 34.9148 9.05956L35.5583 10.0284L33.3786 9.39639C32.1797 9.04879 30.4573 8.66658 29.551 8.547ZM30.8119 18.2297C30.4946 18.1759 30.276 18.0407 30.326 17.9291C30.4204 17.7184 31.1795 17.6974 31.6168 17.8933C32.0347 18.0805 31.4276 18.3338 30.8119 18.2297Z" fill="#1B4A92"/>
</g>
<defs>
<clipPath id="clip0_157_283">
<rect width="75" height="32" fill="white" transform="matrix(1 0 0 -1 0 32)"/>
</clipPath>
</defs>
</svg>
